<?xml version="1.0" standalone="no"?>
 <!DOCTYPE svg PUBLIC "-//W3C//DTD SVG 1.1//EN" 
 "http://www.w3.org/Graphics/SVG/1.1/DTD/svg11.dtd"> 
<svg xmlns="http://www.w3.org/2000/svg" version="1.1" 
    width="11.5926cm" height="14.9479cm" viewBox="0 0 45640 58850 ">
<title>SVG Picture created as ant_weight-F.Paste.svg date 2018/07/27 13:09:40 </title>
  <desc>Picture generated by PCBNEW </desc>
<g style="fill:#000000; fill-opacity:1;stroke:#000000; stroke-opacity:1;
stroke-linecap:round; stroke-linejoin:round; "
 transform="translate(0 0) scale(1 1)">
</g>
<g style="fill:#840000; fill-opacity:0.0; 
stroke:#840000; stroke-width:-0.000393701; stroke-opacity:1; 
stroke-linecap:round; stroke-linejoin:round;">
</g>
<g style="fill:#840000; fill-opacity:0.0; 
stroke:#840000; stroke-width:0; stroke-opacity:1; 
stroke-linecap:round; stroke-linejoin:round;">
</g>
<g style="fill:#840000; fill-opacity:1.0; 
stroke:#840000; stroke-width:0; stroke-opacity:1; 
stroke-linecap:round; stroke-linejoin:round;">
<polyline style="fill-rule:evenodd;"
points="32204,23161
32440,23161
32440,23413
32204,23413
32204,23161
" /> 
<polyline style="fill-rule:evenodd;"
points="32204,22570
32440,22570
32440,22822
32204,22822
32204,22570
" /> 
<polyline style="fill-rule:evenodd;"
points="32519,24960
32125,24960
32125,24645
32519,24645
32519,24960
" /> 
<polyline style="fill-rule:evenodd;"
points="32519,24173
32125,24173
32125,23858
32519,23858
32519,24173
" /> 
<polyline style="fill-rule:evenodd;"
points="32204,18948
32440,18948
32440,19200
32204,19200
32204,18948
" /> 
<polyline style="fill-rule:evenodd;"
points="32204,18358
32440,18358
32440,18610
32204,18610
32204,18358
" /> 
<polyline style="fill-rule:evenodd;"
points="32519,20708
32125,20708
32125,20393
32519,20393
32519,20708
" /> 
<polyline style="fill-rule:evenodd;"
points="32519,19921
32125,19921
32125,19606
32519,19606
32519,19921
" /> 
<polyline style="fill-rule:evenodd;"
points="5551,16732
5157,16732
5157,16417
5551,16417
5551,16732
" /> 
<polyline style="fill-rule:evenodd;"
points="5551,15944
5157,15944
5157,15629
5551,15629
5551,15944
" /> 
<polyline style="fill-rule:evenodd;"
points="4685,19614
4448,19614
4448,19362
4685,19362
4685,19614
" /> 
<polyline style="fill-rule:evenodd;"
points="4685,20204
4448,20204
4448,19952
4685,19952
4685,20204
" /> 
<polyline style="fill-rule:evenodd;"
points="5629,20314
5236,20314
5236,20000
5629,20000
5629,20314
" /> 
<polyline style="fill-rule:evenodd;"
points="5629,19527
5236,19527
5236,19212
5629,19212
5629,19527
" /> 
<polyline style="fill-rule:evenodd;"
points="10106,40157
10106,40393
9854,40393
9854,40157
10106,40157
" /> 
<polyline style="fill-rule:evenodd;"
points="10696,40157
10696,40393
10444,40393
10444,40157
10696,40157
" /> 
<polyline style="fill-rule:evenodd;"
points="29200,40118
29200,40354
28948,40354
28948,40118
29200,40118
" /> 
<polyline style="fill-rule:evenodd;"
points="29791,40118
29791,40354
29539,40354
29539,40118
29791,40118
" /> 
<polyline style="fill-rule:evenodd;"
points="29618,2598
29618,2362
29870,2362
29870,2598
29618,2598
" /> 
<polyline style="fill-rule:evenodd;"
points="29027,2598
29027,2362
29279,2362
29279,2598
29027,2598
" /> 
<polyline style="fill-rule:evenodd;"
points="10346,2637
10346,2401
10598,2401
10598,2637
10346,2637
" /> 
<polyline style="fill-rule:evenodd;"
points="9755,2637
9755,2401
10007,2401
10007,2637
9755,2637
" /> 
<polyline style="fill-rule:evenodd;"
points="32322,17196
32322,17763
31535,17763
31535,17196
32322,17196
" /> 
<polyline style="fill-rule:evenodd;"
points="30748,17196
30748,17763
29960,17763
29960,17196
30748,17196
" /> 
<polyline style="fill-rule:evenodd;"
points="33110,13259
33110,13826
32322,13826
32322,13259
33110,13259
" /> 
<polyline style="fill-rule:evenodd;"
points="31535,13259
31535,13826
30748,13826
30748,13259
31535,13259
" /> 
<polyline style="fill-rule:evenodd;"
points="22078,12826
22330,12826
22330,13078
22078,13078
22078,12826
" /> 
<polyline style="fill-rule:evenodd;"
points="22078,13456
22330,13456
22330,13708
22078,13708
22078,13456
" /> 
<polyline style="fill-rule:evenodd;"
points="22330,15047
22078,15047
22078,14795
22330,14795
22330,15047
" /> 
<polyline style="fill-rule:evenodd;"
points="22330,14417
22078,14417
22078,14165
22330,14165
22330,14417
" /> 
<polyline style="fill-rule:evenodd;"
points="17212,15007
16960,15007
16960,14755
17212,14755
17212,15007
" /> 
<polyline style="fill-rule:evenodd;"
points="17212,14377
16960,14377
16960,14125
17212,14125
17212,14377
" /> 
<polyline style="fill-rule:evenodd;"
points="16960,12708
17212,12708
17212,12960
16960,12960
16960,12708
" /> 
<polyline style="fill-rule:evenodd;"
points="16960,13338
17212,13338
17212,13590
16960,13590
16960,13338
" /> 
<polyline style="fill-rule:evenodd;"
points="18574,10283
18574,10031
18826,10031
18826,10283
18574,10283
" /> 
<polyline style="fill-rule:evenodd;"
points="19204,10283
19204,10031
19456,10031
19456,10283
19204,10283
" /> 
<polyline style="fill-rule:evenodd;"
points="20874,10031
20874,10283
20622,10283
20622,10031
20874,10031
" /> 
<polyline style="fill-rule:evenodd;"
points="20244,10031
20244,10283
19992,10283
19992,10031
20244,10031
" /> 
<polyline style="fill-rule:evenodd;"
points="3677,21988
3960,21988
3960,22145
3677,22145
3677,21988
" /> 
<polyline style="fill-rule:evenodd;"
points="3677,22578
3960,22578
3960,22736
3677,22736
3677,22578
" /> 
<polyline style="fill-rule:evenodd;"
points="3677,23090
3960,23090
3960,23248
3677,23248
3677,23090
" /> 
<polyline style="fill-rule:evenodd;"
points="3677,23681
3960,23681
3960,23838
3677,23838
3677,23681
" /> 
<polyline style="fill-rule:evenodd;"
points="4425,15826
4708,15826
4708,15984
4425,15984
4425,15826
" /> 
<polyline style="fill-rule:evenodd;"
points="4425,16417
4708,16417
4708,16574
4425,16574
4425,16417
" /> 
<polyline style="fill-rule:evenodd;"
points="3519,19429
3803,19429
3803,19586
3519,19586
3519,19429
" /> 
<polyline style="fill-rule:evenodd;"
points="3519,20019
3803,20019
3803,20177
3519,20177
3519,20019
" /> 
<polyline style="fill-rule:evenodd;"
points="23165,13011
23448,13011
23448,13169
23165,13169
23165,13011
" /> 
<polyline style="fill-rule:evenodd;"
points="23165,13602
23448,13602
23448,13759
23165,13759
23165,13602
" /> 
<polyline style="fill-rule:evenodd;"
points="23448,14862
23165,14862
23165,14704
23448,14704
23448,14862
" /> 
<polyline style="fill-rule:evenodd;"
points="23448,14271
23165,14271
23165,14114
23448,14114
23448,14271
" /> 
<polyline style="fill-rule:evenodd;"
points="16086,14842
15803,14842
15803,14685
16086,14685
16086,14842
" /> 
<polyline style="fill-rule:evenodd;"
points="16086,14251
15803,14251
15803,14094
16086,14094
16086,14251
" /> 
<polyline style="fill-rule:evenodd;"
points="15803,12854
16086,12854
16086,13011
15803,13011
15803,12854
" /> 
<polyline style="fill-rule:evenodd;"
points="15803,13444
16086,13444
16086,13602
15803,13602
15803,13444
" /> 
<polyline style="fill-rule:evenodd;"
points="18740,9236
18740,8952
18897,8952
18897,9236
18740,9236
" /> 
<polyline style="fill-rule:evenodd;"
points="19330,9236
19330,8952
19488,8952
19488,9236
19330,9236
" /> 
<polyline style="fill-rule:evenodd;"
points="20708,8952
20708,9236
20551,9236
20551,8952
20708,8952
" /> 
<polyline style="fill-rule:evenodd;"
points="20118,8952
20118,9236
19960,9236
19960,8952
20118,8952
" /> 
<polyline style="fill-rule:evenodd;"
points="5177,26283
5177,26000
5334,26000
5334,26283
5177,26283
" /> 
<polyline style="fill-rule:evenodd;"
points="5767,26283
5767,26000
5925,26000
5925,26283
5767,26283
" /> 
<polyline style="fill-rule:evenodd;"
points="33799,14118
33799,13834
33956,13834
33956,14118
33799,14118
" /> 
<polyline style="fill-rule:evenodd;"
points="34389,14118
34389,13834
34547,13834
34547,14118
34389,14118
" /> 
<polyline style="fill-rule:evenodd;"
points="33759,12937
33759,12653
33917,12653
33917,12937
33759,12937
" /> 
<polyline style="fill-rule:evenodd;"
points="34350,12937
34350,12653
34507,12653
34507,12937
34350,12937
" /> 
</g>
<g style="fill:#840000; fill-opacity:1.0; 
stroke:#840000; stroke-width:283.465; stroke-opacity:1; 
stroke-linecap:round; stroke-linejoin:round;">
</g>
<g style="fill:#840000; fill-opacity:0.0; 
stroke:#840000; stroke-width:283.465; stroke-opacity:1; 
stroke-linecap:round; stroke-linejoin:round;">
<path d="M14149 19645
L13645 19645
" />
<path d="M14149 20145
L13645 20145
" />
<path d="M14149 20645
L13645 20645
" />
<path d="M14149 21145
L13645 21145
" />
<path d="M14149 21645
L13645 21645
" />
<path d="M14149 22145
L13645 22145
" />
<path d="M14149 22645
L13645 22645
" />
<path d="M14149 23145
L13645 23145
" />
<path d="M14149 23645
L13645 23645
" />
<path d="M14149 24145
L13645 24145
" />
<path d="M14149 24645
L13645 24645
" />
<path d="M14149 25145
L13645 25145
" />
<path d="M14149 25645
L13645 25645
" />
<path d="M14149 26145
L13645 26145
" />
<path d="M12604 26984
L12604 26480
" />
<path d="M12104 26984
L12104 26480
" />
<path d="M11604 26984
L11604 26480
" />
<path d="M11104 26984
L11104 26480
" />
<path d="M10604 26984
L10604 26480
" />
<path d="M10104 26984
L10104 26480
" />
<path d="M9604 26984
L9604 26480
" />
<path d="M9104 26984
L9104 26480
" />
<path d="M8604 26984
L8604 26480
" />
<path d="M8104 26984
L8104 26480
" />
<path d="M7062 26145
L6559 26145
" />
<path d="M7062 25645
L6559 25645
" />
<path d="M7062 25145
L6559 25145
" />
<path d="M7062 24645
L6559 24645
" />
<path d="M7062 24145
L6559 24145
" />
<path d="M7062 23645
L6559 23645
" />
<path d="M7062 23145
L6559 23145
" />
<path d="M7062 22645
L6559 22645
" />
<path d="M7062 22145
L6559 22145
" />
<path d="M7062 21645
L6559 21645
" />
<path d="M7062 21145
L6559 21145
" />
<path d="M7062 20645
L6559 20645
" />
<path d="M7062 20145
L6559 20145
" />
<path d="M7062 19645
L6559 19645
" />
</g>
<g style="fill:#840000; fill-opacity:0.0; 
stroke:#840000; stroke-width:0; stroke-opacity:1; 
stroke-linecap:round; stroke-linejoin:round;">
</g>
<g style="fill:#840000; fill-opacity:1.0; 
stroke:#840000; stroke-width:0; stroke-opacity:1; 
stroke-linecap:round; stroke-linejoin:round;">
<polyline style="fill-rule:evenodd;"
points="11181,21732
11181,23622
9291,23622
9291,21732
11181,21732
" /> 
<polyline style="fill-rule:evenodd;"
points="2992,15590
2992,15275
3858,15275
3858,15590
2992,15590
" /> 
<polyline style="fill-rule:evenodd;"
points="724,15590
724,15275
1590,15275
1590,15590
724,15590
" /> 
<polyline style="fill-rule:evenodd;"
points="724,17165
724,16850
1590,16850
1590,17165
724,17165
" /> 
<polyline style="fill-rule:evenodd;"
points="2992,17165
2992,16850
3858,16850
3858,17165
2992,17165
" /> 
<polyline style="fill-rule:evenodd;"
points="2874,25826
2874,25511
3740,25511
3740,25826
2874,25826
" /> 
<polyline style="fill-rule:evenodd;"
points="606,25826
606,25511
1472,25511
1472,25826
606,25826
" /> 
<polyline style="fill-rule:evenodd;"
points="606,27401
606,27086
1472,27086
1472,27401
606,27401
" /> 
<polyline style="fill-rule:evenodd;"
points="2874,27401
2874,27086
3740,27086
3740,27401
2874,27401
" /> 
<polyline style="fill-rule:evenodd;"
points="26850,17267
26850,17771
25748,17771
25748,17267
26850,17267
" /> 
<polyline style="fill-rule:evenodd;"
points="28976,17267
28976,17771
27874,17771
27874,17267
28976,17267
" /> 
<polyline style="fill-rule:evenodd;"
points="8755,13464
8251,13464
8251,12362
8755,12362
8755,13464
" /> 
<polyline style="fill-rule:evenodd;"
points="8755,15590
8251,15590
8251,14488
8755,14488
8755,15590
" /> 
<polyline style="fill-rule:evenodd;"
points="23519,5078
23015,5078
23015,3976
23519,3976
23519,5078
" /> 
<polyline style="fill-rule:evenodd;"
points="23519,7204
23015,7204
23015,6102
23519,6102
23519,7204
" /> 
<polyline style="fill-rule:evenodd;"
points="19609,8050
19609,7618
19839,7618
19839,8050
19609,8050
" /> 
<polyline style="fill-rule:evenodd;"
points="19109,8050
19109,7618
19339,7618
19339,8050
19109,8050
" /> 
<polyline style="fill-rule:evenodd;"
points="18609,8050
18609,7618
18839,7618
18839,8050
18609,8050
" /> 
<polyline style="fill-rule:evenodd;"
points="18109,8050
18109,7618
18339,7618
18339,8050
18109,8050
" /> 
<polyline style="fill-rule:evenodd;"
points="20109,8050
20109,7618
20339,7618
20339,8050
20109,8050
" /> 
<polyline style="fill-rule:evenodd;"
points="20609,8050
20609,7618
20839,7618
20839,8050
20609,8050
" /> 
<polyline style="fill-rule:evenodd;"
points="21109,8050
21109,7618
21339,7618
21339,8050
21109,8050
" /> 
<circle cx="19724.4" cy="5472.44" r="944.882" /> 
</g>
<g style="fill:#840000; fill-opacity:1.0; 
stroke:#840000; stroke-width:39.3701; stroke-opacity:1; 
stroke-linecap:round; stroke-linejoin:round;">
</g>
<g style="fill:#840000; fill-opacity:1.0; 
stroke:#840000; stroke-width:0; stroke-opacity:1; 
stroke-linecap:round; stroke-linejoin:round;">
<polyline style="fill-rule:evenodd;"
points="14625,14051
14193,14051
14193,13822
14625,13822
14625,14051
" /> 
<polyline style="fill-rule:evenodd;"
points="14625,14551
14193,14551
14193,14322
14625,14322
14625,14551
" /> 
<polyline style="fill-rule:evenodd;"
points="14625,15051
14193,15051
14193,14822
14625,14822
14625,15051
" /> 
<polyline style="fill-rule:evenodd;"
points="14625,15551
14193,15551
14193,15322
14625,15322
14625,15551
" /> 
<polyline style="fill-rule:evenodd;"
points="14625,13551
14193,13551
14193,13322
14625,13322
14625,13551
" /> 
<polyline style="fill-rule:evenodd;"
points="14625,13051
14193,13051
14193,12822
14625,12822
14625,13051
" /> 
<polyline style="fill-rule:evenodd;"
points="14625,12551
14193,12551
14193,12322
14625,12322
14625,12551
" /> 
<circle cx="12047.2" cy="13937" r="944.882" /> 
</g>
<g style="fill:#840000; fill-opacity:1.0; 
stroke:#840000; stroke-width:39.3701; stroke-opacity:1; 
stroke-linecap:round; stroke-linejoin:round;">
</g>
<g style="fill:#840000; fill-opacity:1.0; 
stroke:#840000; stroke-width:0; stroke-opacity:1; 
stroke-linecap:round; stroke-linejoin:round;">
<polyline style="fill-rule:evenodd;"
points="24823,13822
25255,13822
25255,14051
24823,14051
24823,13822
" /> 
<polyline style="fill-rule:evenodd;"
points="24823,13322
25255,13322
25255,13551
24823,13551
24823,13322
" /> 
<polyline style="fill-rule:evenodd;"
points="24823,12822
25255,12822
25255,13051
24823,13051
24823,12822
" /> 
<polyline style="fill-rule:evenodd;"
points="24823,12322
25255,12322
25255,12551
24823,12551
24823,12322
" /> 
<polyline style="fill-rule:evenodd;"
points="24823,14322
25255,14322
25255,14551
24823,14551
24823,14322
" /> 
<polyline style="fill-rule:evenodd;"
points="24823,14822
25255,14822
25255,15051
24823,15051
24823,14822
" /> 
<polyline style="fill-rule:evenodd;"
points="24823,15322
25255,15322
25255,15551
24823,15551
24823,15322
" /> 
<circle cx="27401.6" cy="13937" r="944.882" /> 
</g>
<g style="fill:#840000; fill-opacity:1.0; 
stroke:#840000; stroke-width:39.3701; stroke-opacity:1; 
stroke-linecap:round; stroke-linejoin:round;">
</g>
<g style="fill:#840000; fill-opacity:1.0; 
stroke:#840000; stroke-width:0; stroke-opacity:1; 
stroke-linecap:round; stroke-linejoin:round;">
<polyline style="fill-rule:evenodd;"
points="33288,18719
33719,18719
33719,19056
33288,19056
33288,18719
" /> 
<polyline style="fill-rule:evenodd;"
points="33288,18042
33719,18042
33719,18379
33288,18379
33288,18042
" /> 
<polyline style="fill-rule:evenodd;"
points="33288,17364
33719,17364
33719,17701
33288,17701
33288,17364
" /> 
<polyline style="fill-rule:evenodd;"
points="33288,19396
33719,19396
33719,19733
33288,19733
33288,19396
" /> 
<polyline style="fill-rule:evenodd;"
points="33288,20073
33719,20073
33719,20410
33288,20410
33288,20073
" /> 
<circle cx="35708.7" cy="18887.8" r="944.882" /> 
</g>
<g style="fill:#840000; fill-opacity:1.0; 
stroke:#840000; stroke-width:39.3701; stroke-opacity:1; 
stroke-linecap:round; stroke-linejoin:round;">
</g>
<g style="fill:#840000; fill-opacity:1.0; 
stroke:#840000; stroke-width:0; stroke-opacity:1; 
stroke-linecap:round; stroke-linejoin:round;">
<polyline style="fill-rule:evenodd;"
points="33209,23305
33640,23305
33640,23642
33209,23642
33209,23305
" /> 
<polyline style="fill-rule:evenodd;"
points="33209,22628
33640,22628
33640,22965
33209,22965
33209,22628
" /> 
<polyline style="fill-rule:evenodd;"
points="33209,21951
33640,21951
33640,22288
33209,22288
33209,21951
" /> 
<polyline style="fill-rule:evenodd;"
points="33209,23983
33640,23983
33640,24320
33209,24320
33209,23983
" /> 
<polyline style="fill-rule:evenodd;"
points="33209,24660
33640,24660
33640,24997
33209,24997
33209,24660
" /> 
<circle cx="35629.9" cy="23474.4" r="944.882" /> 
</g>
<g style="fill:#840000; fill-opacity:1.0; 
stroke:#840000; stroke-width:39.3701; stroke-opacity:1; 
stroke-linecap:round; stroke-linejoin:round;">
</g> 
</svg>
