G04 #@! TF.FileFunction,Soldermask,Top*
%FSLAX46Y46*%
G04 Gerber Fmt 4.6, Leading zero omitted, Abs format (unit mm)*
G04 Created by KiCad (PCBNEW 4.0.7) date Thursday, 19 July 2018 'PMt' 15:05:03*
%MOMM*%
%LPD*%
G01*
G04 APERTURE LIST*
%ADD10C,0.100000*%
%ADD11C,0.300000*%
%ADD12C,5.400000*%
%ADD13C,0.800000*%
%ADD14R,0.750000X0.800000*%
%ADD15R,1.250000X1.000000*%
%ADD16R,0.800000X0.750000*%
%ADD17R,2.500000X1.800000*%
%ADD18R,0.800000X0.800000*%
%ADD19R,1.200000X1.700000*%
%ADD20O,1.200000X1.700000*%
%ADD21R,1.700000X1.700000*%
%ADD22O,1.700000X1.700000*%
%ADD23R,0.900000X0.500000*%
%ADD24R,0.500000X0.900000*%
%ADD25R,1.370000X1.070000*%
%ADD26R,1.200000X1.200000*%
%ADD27C,3.000000*%
%ADD28O,2.500000X0.900000*%
%ADD29O,0.900000X2.500000*%
%ADD30R,6.000000X6.000000*%
%ADD31C,1.200000*%
%ADD32R,2.750000X1.000000*%
%ADD33R,3.500000X1.600000*%
%ADD34R,1.600000X3.500000*%
%ADD35R,1.370000X0.730000*%
%ADD36R,1.100000X1.100000*%
%ADD37R,0.730000X1.370000*%
G04 APERTURE END LIST*
D10*
D11*
X103707144Y-98678571D02*
X103707144Y-97178571D01*
X104278572Y-97178571D01*
X104421430Y-97250000D01*
X104492858Y-97321429D01*
X104564287Y-97464286D01*
X104564287Y-97678571D01*
X104492858Y-97821429D01*
X104421430Y-97892857D01*
X104278572Y-97964286D01*
X103707144Y-97964286D01*
X105207144Y-98678571D02*
X105207144Y-97178571D01*
X106921430Y-97178571D02*
X107850001Y-97178571D01*
X107350001Y-97750000D01*
X107564287Y-97750000D01*
X107707144Y-97821429D01*
X107778573Y-97892857D01*
X107850001Y-98035714D01*
X107850001Y-98392857D01*
X107778573Y-98535714D01*
X107707144Y-98607143D01*
X107564287Y-98678571D01*
X107135715Y-98678571D01*
X106992858Y-98607143D01*
X106921430Y-98535714D01*
X108278572Y-97178571D02*
X108778572Y-98678571D01*
X109278572Y-97178571D01*
X109635715Y-97178571D02*
X110564286Y-97178571D01*
X110064286Y-97750000D01*
X110278572Y-97750000D01*
X110421429Y-97821429D01*
X110492858Y-97892857D01*
X110564286Y-98035714D01*
X110564286Y-98392857D01*
X110492858Y-98535714D01*
X110421429Y-98607143D01*
X110278572Y-98678571D01*
X109850000Y-98678571D01*
X109707143Y-98607143D01*
X109635715Y-98535714D01*
D12*
X108000000Y-118025000D03*
D13*
X110025000Y-118025000D03*
X109431891Y-119456891D03*
X108000000Y-120050000D03*
X106568109Y-119456891D03*
X105975000Y-118025000D03*
X106568109Y-116593109D03*
X108000000Y-116000000D03*
X109431891Y-116593109D03*
D12*
X108000000Y-102025000D03*
D13*
X110025000Y-102025000D03*
X109431891Y-103456891D03*
X108000000Y-104050000D03*
X106568109Y-103456891D03*
X105975000Y-102025000D03*
X106568109Y-100593109D03*
X108000000Y-100000000D03*
X109431891Y-100593109D03*
D12*
X91000000Y-102000000D03*
D13*
X93025000Y-102000000D03*
X92431891Y-103431891D03*
X91000000Y-104025000D03*
X89568109Y-103431891D03*
X88975000Y-102000000D03*
X89568109Y-100568109D03*
X91000000Y-99975000D03*
X92431891Y-100568109D03*
D12*
X91000000Y-117975000D03*
D13*
X93025000Y-117975000D03*
X92431891Y-119406891D03*
X91000000Y-120000000D03*
X89568109Y-119406891D03*
X88975000Y-117975000D03*
X89568109Y-116543109D03*
X91000000Y-115950000D03*
X92431891Y-116543109D03*
D12*
X75000000Y-117975000D03*
D13*
X77025000Y-117975000D03*
X76431891Y-119406891D03*
X75000000Y-120000000D03*
X73568109Y-119406891D03*
X72975000Y-117975000D03*
X73568109Y-116543109D03*
X75000000Y-115950000D03*
X76431891Y-116543109D03*
D12*
X58975000Y-117975000D03*
D13*
X61000000Y-117975000D03*
X60406891Y-119406891D03*
X58975000Y-120000000D03*
X57543109Y-119406891D03*
X56950000Y-117975000D03*
X57543109Y-116543109D03*
X58975000Y-115950000D03*
X60406891Y-116543109D03*
D12*
X42000000Y-117975000D03*
D13*
X44025000Y-117975000D03*
X43431891Y-119406891D03*
X42000000Y-120000000D03*
X40568109Y-119406891D03*
X39975000Y-117975000D03*
X40568109Y-116543109D03*
X42000000Y-115950000D03*
X43431891Y-116543109D03*
D12*
X59000000Y-102000000D03*
D13*
X61025000Y-102000000D03*
X60431891Y-103431891D03*
X59000000Y-104025000D03*
X57568109Y-103431891D03*
X56975000Y-102000000D03*
X57568109Y-100568109D03*
X59000000Y-99975000D03*
X60431891Y-100568109D03*
D12*
X42000000Y-102000000D03*
D13*
X44025000Y-102000000D03*
X43431891Y-103431891D03*
X42000000Y-104025000D03*
X40568109Y-103431891D03*
X39975000Y-102000000D03*
X40568109Y-100568109D03*
X42000000Y-99975000D03*
X43431891Y-100568109D03*
D12*
X58975000Y-48000000D03*
D13*
X61000000Y-48000000D03*
X60406891Y-49431891D03*
X58975000Y-50025000D03*
X57543109Y-49431891D03*
X56950000Y-48000000D03*
X57543109Y-46568109D03*
X58975000Y-45975000D03*
X60406891Y-46568109D03*
D12*
X42000000Y-48000000D03*
D13*
X44025000Y-48000000D03*
X43431891Y-49431891D03*
X42000000Y-50025000D03*
X40568109Y-49431891D03*
X39975000Y-48000000D03*
X40568109Y-46568109D03*
X42000000Y-45975000D03*
X43431891Y-46568109D03*
D12*
X42000000Y-32000000D03*
D13*
X44025000Y-32000000D03*
X43431891Y-33431891D03*
X42000000Y-34025000D03*
X40568109Y-33431891D03*
X39975000Y-32000000D03*
X40568109Y-30568109D03*
X42000000Y-29975000D03*
X43431891Y-30568109D03*
D12*
X59000000Y-32025000D03*
D13*
X61025000Y-32025000D03*
X60431891Y-33456891D03*
X59000000Y-34050000D03*
X57568109Y-33456891D03*
X56975000Y-32025000D03*
X57568109Y-30593109D03*
X59000000Y-30000000D03*
X60431891Y-30593109D03*
D12*
X90975000Y-48000000D03*
D13*
X93000000Y-48000000D03*
X92406891Y-49431891D03*
X90975000Y-50025000D03*
X89543109Y-49431891D03*
X88950000Y-48000000D03*
X89543109Y-46568109D03*
X90975000Y-45975000D03*
X92406891Y-46568109D03*
D12*
X91000000Y-32000000D03*
D13*
X93025000Y-32000000D03*
X92431891Y-33431891D03*
X91000000Y-34025000D03*
X89568109Y-33431891D03*
X88975000Y-32000000D03*
X89568109Y-30568109D03*
X91000000Y-29975000D03*
X92431891Y-30568109D03*
D14*
X107000000Y-79750000D03*
X107000000Y-78250000D03*
D15*
X107000000Y-83600000D03*
X107000000Y-81600000D03*
D14*
X107000000Y-69050000D03*
X107000000Y-67550000D03*
D15*
X107000000Y-72800000D03*
X107000000Y-70800000D03*
X38500000Y-62700000D03*
X38500000Y-60700000D03*
D14*
X36500000Y-70100000D03*
X36500000Y-71600000D03*
D15*
X38700000Y-71800000D03*
X38700000Y-69800000D03*
D16*
X50250000Y-122900000D03*
X51750000Y-122900000D03*
X98750000Y-122800000D03*
X100250000Y-122800000D03*
X100450000Y-26900000D03*
X98950000Y-26900000D03*
X51500000Y-27000000D03*
X50000000Y-27000000D03*
D17*
X106000000Y-65000000D03*
X102000000Y-65000000D03*
X108000000Y-55000000D03*
X104000000Y-55000000D03*
D18*
X81300000Y-53500000D03*
X81300000Y-55100000D03*
X81300000Y-58500000D03*
X81300000Y-56900000D03*
X68300000Y-58400000D03*
X68300000Y-56800000D03*
X68300000Y-53200000D03*
X68300000Y-54800000D03*
X72400000Y-46400000D03*
X74000000Y-46400000D03*
X77600000Y-46400000D03*
X76000000Y-46400000D03*
D19*
X99600000Y-71600000D03*
D20*
X101600000Y-71600000D03*
D21*
X37400000Y-83200000D03*
D22*
X37400000Y-80660000D03*
X37400000Y-78120000D03*
X37400000Y-75580000D03*
D21*
X30700000Y-68560000D03*
D22*
X30700000Y-71100000D03*
X30700000Y-73640000D03*
X30700000Y-76180000D03*
X30700000Y-78720000D03*
X30700000Y-81260000D03*
D21*
X93300000Y-81200000D03*
D22*
X93300000Y-83740000D03*
X93300000Y-86280000D03*
D21*
X84000000Y-44460000D03*
D22*
X84000000Y-47000000D03*
D21*
X84000000Y-103460000D03*
D22*
X84000000Y-106000000D03*
D21*
X66000000Y-44460000D03*
D22*
X66000000Y-47000000D03*
D21*
X51000000Y-95000000D03*
D22*
X51000000Y-92460000D03*
X53540000Y-95000000D03*
X53540000Y-92460000D03*
X56080000Y-95000000D03*
X56080000Y-92460000D03*
X58620000Y-95000000D03*
X58620000Y-92460000D03*
X61160000Y-95000000D03*
X61160000Y-92460000D03*
X63700000Y-95000000D03*
X63700000Y-92460000D03*
X66240000Y-95000000D03*
X66240000Y-92460000D03*
X68780000Y-95000000D03*
X68780000Y-92460000D03*
X71320000Y-95000000D03*
X71320000Y-92460000D03*
X73860000Y-95000000D03*
X73860000Y-92460000D03*
X76400000Y-95000000D03*
X76400000Y-92460000D03*
X78940000Y-95000000D03*
X78940000Y-92460000D03*
X81480000Y-95000000D03*
X81480000Y-92460000D03*
X84020000Y-95000000D03*
X84020000Y-92460000D03*
X86560000Y-95000000D03*
X86560000Y-92460000D03*
X89100000Y-95000000D03*
X89100000Y-92460000D03*
X91640000Y-95000000D03*
X91640000Y-92460000D03*
X94180000Y-95000000D03*
X94180000Y-92460000D03*
X96720000Y-95000000D03*
X96720000Y-92460000D03*
X99260000Y-95000000D03*
X99260000Y-92460000D03*
D21*
X66000000Y-103460000D03*
D22*
X66000000Y-106000000D03*
D21*
X66000000Y-33460000D03*
D22*
X66000000Y-36000000D03*
D21*
X66000000Y-113460000D03*
D22*
X66000000Y-116000000D03*
D23*
X34600000Y-76650000D03*
X34600000Y-78150000D03*
X34600000Y-79450000D03*
X34600000Y-80950000D03*
X36500000Y-61000000D03*
X36500000Y-62500000D03*
X34200000Y-70150000D03*
X34200000Y-71650000D03*
X84100000Y-53850000D03*
X84100000Y-55350000D03*
X84100000Y-58150000D03*
X84100000Y-56650000D03*
X65400000Y-58100000D03*
X65400000Y-56600000D03*
X65400000Y-53450000D03*
X65400000Y-54950000D03*
D24*
X72700000Y-43700000D03*
X74200000Y-43700000D03*
X77300000Y-43700000D03*
X75800000Y-43700000D03*
X38250000Y-87000000D03*
X39750000Y-87000000D03*
D21*
X102920000Y-60000000D03*
D22*
X105460000Y-60000000D03*
X108000000Y-60000000D03*
D25*
X109800000Y-80225000D03*
X109800000Y-78505000D03*
X109800000Y-76785000D03*
X109800000Y-81945000D03*
X109800000Y-83665000D03*
D26*
X112025000Y-84425000D03*
X112025000Y-83225000D03*
X112025000Y-82025000D03*
X112025000Y-80825000D03*
X112025000Y-79625000D03*
X112025000Y-78425000D03*
X112025000Y-77225000D03*
X112025000Y-76025000D03*
X113225000Y-76025000D03*
X113225000Y-77225000D03*
X113225000Y-78425000D03*
X113225000Y-79625000D03*
X113225000Y-80825000D03*
X113225000Y-82025000D03*
X113225000Y-83225000D03*
X113225000Y-84425000D03*
X114425000Y-84425000D03*
X114425000Y-83225000D03*
X114425000Y-82025000D03*
X114425000Y-80825000D03*
X114425000Y-79625000D03*
X114425000Y-78425000D03*
X114425000Y-77225000D03*
X114425000Y-76025000D03*
X115625000Y-76025000D03*
X115625000Y-77225000D03*
X115625000Y-78425000D03*
X115625000Y-79625000D03*
X115625000Y-80825000D03*
X115625000Y-82025000D03*
X115625000Y-83225000D03*
X115625000Y-84425000D03*
X116825000Y-84425000D03*
X116825000Y-83225000D03*
X116825000Y-82025000D03*
X116825000Y-80825000D03*
X116825000Y-79625000D03*
X116825000Y-78425000D03*
X116825000Y-77225000D03*
X116825000Y-76025000D03*
X118025000Y-76025000D03*
X118025000Y-77225000D03*
X118025000Y-78425000D03*
X118025000Y-79625000D03*
X118025000Y-80825000D03*
X118025000Y-82025000D03*
X118025000Y-83225000D03*
X118025000Y-84425000D03*
X119225000Y-84425000D03*
X119225000Y-83225000D03*
X119225000Y-82025000D03*
X119225000Y-80825000D03*
X119225000Y-79625000D03*
X119225000Y-78425000D03*
X119225000Y-77225000D03*
X119225000Y-76025000D03*
D27*
X115400000Y-80225000D03*
D25*
X110000000Y-68575000D03*
X110000000Y-66855000D03*
X110000000Y-65135000D03*
X110000000Y-70295000D03*
X110000000Y-72015000D03*
D26*
X112225000Y-72775000D03*
X112225000Y-71575000D03*
X112225000Y-70375000D03*
X112225000Y-69175000D03*
X112225000Y-67975000D03*
X112225000Y-66775000D03*
X112225000Y-65575000D03*
X112225000Y-64375000D03*
X113425000Y-64375000D03*
X113425000Y-65575000D03*
X113425000Y-66775000D03*
X113425000Y-67975000D03*
X113425000Y-69175000D03*
X113425000Y-70375000D03*
X113425000Y-71575000D03*
X113425000Y-72775000D03*
X114625000Y-72775000D03*
X114625000Y-71575000D03*
X114625000Y-70375000D03*
X114625000Y-69175000D03*
X114625000Y-67975000D03*
X114625000Y-66775000D03*
X114625000Y-65575000D03*
X114625000Y-64375000D03*
X115825000Y-64375000D03*
X115825000Y-65575000D03*
X115825000Y-66775000D03*
X115825000Y-67975000D03*
X115825000Y-69175000D03*
X115825000Y-70375000D03*
X115825000Y-71575000D03*
X115825000Y-72775000D03*
X117025000Y-72775000D03*
X117025000Y-71575000D03*
X117025000Y-70375000D03*
X117025000Y-69175000D03*
X117025000Y-67975000D03*
X117025000Y-66775000D03*
X117025000Y-65575000D03*
X117025000Y-64375000D03*
X118225000Y-64375000D03*
X118225000Y-65575000D03*
X118225000Y-66775000D03*
X118225000Y-67975000D03*
X118225000Y-69175000D03*
X118225000Y-70375000D03*
X118225000Y-71575000D03*
X118225000Y-72775000D03*
X119425000Y-72775000D03*
X119425000Y-71575000D03*
X119425000Y-70375000D03*
X119425000Y-69175000D03*
X119425000Y-67975000D03*
X119425000Y-66775000D03*
X119425000Y-65575000D03*
X119425000Y-64375000D03*
D27*
X115600000Y-68575000D03*
D24*
X110950000Y-56100000D03*
X112450000Y-56100000D03*
X110850000Y-53100000D03*
X112350000Y-53100000D03*
D21*
X107100000Y-92260000D03*
D22*
X107100000Y-94800000D03*
D28*
X60200000Y-70500000D03*
X60200000Y-71770000D03*
X60200000Y-73040000D03*
X60200000Y-74310000D03*
X60200000Y-75580000D03*
X60200000Y-76850000D03*
X60200000Y-78120000D03*
X60200000Y-79390000D03*
X60200000Y-80660000D03*
X60200000Y-81930000D03*
X60200000Y-83200000D03*
X60200000Y-84470000D03*
X60200000Y-85740000D03*
X60200000Y-87010000D03*
D29*
X56915000Y-88500000D03*
X55645000Y-88500000D03*
X54375000Y-88500000D03*
X53105000Y-88500000D03*
X51835000Y-88500000D03*
X50565000Y-88500000D03*
X49295000Y-88500000D03*
X48025000Y-88500000D03*
X46755000Y-88500000D03*
X45485000Y-88500000D03*
D28*
X42200000Y-87010000D03*
X42200000Y-85740000D03*
X42200000Y-84470000D03*
X42200000Y-83200000D03*
X42200000Y-81930000D03*
X42200000Y-80660000D03*
X42200000Y-79390000D03*
X42200000Y-78120000D03*
X42200000Y-76850000D03*
X42200000Y-75580000D03*
X42200000Y-74310000D03*
X42200000Y-73040000D03*
X42200000Y-71770000D03*
X42200000Y-70500000D03*
D30*
X50900000Y-78200000D03*
D26*
X64900000Y-70000000D03*
D31*
X64900000Y-72000000D03*
X64900000Y-74000000D03*
X64900000Y-76000000D03*
X64900000Y-78000000D03*
X64900000Y-80000000D03*
X64900000Y-82000000D03*
X64900000Y-84000000D03*
X64900000Y-86000000D03*
X64900000Y-88000000D03*
X86900000Y-88000000D03*
X86900000Y-86000000D03*
X86900000Y-84000000D03*
X86900000Y-82000000D03*
X86900000Y-80000000D03*
X86900000Y-78000000D03*
X86900000Y-76000000D03*
X86900000Y-74000000D03*
X86900000Y-72000000D03*
X86900000Y-70000000D03*
D32*
X33600000Y-59800000D03*
X27840000Y-59800000D03*
X27840000Y-63800000D03*
X33600000Y-63800000D03*
X33300000Y-85800000D03*
X27540000Y-85800000D03*
X27540000Y-89800000D03*
X33300000Y-89800000D03*
D21*
X123140000Y-59100000D03*
D22*
X120600000Y-59100000D03*
X118060000Y-59100000D03*
X115520000Y-59100000D03*
D33*
X91700000Y-65100000D03*
X97100000Y-65100000D03*
D34*
X46500000Y-53400000D03*
X46500000Y-58800000D03*
X84000000Y-32100000D03*
X84000000Y-37500000D03*
D35*
X88500000Y-56000000D03*
X88500000Y-54730000D03*
X88500000Y-53460000D03*
X88500000Y-52190000D03*
X88500000Y-57270000D03*
X88500000Y-58540000D03*
X88500000Y-59810000D03*
D36*
X91000000Y-56000000D03*
X91000000Y-57000000D03*
X91000000Y-58000000D03*
X91000000Y-59000000D03*
X91000000Y-55000000D03*
X91000000Y-54000000D03*
X91000000Y-53000000D03*
X92000000Y-53000000D03*
X93000000Y-53000000D03*
X94000000Y-53000000D03*
X95000000Y-53000000D03*
X96000000Y-53000000D03*
X97000000Y-53000000D03*
X98000000Y-53000000D03*
X98000000Y-54000000D03*
X98000000Y-55000000D03*
X98000000Y-56000000D03*
X98000000Y-57000000D03*
X98000000Y-58000000D03*
X98000000Y-59000000D03*
X97000000Y-59000000D03*
X96000000Y-59000000D03*
X95000000Y-59000000D03*
X94000000Y-59000000D03*
X93000000Y-59000000D03*
X92000000Y-59000000D03*
X92000000Y-58000000D03*
X93000000Y-58000000D03*
X94000000Y-58000000D03*
X95000000Y-58000000D03*
X96000000Y-58000000D03*
X97000000Y-58000000D03*
X97000000Y-57000000D03*
X96000000Y-57000000D03*
X95000000Y-57000000D03*
X94000000Y-57000000D03*
X93000000Y-57000000D03*
X92000000Y-57000000D03*
X92000000Y-56000000D03*
X93000000Y-56000000D03*
X94000000Y-56000000D03*
X95000000Y-56000000D03*
X96000000Y-56000000D03*
X97000000Y-56000000D03*
X97000000Y-55000000D03*
X96000000Y-55000000D03*
X95000000Y-55000000D03*
X94000000Y-55000000D03*
X93000000Y-55000000D03*
X92000000Y-55000000D03*
X92000000Y-54000000D03*
X93000000Y-54000000D03*
X94000000Y-54000000D03*
X95000000Y-54000000D03*
X96000000Y-54000000D03*
X97000000Y-54000000D03*
D27*
X94500000Y-56000000D03*
D35*
X61500000Y-56000000D03*
X61500000Y-57270000D03*
X61500000Y-58540000D03*
X61500000Y-59810000D03*
X61500000Y-54730000D03*
X61500000Y-53460000D03*
X61500000Y-52190000D03*
D36*
X59000000Y-56000000D03*
X59000000Y-55000000D03*
X59000000Y-54000000D03*
X59000000Y-53000000D03*
X59000000Y-57000000D03*
X59000000Y-58000000D03*
X59000000Y-59000000D03*
X58000000Y-59000000D03*
X57000000Y-59000000D03*
X56000000Y-59000000D03*
X55000000Y-59000000D03*
X54000000Y-59000000D03*
X53000000Y-59000000D03*
X52000000Y-59000000D03*
X52000000Y-58000000D03*
X52000000Y-57000000D03*
X52000000Y-56000000D03*
X52000000Y-55000000D03*
X52000000Y-54000000D03*
X52000000Y-53000000D03*
X53000000Y-53000000D03*
X54000000Y-53000000D03*
X55000000Y-53000000D03*
X56000000Y-53000000D03*
X57000000Y-53000000D03*
X58000000Y-53000000D03*
X58000000Y-54000000D03*
X57000000Y-54000000D03*
X56000000Y-54000000D03*
X55000000Y-54000000D03*
X54000000Y-54000000D03*
X53000000Y-54000000D03*
X53000000Y-55000000D03*
X54000000Y-55000000D03*
X55000000Y-55000000D03*
X56000000Y-55000000D03*
X57000000Y-55000000D03*
X58000000Y-55000000D03*
X58000000Y-56000000D03*
X57000000Y-56000000D03*
X56000000Y-56000000D03*
X55000000Y-56000000D03*
X54000000Y-56000000D03*
X53000000Y-56000000D03*
X53000000Y-57000000D03*
X54000000Y-57000000D03*
X55000000Y-57000000D03*
X56000000Y-57000000D03*
X57000000Y-57000000D03*
X58000000Y-57000000D03*
X58000000Y-58000000D03*
X57000000Y-58000000D03*
X56000000Y-58000000D03*
X55000000Y-58000000D03*
X54000000Y-58000000D03*
X53000000Y-58000000D03*
D27*
X55500000Y-56000000D03*
D37*
X75000000Y-40500000D03*
X73730000Y-40500000D03*
X72460000Y-40500000D03*
X71190000Y-40500000D03*
X76270000Y-40500000D03*
X77540000Y-40500000D03*
X78810000Y-40500000D03*
D36*
X75000000Y-38000000D03*
X76000000Y-38000000D03*
X77000000Y-38000000D03*
X78000000Y-38000000D03*
X74000000Y-38000000D03*
X73000000Y-38000000D03*
X72000000Y-38000000D03*
X72000000Y-37000000D03*
X72000000Y-36000000D03*
X72000000Y-35000000D03*
X72000000Y-34000000D03*
X72000000Y-33000000D03*
X72000000Y-32000000D03*
X72000000Y-31000000D03*
X73000000Y-31000000D03*
X74000000Y-31000000D03*
X75000000Y-31000000D03*
X76000000Y-31000000D03*
X77000000Y-31000000D03*
X78000000Y-31000000D03*
X78000000Y-32000000D03*
X78000000Y-33000000D03*
X78000000Y-34000000D03*
X78000000Y-35000000D03*
X78000000Y-36000000D03*
X78000000Y-37000000D03*
X77000000Y-37000000D03*
X77000000Y-36000000D03*
X77000000Y-35000000D03*
X77000000Y-34000000D03*
X77000000Y-33000000D03*
X77000000Y-32000000D03*
X76000000Y-32000000D03*
X76000000Y-33000000D03*
X76000000Y-34000000D03*
X76000000Y-35000000D03*
X76000000Y-36000000D03*
X76000000Y-37000000D03*
X75000000Y-37000000D03*
X75000000Y-36000000D03*
X75000000Y-35000000D03*
X75000000Y-34000000D03*
X75000000Y-33000000D03*
X75000000Y-32000000D03*
X74000000Y-32000000D03*
X74000000Y-33000000D03*
X74000000Y-34000000D03*
X74000000Y-35000000D03*
X74000000Y-36000000D03*
X74000000Y-37000000D03*
X73000000Y-37000000D03*
X73000000Y-36000000D03*
X73000000Y-35000000D03*
X73000000Y-34000000D03*
X73000000Y-33000000D03*
X73000000Y-32000000D03*
D27*
X75000000Y-34500000D03*
D12*
X108000000Y-32000000D03*
D13*
X110025000Y-32000000D03*
X109431891Y-33431891D03*
X108000000Y-34025000D03*
X106568109Y-33431891D03*
X105975000Y-32000000D03*
X106568109Y-30568109D03*
X108000000Y-29975000D03*
X109431891Y-30568109D03*
D12*
X108000000Y-48000000D03*
D13*
X110025000Y-48000000D03*
X109431891Y-49431891D03*
X108000000Y-50025000D03*
X106568109Y-49431891D03*
X105975000Y-48000000D03*
X106568109Y-46568109D03*
X108000000Y-45975000D03*
X109431891Y-46568109D03*
M02*
