G04 #@! TF.FileFunction,Paste,Top*
%FSLAX46Y46*%
G04 Gerber Fmt 4.6, Leading zero omitted, Abs format (unit mm)*
G04 Created by KiCad (PCBNEW 4.0.7) date Friday, 27 July 2018 'PMt' 13:07:26*
%MOMM*%
%LPD*%
G01*
G04 APERTURE LIST*
%ADD10C,0.100000*%
%ADD11R,0.600000X0.640000*%
%ADD12R,1.000000X0.800000*%
%ADD13R,0.640000X0.600000*%
%ADD14R,2.000000X1.440000*%
%ADD15R,0.640000X0.640000*%
%ADD16R,0.720000X0.400000*%
%ADD17R,0.400000X0.720000*%
%ADD18O,2.000000X0.720000*%
%ADD19O,0.720000X2.000000*%
%ADD20R,4.800000X4.800000*%
%ADD21R,2.200000X0.800000*%
%ADD22R,2.800000X1.280000*%
%ADD23R,1.280000X2.800000*%
%ADD24R,0.584000X1.096000*%
%ADD25C,4.800000*%
%ADD26R,1.096000X0.584000*%
%ADD27R,1.096000X0.856000*%
G04 APERTURE END LIST*
D10*
D11*
X107000000Y-79750000D03*
X107000000Y-78250000D03*
D12*
X107000000Y-83600000D03*
X107000000Y-81600000D03*
D11*
X107000000Y-69050000D03*
X107000000Y-67550000D03*
D12*
X107000000Y-72800000D03*
X107000000Y-70800000D03*
X38500000Y-62700000D03*
X38500000Y-60700000D03*
D11*
X36500000Y-70100000D03*
X36500000Y-71600000D03*
D12*
X38700000Y-71800000D03*
X38700000Y-69800000D03*
D13*
X50250000Y-122900000D03*
X51750000Y-122900000D03*
X98750000Y-122800000D03*
X100250000Y-122800000D03*
X100450000Y-26900000D03*
X98950000Y-26900000D03*
X51500000Y-27000000D03*
X50000000Y-27000000D03*
D14*
X106000000Y-65000000D03*
X102000000Y-65000000D03*
X108000000Y-55000000D03*
X104000000Y-55000000D03*
D15*
X81300000Y-53500000D03*
X81300000Y-55100000D03*
X81300000Y-58500000D03*
X81300000Y-56900000D03*
X68300000Y-58400000D03*
X68300000Y-56800000D03*
X68300000Y-53200000D03*
X68300000Y-54800000D03*
X72400000Y-46400000D03*
X74000000Y-46400000D03*
X77600000Y-46400000D03*
X76000000Y-46400000D03*
D16*
X34600000Y-76650000D03*
X34600000Y-78150000D03*
X34600000Y-79450000D03*
X34600000Y-80950000D03*
X36500000Y-61000000D03*
X36500000Y-62500000D03*
X34200000Y-70150000D03*
X34200000Y-71650000D03*
X84100000Y-53850000D03*
X84100000Y-55350000D03*
X84100000Y-58150000D03*
X84100000Y-56650000D03*
X65400000Y-58100000D03*
X65400000Y-56600000D03*
X65400000Y-53450000D03*
X65400000Y-54950000D03*
D17*
X72700000Y-43700000D03*
X74200000Y-43700000D03*
X77300000Y-43700000D03*
X75800000Y-43700000D03*
X38250000Y-87000000D03*
X39750000Y-87000000D03*
X110950000Y-56100000D03*
X112450000Y-56100000D03*
X110850000Y-53100000D03*
X112350000Y-53100000D03*
D18*
X60200000Y-70500000D03*
X60200000Y-71770000D03*
X60200000Y-73040000D03*
X60200000Y-74310000D03*
X60200000Y-75580000D03*
X60200000Y-76850000D03*
X60200000Y-78120000D03*
X60200000Y-79390000D03*
X60200000Y-80660000D03*
X60200000Y-81930000D03*
X60200000Y-83200000D03*
X60200000Y-84470000D03*
X60200000Y-85740000D03*
X60200000Y-87010000D03*
D19*
X56915000Y-88500000D03*
X55645000Y-88500000D03*
X54375000Y-88500000D03*
X53105000Y-88500000D03*
X51835000Y-88500000D03*
X50565000Y-88500000D03*
X49295000Y-88500000D03*
X48025000Y-88500000D03*
X46755000Y-88500000D03*
X45485000Y-88500000D03*
D18*
X42200000Y-87010000D03*
X42200000Y-85740000D03*
X42200000Y-84470000D03*
X42200000Y-83200000D03*
X42200000Y-81930000D03*
X42200000Y-80660000D03*
X42200000Y-79390000D03*
X42200000Y-78120000D03*
X42200000Y-76850000D03*
X42200000Y-75580000D03*
X42200000Y-74310000D03*
X42200000Y-73040000D03*
X42200000Y-71770000D03*
X42200000Y-70500000D03*
D20*
X50900000Y-78200000D03*
D21*
X33600000Y-59800000D03*
X27840000Y-59800000D03*
X27840000Y-63800000D03*
X33600000Y-63800000D03*
X33300000Y-85800000D03*
X27540000Y-85800000D03*
X27540000Y-89800000D03*
X33300000Y-89800000D03*
D22*
X91700000Y-65100000D03*
X97100000Y-65100000D03*
D23*
X46500000Y-53400000D03*
X46500000Y-58800000D03*
X84000000Y-32100000D03*
X84000000Y-37500000D03*
D24*
X75000000Y-40500000D03*
X73730000Y-40500000D03*
X72460000Y-40500000D03*
X71190000Y-40500000D03*
X76270000Y-40500000D03*
X77540000Y-40500000D03*
X78810000Y-40500000D03*
D25*
X75000000Y-34500000D03*
D26*
X61500000Y-56000000D03*
X61500000Y-57270000D03*
X61500000Y-58540000D03*
X61500000Y-59810000D03*
X61500000Y-54730000D03*
X61500000Y-53460000D03*
X61500000Y-52190000D03*
D25*
X55500000Y-56000000D03*
D26*
X88500000Y-56000000D03*
X88500000Y-54730000D03*
X88500000Y-53460000D03*
X88500000Y-52190000D03*
X88500000Y-57270000D03*
X88500000Y-58540000D03*
X88500000Y-59810000D03*
D25*
X94500000Y-56000000D03*
D27*
X110000000Y-68575000D03*
X110000000Y-66855000D03*
X110000000Y-65135000D03*
X110000000Y-70295000D03*
X110000000Y-72015000D03*
D25*
X115600000Y-68575000D03*
D27*
X109800000Y-80225000D03*
X109800000Y-78505000D03*
X109800000Y-76785000D03*
X109800000Y-81945000D03*
X109800000Y-83665000D03*
D25*
X115400000Y-80225000D03*
M02*
