M48
INCH,TZ
T1C0.012
T2C0.016
T3C0.020
T4C0.024
T5C0.030
T6C0.039
T7C0.106
%
G90
G05
T1
X20472Y-20866
X20472Y-21260
X20472Y-21654
X20472Y-22047
X20472Y-22441
X20472Y-22835
X20472Y-23228
X20866Y-20866
X20866Y-21260
X20866Y-21654
X20866Y-22047
X20866Y-22441
X20866Y-22835
X20866Y-23228
X21260Y-20866
X21260Y-21260
X21260Y-21654
X21260Y-22047
X21260Y-22441
X21260Y-22835
X21260Y-23228
X21654Y-20866
X21654Y-21260
X21654Y-21654
X21654Y-22047
X21654Y-22441
X21654Y-22835
X21654Y-23228
X22047Y-20866
X22047Y-21260
X22047Y-21654
X22047Y-22047
X22047Y-22441
X22047Y-22835
X22047Y-23228
X22441Y-20866
X22441Y-21260
X22441Y-21654
X22441Y-22047
X22441Y-22441
X22441Y-22835
X22441Y-23228
X22835Y-20866
X22835Y-21260
X22835Y-21654
X22835Y-22047
X22835Y-22441
X22835Y-22835
X22835Y-23228
X23228Y-20866
X23228Y-21260
X23228Y-21654
X23228Y-22047
X23228Y-22441
X23228Y-22835
X23228Y-23228
X28346Y-12205
X28346Y-12598
X28346Y-12992
X28346Y-13386
X28346Y-13780
X28346Y-14173
X28346Y-14567
X28346Y-14961
X28740Y-12205
X28740Y-12598
X28740Y-12992
X28740Y-13386
X28740Y-13780
X28740Y-14173
X28740Y-14567
X28740Y-14961
X29134Y-12205
X29134Y-12598
X29134Y-12992
X29134Y-13386
X29134Y-13780
X29134Y-14173
X29134Y-14567
X29134Y-14961
X29528Y-12205
X29528Y-12598
X29528Y-12992
X29528Y-13386
X29528Y-13780
X29528Y-14173
X29528Y-14567
X29528Y-14961
X29921Y-12205
X29921Y-12598
X29921Y-12992
X29921Y-13386
X29921Y-13780
X29921Y-14173
X29921Y-14567
X29921Y-14961
X30315Y-12205
X30315Y-12598
X30315Y-12992
X30315Y-13386
X30315Y-13780
X30315Y-14173
X30315Y-14567
X30315Y-14961
X30709Y-12205
X30709Y-12598
X30709Y-12992
X30709Y-13386
X30709Y-13780
X30709Y-14173
X30709Y-14567
X30709Y-14961
X35827Y-20866
X35827Y-21260
X35827Y-21654
X35827Y-22047
X35827Y-22441
X35827Y-22835
X35827Y-23228
X36220Y-20866
X36220Y-21260
X36220Y-21654
X36220Y-22047
X36220Y-22441
X36220Y-22835
X36220Y-23228
X36614Y-20866
X36614Y-21260
X36614Y-21654
X36614Y-22047
X36614Y-22441
X36614Y-22835
X36614Y-23228
X37008Y-20866
X37008Y-21260
X37008Y-21654
X37008Y-22047
X37008Y-22441
X37008Y-22835
X37008Y-23228
X37402Y-20866
X37402Y-21260
X37402Y-21654
X37402Y-22047
X37402Y-22441
X37402Y-22835
X37402Y-23228
X37795Y-20866
X37795Y-21260
X37795Y-21654
X37795Y-22047
X37795Y-22441
X37795Y-22835
X37795Y-23228
X38189Y-20866
X38189Y-21260
X38189Y-21654
X38189Y-22047
X38189Y-22441
X38189Y-22835
X38189Y-23228
X38583Y-20866
X38583Y-21260
X38583Y-21654
X38583Y-22047
X38583Y-22441
X38583Y-22835
X38583Y-23228
X44104Y-29931
X44104Y-30404
X44104Y-30876
X44104Y-31348
X44104Y-31821
X44104Y-32293
X44104Y-32766
X44104Y-33238
X44183Y-25344
X44183Y-25817
X44183Y-26289
X44183Y-26762
X44183Y-27234
X44183Y-27707
X44183Y-28179
X44183Y-28652
X44577Y-29931
X44577Y-30404
X44577Y-30876
X44577Y-31348
X44577Y-31821
X44577Y-32293
X44577Y-32766
X44577Y-33238
X44656Y-25344
X44656Y-25817
X44656Y-26289
X44656Y-26762
X44656Y-27234
X44656Y-27707
X44656Y-28179
X44656Y-28652
X45049Y-29931
X45049Y-30404
X45049Y-30876
X45049Y-31348
X45049Y-31821
X45049Y-32293
X45049Y-32766
X45049Y-33238
X45128Y-25344
X45128Y-25817
X45128Y-26289
X45128Y-26762
X45128Y-27234
X45128Y-27707
X45128Y-28179
X45128Y-28652
X45522Y-29931
X45522Y-30404
X45522Y-30876
X45522Y-31348
X45522Y-31821
X45522Y-32293
X45522Y-32766
X45522Y-33238
X45600Y-25344
X45600Y-25817
X45600Y-26289
X45600Y-26762
X45600Y-27234
X45600Y-27707
X45600Y-28179
X45600Y-28652
X45994Y-29931
X45994Y-30404
X45994Y-30876
X45994Y-31348
X45994Y-31821
X45994Y-32293
X45994Y-32766
X45994Y-33238
X46073Y-25344
X46073Y-25817
X46073Y-26289
X46073Y-26762
X46073Y-27234
X46073Y-27707
X46073Y-28179
X46073Y-28652
X46467Y-29931
X46467Y-30404
X46467Y-30876
X46467Y-31348
X46467Y-31821
X46467Y-32293
X46467Y-32766
X46467Y-33238
X46545Y-25344
X46545Y-25817
X46545Y-26289
X46545Y-26762
X46545Y-27234
X46545Y-27707
X46545Y-28179
X46545Y-28652
X46939Y-29931
X46939Y-30404
X46939Y-30876
X46939Y-31348
X46939Y-31821
X46939Y-32293
X46939Y-32766
X46939Y-33238
X47018Y-25344
X47018Y-25817
X47018Y-26289
X47018Y-26762
X47018Y-27234
X47018Y-27707
X47018Y-28179
X47018Y-28652
T2
X11811Y-34685
X12047Y-23543
X12047Y-26382
X13917Y-27992
X14331Y-23661
X14567Y-34252
X16181Y-27165
X17323Y-27756
X17441Y-28740
X17441Y-29331
X17480Y-32835
X17520Y-33740
X18091Y-29534
X18110Y-35787
X18124Y-48360
X18255Y-29803
X18465Y-28504
X18465Y-31772
X19016Y-33268
X19685Y-11220
X20118Y-47717
X22480Y-29291
X22618Y-33481
X22627Y-33851
X22874Y-34843
X22884Y-29724
X23307Y-34803
X24213Y-23858
X24372Y-28052
X24583Y-28287
X24587Y-20414
X24598Y-33470
X24685Y-20984
X24754Y-30629
X24803Y-23031
X24921Y-32638
X25000Y-31063
X25079Y-19331
X25128Y-26248
X25561Y-25168
X25584Y-25482
X25671Y-25785
X25671Y-26220
X27047Y-19606
X27284Y-27833
X27321Y-24152
X27598Y-15945
X27625Y-27826
X27677Y-34173
X27717Y-32638
X27721Y-24099
X28346Y-15453
X30748Y-16496
X31565Y-15945
X34213Y-23346
X34843Y-20157
X34843Y-24016
X37402Y-25984
X37559Y-11299
X37855Y-48562
X39124Y-40264
X39207Y-40865
X39685Y-46732
X40630Y-10906
X42598Y-31398
X43307Y-25984
X43307Y-30551
T3
X15738Y-12598
X15738Y-18898
X15738Y-40157
X15738Y-46447
X15972Y-12035
X15972Y-13162
X15972Y-18334
X15972Y-19461
X15972Y-39594
X15972Y-40721
X15972Y-45883
X15972Y-47011
X16535Y-11801
X16535Y-13396
X16535Y-18100
X16535Y-19695
X16535Y-39360
X16535Y-40955
X16535Y-45650
X16535Y-47244
X17099Y-12035
X17099Y-13162
X17099Y-18334
X17099Y-19461
X17099Y-39594
X17099Y-40721
X17099Y-45883
X17099Y-47011
X17333Y-12598
X17333Y-18898
X17333Y-40157
X17333Y-46447
X22421Y-18898
X22421Y-46447
X22431Y-12608
X22431Y-40157
X22655Y-18334
X22655Y-19461
X22655Y-45883
X22655Y-47011
X22665Y-12045
X22665Y-13172
X22665Y-39594
X22665Y-40721
X23219Y-18100
X23219Y-19695
X23219Y-45650
X23219Y-47244
X23228Y-11811
X23228Y-13406
X23228Y-39360
X23228Y-40955
X23782Y-18334
X23782Y-19461
X23782Y-45883
X23782Y-47011
X23792Y-12045
X23792Y-13172
X23792Y-39594
X23792Y-40721
X24016Y-18898
X24016Y-46447
X24026Y-12608
X24026Y-40157
X28730Y-46447
X28964Y-45883
X28964Y-47011
X29528Y-45650
X29528Y-47244
X30091Y-45883
X30091Y-47011
X30325Y-46447
X35020Y-18898
X35030Y-12598
X35030Y-40157
X35030Y-46447
X35253Y-18334
X35253Y-19461
X35263Y-12035
X35263Y-13162
X35263Y-39594
X35263Y-40721
X35263Y-45883
X35263Y-47011
X35817Y-18100
X35817Y-19695
X35827Y-11801
X35827Y-13396
X35827Y-39360
X35827Y-40955
X35827Y-45650
X35827Y-47244
X36381Y-18334
X36381Y-19461
X36391Y-12035
X36391Y-13162
X36391Y-39594
X36391Y-40721
X36391Y-45883
X36391Y-47011
X36614Y-18898
X36624Y-12598
X36624Y-40157
X36624Y-46447
X41722Y-12598
X41722Y-18898
X41722Y-40167
X41722Y-46467
X41956Y-12035
X41956Y-13162
X41956Y-18334
X41956Y-19461
X41956Y-39604
X41956Y-40731
X41956Y-45903
X41956Y-47030
X42520Y-11801
X42520Y-13396
X42520Y-18100
X42520Y-19695
X42520Y-39370
X42520Y-40965
X42520Y-45669
X42520Y-47264
X43083Y-12035
X43083Y-13162
X43083Y-18334
X43083Y-19461
X43083Y-39604
X43083Y-40731
X43083Y-45903
X43083Y-47030
X43317Y-12598
X43317Y-18898
X43317Y-40167
X43317Y-46467
T4
X25551Y-27559
X25551Y-28346
X25551Y-29134
X25551Y-29921
X25551Y-30709
X25551Y-31496
X25551Y-32283
X25551Y-33071
X25551Y-33858
X25551Y-34646
X34213Y-27559
X34213Y-28346
X34213Y-29134
X34213Y-29921
X34213Y-30709
X34213Y-31496
X34213Y-32283
X34213Y-33071
X34213Y-33858
X34213Y-34646
T5
X39213Y-28189
X40000Y-28189
T6
X12087Y-26992
X12087Y-27992
X12087Y-28992
X12087Y-29992
X12087Y-30992
X12087Y-31992
X14724Y-29756
X14724Y-30756
X14724Y-31756
X14724Y-32756
X20079Y-36402
X20079Y-37402
X21079Y-36402
X21079Y-37402
X22079Y-36402
X22079Y-37402
X23079Y-36402
X23079Y-37402
X24079Y-36402
X24079Y-37402
X25079Y-36402
X25079Y-37402
X25984Y-13173
X25984Y-14173
X25984Y-17504
X25984Y-18504
X25984Y-40732
X25984Y-41732
X25984Y-44669
X25984Y-45669
X26079Y-36402
X26079Y-37402
X27079Y-36402
X27079Y-37402
X28079Y-36402
X28079Y-37402
X29079Y-36402
X29079Y-37402
X30079Y-36402
X30079Y-37402
X31079Y-36402
X31079Y-37402
X32079Y-36402
X32079Y-37402
X33071Y-17504
X33071Y-18504
X33071Y-40732
X33071Y-41732
X33079Y-36402
X33079Y-37402
X34079Y-36402
X34079Y-37402
X35079Y-36402
X35079Y-37402
X36079Y-36402
X36079Y-37402
X36732Y-31969
X36732Y-32969
X36732Y-33969
X37079Y-36402
X37079Y-37402
X38079Y-36402
X38079Y-37402
X39079Y-36402
X39079Y-37402
X40520Y-23622
X41520Y-23622
X42165Y-36323
X42165Y-37323
X42520Y-23622
X45480Y-23268
X46480Y-23268
X47480Y-23268
X48480Y-23268
T7
X16535Y-12598
X16535Y-18898
X16535Y-40157
X16535Y-46447
X23219Y-18898
X23219Y-46447
X23228Y-12608
X23228Y-40157
X29528Y-46447
X35817Y-18898
X35827Y-12598
X35827Y-40157
X35827Y-46447
X42520Y-12598
X42520Y-18898
X42520Y-40167
X42520Y-46467
T0
M30
