G04 #@! TF.FileFunction,Legend,Bot*
%FSLAX46Y46*%
G04 Gerber Fmt 4.6, Leading zero omitted, Abs format (unit mm)*
G04 Created by KiCad (PCBNEW 4.0.7) date Thursday, 19 July 2018 'PMt' 15:05:03*
%MOMM*%
%LPD*%
G01*
G04 APERTURE LIST*
%ADD10C,0.100000*%
%ADD11C,0.300000*%
%ADD12C,0.600000*%
%ADD13C,0.900000*%
%ADD14C,0.120000*%
%ADD15C,0.150000*%
G04 APERTURE END LIST*
D10*
D11*
X49050000Y-79378571D02*
X49050000Y-77878571D01*
X48478572Y-77878571D01*
X48335714Y-77950000D01*
X48264286Y-78021429D01*
X48192857Y-78164286D01*
X48192857Y-78378571D01*
X48264286Y-78521429D01*
X48335714Y-78592857D01*
X48478572Y-78664286D01*
X49050000Y-78664286D01*
X47550000Y-79378571D02*
X47550000Y-77878571D01*
X50085714Y-85892857D02*
X49585714Y-85892857D01*
X49371428Y-86678571D02*
X50085714Y-86678571D01*
X50085714Y-85178571D01*
X49371428Y-85178571D01*
X48800000Y-86607143D02*
X48585714Y-86678571D01*
X48228571Y-86678571D01*
X48085714Y-86607143D01*
X48014285Y-86535714D01*
X47942857Y-86392857D01*
X47942857Y-86250000D01*
X48014285Y-86107143D01*
X48085714Y-86035714D01*
X48228571Y-85964286D01*
X48514285Y-85892857D01*
X48657143Y-85821429D01*
X48728571Y-85750000D01*
X48800000Y-85607143D01*
X48800000Y-85464286D01*
X48728571Y-85321429D01*
X48657143Y-85250000D01*
X48514285Y-85178571D01*
X48157143Y-85178571D01*
X47942857Y-85250000D01*
X47300000Y-86678571D02*
X47300000Y-85178571D01*
X46728572Y-85178571D01*
X46585714Y-85250000D01*
X46514286Y-85321429D01*
X46442857Y-85464286D01*
X46442857Y-85678571D01*
X46514286Y-85821429D01*
X46585714Y-85892857D01*
X46728572Y-85964286D01*
X47300000Y-85964286D01*
X77385714Y-111178571D02*
X76885714Y-112678571D01*
X76385714Y-111178571D01*
X75600000Y-111178571D02*
X75457143Y-111178571D01*
X75314286Y-111250000D01*
X75242857Y-111321429D01*
X75171428Y-111464286D01*
X75100000Y-111750000D01*
X75100000Y-112107143D01*
X75171428Y-112392857D01*
X75242857Y-112535714D01*
X75314286Y-112607143D01*
X75457143Y-112678571D01*
X75600000Y-112678571D01*
X75742857Y-112607143D01*
X75814286Y-112535714D01*
X75885714Y-112392857D01*
X75957143Y-112107143D01*
X75957143Y-111750000D01*
X75885714Y-111464286D01*
X75814286Y-111321429D01*
X75742857Y-111250000D01*
X75600000Y-111178571D01*
X74457143Y-112535714D02*
X74385715Y-112607143D01*
X74457143Y-112678571D01*
X74528572Y-112607143D01*
X74457143Y-112535714D01*
X74457143Y-112678571D01*
X72957143Y-112678571D02*
X73814286Y-112678571D01*
X73385714Y-112678571D02*
X73385714Y-111178571D01*
X73528571Y-111392857D01*
X73671429Y-111535714D01*
X73814286Y-111607143D01*
X80285713Y-109578571D02*
X79928570Y-110578571D01*
X79571428Y-109578571D01*
X78071428Y-109864286D02*
X78142856Y-109792857D01*
X78285713Y-109721429D01*
X78428571Y-109721429D01*
X78571428Y-109792857D01*
X78642856Y-109864286D01*
X78714285Y-110007143D01*
X78714285Y-110150000D01*
X78642856Y-110292857D01*
X78571428Y-110364286D01*
X78428571Y-110435714D01*
X78285713Y-110435714D01*
X78142856Y-110364286D01*
X78071428Y-110292857D01*
X78071428Y-109721429D02*
X78071428Y-110292857D01*
X77999999Y-110364286D01*
X77928571Y-110364286D01*
X77785713Y-110292857D01*
X77714285Y-110150000D01*
X77714285Y-109792857D01*
X77857142Y-109578571D01*
X78071428Y-109435714D01*
X78357142Y-109364286D01*
X78642856Y-109435714D01*
X78857142Y-109578571D01*
X78999999Y-109792857D01*
X79071428Y-110078571D01*
X78999999Y-110364286D01*
X78857142Y-110578571D01*
X78642856Y-110721429D01*
X78357142Y-110792857D01*
X78071428Y-110721429D01*
X77857142Y-110578571D01*
X77071428Y-109578571D02*
X77071428Y-110578571D01*
X77071428Y-109721429D02*
X77000000Y-109650000D01*
X76857142Y-109578571D01*
X76642857Y-109578571D01*
X76500000Y-109650000D01*
X76428571Y-109792857D01*
X76428571Y-110578571D01*
X75071428Y-110507143D02*
X75214285Y-110578571D01*
X75499999Y-110578571D01*
X75642857Y-110507143D01*
X75714285Y-110435714D01*
X75785714Y-110292857D01*
X75785714Y-109864286D01*
X75714285Y-109721429D01*
X75642857Y-109650000D01*
X75499999Y-109578571D01*
X75214285Y-109578571D01*
X75071428Y-109650000D01*
X73857143Y-110507143D02*
X74000000Y-110578571D01*
X74285714Y-110578571D01*
X74428571Y-110507143D01*
X74500000Y-110364286D01*
X74500000Y-109792857D01*
X74428571Y-109650000D01*
X74285714Y-109578571D01*
X74000000Y-109578571D01*
X73857143Y-109650000D01*
X73785714Y-109792857D01*
X73785714Y-109935714D01*
X74500000Y-110078571D01*
X73142857Y-110435714D02*
X73071429Y-110507143D01*
X73142857Y-110578571D01*
X73214286Y-110507143D01*
X73142857Y-110435714D01*
X73142857Y-110578571D01*
X72428571Y-110578571D02*
X72428571Y-109578571D01*
X72428571Y-109721429D02*
X72357143Y-109650000D01*
X72214285Y-109578571D01*
X72000000Y-109578571D01*
X71857143Y-109650000D01*
X71785714Y-109792857D01*
X71785714Y-110578571D01*
X71785714Y-109792857D02*
X71714285Y-109650000D01*
X71571428Y-109578571D01*
X71357143Y-109578571D01*
X71214285Y-109650000D01*
X71142857Y-109792857D01*
X71142857Y-110578571D01*
X69857143Y-110507143D02*
X70000000Y-110578571D01*
X70285714Y-110578571D01*
X70428571Y-110507143D01*
X70500000Y-110364286D01*
X70500000Y-109792857D01*
X70428571Y-109650000D01*
X70285714Y-109578571D01*
X70000000Y-109578571D01*
X69857143Y-109650000D01*
X69785714Y-109792857D01*
X69785714Y-109935714D01*
X70500000Y-110078571D01*
D12*
X77328572Y-76776190D02*
X74471429Y-76776190D01*
X74471429Y-78680952D01*
X77328572Y-78680952D01*
X77328572Y-76776190D01*
X77328572Y-80585714D02*
X74471429Y-80585714D01*
X74471429Y-82014286D01*
X73519048Y-82014286D01*
X75900000Y-84395238D01*
X78280953Y-82014286D01*
X77328572Y-82014286D01*
X77328572Y-80585714D01*
D13*
X66335714Y-68707143D02*
X69978571Y-68707143D01*
X70407143Y-68921428D01*
X70621429Y-69135714D01*
X70835714Y-69564285D01*
X70835714Y-70421428D01*
X70621429Y-70850000D01*
X70407143Y-71064285D01*
X69978571Y-71278571D01*
X66335714Y-71278571D01*
X67835714Y-73421429D02*
X72335714Y-73421429D01*
X68050000Y-73421429D02*
X67835714Y-73850000D01*
X67835714Y-74707143D01*
X68050000Y-75135714D01*
X68264286Y-75350000D01*
X68692857Y-75564286D01*
X69978571Y-75564286D01*
X70407143Y-75350000D01*
X70621429Y-75135714D01*
X70835714Y-74707143D01*
X70835714Y-73850000D01*
X70621429Y-73421429D01*
X70407143Y-77492858D02*
X70621429Y-77707143D01*
X70835714Y-77492858D01*
X70621429Y-77278572D01*
X70407143Y-77492858D01*
X70835714Y-77492858D01*
X69121429Y-77492858D02*
X66550000Y-77278572D01*
X66335714Y-77492858D01*
X66550000Y-77707143D01*
X69121429Y-77492858D01*
X66335714Y-77492858D01*
X80978571Y-61535714D02*
X79907142Y-66035714D01*
X79049999Y-62821429D01*
X78192857Y-66035714D01*
X77121428Y-61535714D01*
X73478571Y-66035714D02*
X73478571Y-63678571D01*
X73692857Y-63250000D01*
X74121428Y-63035714D01*
X74978571Y-63035714D01*
X75407142Y-63250000D01*
X73478571Y-65821429D02*
X73907142Y-66035714D01*
X74978571Y-66035714D01*
X75407142Y-65821429D01*
X75621428Y-65392857D01*
X75621428Y-64964286D01*
X75407142Y-64535714D01*
X74978571Y-64321429D01*
X73907142Y-64321429D01*
X73478571Y-64107143D01*
X71764285Y-63035714D02*
X70692856Y-66035714D01*
X69621428Y-63035714D02*
X70692856Y-66035714D01*
X71121428Y-67107143D01*
X71335713Y-67321429D01*
X71764285Y-67535714D01*
X85464286Y-78714286D02*
X85464286Y-76142857D01*
X80964286Y-77428571D02*
X85464286Y-77428571D01*
X80964286Y-74642857D02*
X85464286Y-74642857D01*
X80964286Y-72714286D02*
X83321429Y-72714286D01*
X83750000Y-72928572D01*
X83964286Y-73357143D01*
X83964286Y-74000000D01*
X83750000Y-74428572D01*
X83535714Y-74642857D01*
X80964286Y-70571428D02*
X83964286Y-70571428D01*
X85464286Y-70571428D02*
X85250000Y-70785714D01*
X85035714Y-70571428D01*
X85250000Y-70357143D01*
X85464286Y-70571428D01*
X85035714Y-70571428D01*
X81178571Y-68642857D02*
X80964286Y-68214286D01*
X80964286Y-67357143D01*
X81178571Y-66928571D01*
X81607143Y-66714286D01*
X81821429Y-66714286D01*
X82250000Y-66928571D01*
X82464286Y-67357143D01*
X82464286Y-68000000D01*
X82678571Y-68428571D01*
X83107143Y-68642857D01*
X83321429Y-68642857D01*
X83750000Y-68428571D01*
X83964286Y-68000000D01*
X83964286Y-67357143D01*
X83750000Y-66928571D01*
D14*
X49910000Y-84040000D02*
X49910000Y-80220000D01*
X49910000Y-80220000D02*
X51690000Y-80220000D01*
X51690000Y-80220000D02*
X51690000Y-84040000D01*
X49910000Y-84040000D02*
X51690000Y-84040000D01*
X44810000Y-84040000D02*
X44810000Y-80220000D01*
X44810000Y-80220000D02*
X46590000Y-80220000D01*
X46590000Y-80220000D02*
X46590000Y-84040000D01*
X44810000Y-84040000D02*
X46590000Y-84040000D01*
X54500000Y-118700000D02*
X47500000Y-118700000D01*
X54500000Y-123900000D02*
X47500000Y-123900000D01*
X47500000Y-123900000D02*
X47500000Y-122900000D01*
X103000000Y-118600000D02*
X96000000Y-118600000D01*
X103000000Y-123800000D02*
X96000000Y-123800000D01*
X96000000Y-123800000D02*
X96000000Y-122800000D01*
X96200000Y-31200000D02*
X103200000Y-31200000D01*
X96200000Y-26000000D02*
X103200000Y-26000000D01*
X103200000Y-26000000D02*
X103200000Y-27000000D01*
X47200000Y-31200000D02*
X54200000Y-31200000D01*
X47200000Y-26000000D02*
X54200000Y-26000000D01*
X54200000Y-26000000D02*
X54200000Y-27000000D01*
D15*
X48552381Y-81796667D02*
X49266667Y-81796667D01*
X49409524Y-81749047D01*
X49504762Y-81653809D01*
X49552381Y-81510952D01*
X49552381Y-81415714D01*
X48647619Y-82225238D02*
X48600000Y-82272857D01*
X48552381Y-82368095D01*
X48552381Y-82606191D01*
X48600000Y-82701429D01*
X48647619Y-82749048D01*
X48742857Y-82796667D01*
X48838095Y-82796667D01*
X48980952Y-82749048D01*
X49552381Y-82177619D01*
X49552381Y-82796667D01*
X43452381Y-81796667D02*
X44166667Y-81796667D01*
X44309524Y-81749047D01*
X44404762Y-81653809D01*
X44452381Y-81510952D01*
X44452381Y-81415714D01*
X43452381Y-82749048D02*
X43452381Y-82272857D01*
X43928571Y-82225238D01*
X43880952Y-82272857D01*
X43833333Y-82368095D01*
X43833333Y-82606191D01*
X43880952Y-82701429D01*
X43928571Y-82749048D01*
X44023810Y-82796667D01*
X44261905Y-82796667D01*
X44357143Y-82749048D01*
X44404762Y-82701429D01*
X44452381Y-82606191D01*
X44452381Y-82368095D01*
X44404762Y-82272857D01*
X44357143Y-82225238D01*
X51761905Y-117252381D02*
X51761905Y-118061905D01*
X51714286Y-118157143D01*
X51666667Y-118204762D01*
X51571429Y-118252381D01*
X51380952Y-118252381D01*
X51285714Y-118204762D01*
X51238095Y-118157143D01*
X51190476Y-118061905D01*
X51190476Y-117252381D01*
X50571429Y-117680952D02*
X50666667Y-117633333D01*
X50714286Y-117585714D01*
X50761905Y-117490476D01*
X50761905Y-117442857D01*
X50714286Y-117347619D01*
X50666667Y-117300000D01*
X50571429Y-117252381D01*
X50380952Y-117252381D01*
X50285714Y-117300000D01*
X50238095Y-117347619D01*
X50190476Y-117442857D01*
X50190476Y-117490476D01*
X50238095Y-117585714D01*
X50285714Y-117633333D01*
X50380952Y-117680952D01*
X50571429Y-117680952D01*
X50666667Y-117728571D01*
X50714286Y-117776190D01*
X50761905Y-117871429D01*
X50761905Y-118061905D01*
X50714286Y-118157143D01*
X50666667Y-118204762D01*
X50571429Y-118252381D01*
X50380952Y-118252381D01*
X50285714Y-118204762D01*
X50238095Y-118157143D01*
X50190476Y-118061905D01*
X50190476Y-117871429D01*
X50238095Y-117776190D01*
X50285714Y-117728571D01*
X50380952Y-117680952D01*
X100261905Y-117152381D02*
X100261905Y-117961905D01*
X100214286Y-118057143D01*
X100166667Y-118104762D01*
X100071429Y-118152381D01*
X99880952Y-118152381D01*
X99785714Y-118104762D01*
X99738095Y-118057143D01*
X99690476Y-117961905D01*
X99690476Y-117152381D01*
X99166667Y-118152381D02*
X98976191Y-118152381D01*
X98880952Y-118104762D01*
X98833333Y-118057143D01*
X98738095Y-117914286D01*
X98690476Y-117723810D01*
X98690476Y-117342857D01*
X98738095Y-117247619D01*
X98785714Y-117200000D01*
X98880952Y-117152381D01*
X99071429Y-117152381D01*
X99166667Y-117200000D01*
X99214286Y-117247619D01*
X99261905Y-117342857D01*
X99261905Y-117580952D01*
X99214286Y-117676190D01*
X99166667Y-117723810D01*
X99071429Y-117771429D01*
X98880952Y-117771429D01*
X98785714Y-117723810D01*
X98738095Y-117676190D01*
X98690476Y-117580952D01*
X100938095Y-31552381D02*
X100938095Y-32361905D01*
X100890476Y-32457143D01*
X100842857Y-32504762D01*
X100747619Y-32552381D01*
X100557142Y-32552381D01*
X100461904Y-32504762D01*
X100414285Y-32457143D01*
X100366666Y-32361905D01*
X100366666Y-31552381D01*
X99366666Y-32552381D02*
X99938095Y-32552381D01*
X99652381Y-32552381D02*
X99652381Y-31552381D01*
X99747619Y-31695238D01*
X99842857Y-31790476D01*
X99938095Y-31838095D01*
X98747619Y-31552381D02*
X98652380Y-31552381D01*
X98557142Y-31600000D01*
X98509523Y-31647619D01*
X98461904Y-31742857D01*
X98414285Y-31933333D01*
X98414285Y-32171429D01*
X98461904Y-32361905D01*
X98509523Y-32457143D01*
X98557142Y-32504762D01*
X98652380Y-32552381D01*
X98747619Y-32552381D01*
X98842857Y-32504762D01*
X98890476Y-32457143D01*
X98938095Y-32361905D01*
X98985714Y-32171429D01*
X98985714Y-31933333D01*
X98938095Y-31742857D01*
X98890476Y-31647619D01*
X98842857Y-31600000D01*
X98747619Y-31552381D01*
X51938095Y-31552381D02*
X51938095Y-32361905D01*
X51890476Y-32457143D01*
X51842857Y-32504762D01*
X51747619Y-32552381D01*
X51557142Y-32552381D01*
X51461904Y-32504762D01*
X51414285Y-32457143D01*
X51366666Y-32361905D01*
X51366666Y-31552381D01*
X50366666Y-32552381D02*
X50938095Y-32552381D01*
X50652381Y-32552381D02*
X50652381Y-31552381D01*
X50747619Y-31695238D01*
X50842857Y-31790476D01*
X50938095Y-31838095D01*
X49414285Y-32552381D02*
X49985714Y-32552381D01*
X49700000Y-32552381D02*
X49700000Y-31552381D01*
X49795238Y-31695238D01*
X49890476Y-31790476D01*
X49985714Y-31838095D01*
M02*
