G04 #@! TF.FileFunction,Copper,L2,Bot,Signal*
%FSLAX46Y46*%
G04 Gerber Fmt 4.6, Leading zero omitted, Abs format (unit mm)*
G04 Created by KiCad (PCBNEW 4.0.7) date Thursday, 19 July 2018 'PMt' 15:05:03*
%MOMM*%
%LPD*%
G01*
G04 APERTURE LIST*
%ADD10C,0.100000*%
%ADD11C,5.400000*%
%ADD12C,0.800000*%
%ADD13R,1.200000X1.700000*%
%ADD14O,1.200000X1.700000*%
%ADD15R,1.270000X0.970000*%
%ADD16R,1.700000X1.700000*%
%ADD17O,1.700000X1.700000*%
%ADD18R,1.200000X1.200000*%
%ADD19R,1.600000X1.000000*%
%ADD20C,1.200000*%
%ADD21R,1.100000X1.100000*%
%ADD22C,0.600000*%
%ADD23C,1.000000*%
%ADD24C,0.250000*%
%ADD25C,0.200000*%
%ADD26C,0.254000*%
G04 APERTURE END LIST*
D10*
D11*
X108000000Y-118025000D03*
D12*
X110025000Y-118025000D03*
X109431891Y-119456891D03*
X108000000Y-120050000D03*
X106568109Y-119456891D03*
X105975000Y-118025000D03*
X106568109Y-116593109D03*
X108000000Y-116000000D03*
X109431891Y-116593109D03*
D11*
X108000000Y-102025000D03*
D12*
X110025000Y-102025000D03*
X109431891Y-103456891D03*
X108000000Y-104050000D03*
X106568109Y-103456891D03*
X105975000Y-102025000D03*
X106568109Y-100593109D03*
X108000000Y-100000000D03*
X109431891Y-100593109D03*
D11*
X91000000Y-102000000D03*
D12*
X93025000Y-102000000D03*
X92431891Y-103431891D03*
X91000000Y-104025000D03*
X89568109Y-103431891D03*
X88975000Y-102000000D03*
X89568109Y-100568109D03*
X91000000Y-99975000D03*
X92431891Y-100568109D03*
D11*
X91000000Y-117975000D03*
D12*
X93025000Y-117975000D03*
X92431891Y-119406891D03*
X91000000Y-120000000D03*
X89568109Y-119406891D03*
X88975000Y-117975000D03*
X89568109Y-116543109D03*
X91000000Y-115950000D03*
X92431891Y-116543109D03*
D11*
X75000000Y-117975000D03*
D12*
X77025000Y-117975000D03*
X76431891Y-119406891D03*
X75000000Y-120000000D03*
X73568109Y-119406891D03*
X72975000Y-117975000D03*
X73568109Y-116543109D03*
X75000000Y-115950000D03*
X76431891Y-116543109D03*
D11*
X58975000Y-117975000D03*
D12*
X61000000Y-117975000D03*
X60406891Y-119406891D03*
X58975000Y-120000000D03*
X57543109Y-119406891D03*
X56950000Y-117975000D03*
X57543109Y-116543109D03*
X58975000Y-115950000D03*
X60406891Y-116543109D03*
D11*
X42000000Y-117975000D03*
D12*
X44025000Y-117975000D03*
X43431891Y-119406891D03*
X42000000Y-120000000D03*
X40568109Y-119406891D03*
X39975000Y-117975000D03*
X40568109Y-116543109D03*
X42000000Y-115950000D03*
X43431891Y-116543109D03*
D11*
X59000000Y-102000000D03*
D12*
X61025000Y-102000000D03*
X60431891Y-103431891D03*
X59000000Y-104025000D03*
X57568109Y-103431891D03*
X56975000Y-102000000D03*
X57568109Y-100568109D03*
X59000000Y-99975000D03*
X60431891Y-100568109D03*
D11*
X42000000Y-102000000D03*
D12*
X44025000Y-102000000D03*
X43431891Y-103431891D03*
X42000000Y-104025000D03*
X40568109Y-103431891D03*
X39975000Y-102000000D03*
X40568109Y-100568109D03*
X42000000Y-99975000D03*
X43431891Y-100568109D03*
D11*
X58975000Y-48000000D03*
D12*
X61000000Y-48000000D03*
X60406891Y-49431891D03*
X58975000Y-50025000D03*
X57543109Y-49431891D03*
X56950000Y-48000000D03*
X57543109Y-46568109D03*
X58975000Y-45975000D03*
X60406891Y-46568109D03*
D11*
X42000000Y-48000000D03*
D12*
X44025000Y-48000000D03*
X43431891Y-49431891D03*
X42000000Y-50025000D03*
X40568109Y-49431891D03*
X39975000Y-48000000D03*
X40568109Y-46568109D03*
X42000000Y-45975000D03*
X43431891Y-46568109D03*
D11*
X42000000Y-32000000D03*
D12*
X44025000Y-32000000D03*
X43431891Y-33431891D03*
X42000000Y-34025000D03*
X40568109Y-33431891D03*
X39975000Y-32000000D03*
X40568109Y-30568109D03*
X42000000Y-29975000D03*
X43431891Y-30568109D03*
D11*
X59000000Y-32025000D03*
D12*
X61025000Y-32025000D03*
X60431891Y-33456891D03*
X59000000Y-34050000D03*
X57568109Y-33456891D03*
X56975000Y-32025000D03*
X57568109Y-30593109D03*
X59000000Y-30000000D03*
X60431891Y-30593109D03*
D11*
X90975000Y-48000000D03*
D12*
X93000000Y-48000000D03*
X92406891Y-49431891D03*
X90975000Y-50025000D03*
X89543109Y-49431891D03*
X88950000Y-48000000D03*
X89543109Y-46568109D03*
X90975000Y-45975000D03*
X92406891Y-46568109D03*
D11*
X91000000Y-32000000D03*
D12*
X93025000Y-32000000D03*
X92431891Y-33431891D03*
X91000000Y-34025000D03*
X89568109Y-33431891D03*
X88975000Y-32000000D03*
X89568109Y-30568109D03*
X91000000Y-29975000D03*
X92431891Y-30568109D03*
D13*
X99600000Y-71600000D03*
D14*
X101600000Y-71600000D03*
D15*
X50800000Y-83400000D03*
X50800000Y-82130000D03*
X50800000Y-80860000D03*
D16*
X37400000Y-83200000D03*
D17*
X37400000Y-80660000D03*
X37400000Y-78120000D03*
X37400000Y-75580000D03*
D16*
X30700000Y-68560000D03*
D17*
X30700000Y-71100000D03*
X30700000Y-73640000D03*
X30700000Y-76180000D03*
X30700000Y-78720000D03*
X30700000Y-81260000D03*
D15*
X45700000Y-83400000D03*
X45700000Y-82130000D03*
X45700000Y-80860000D03*
D16*
X93300000Y-81200000D03*
D17*
X93300000Y-83740000D03*
X93300000Y-86280000D03*
D16*
X84000000Y-44460000D03*
D17*
X84000000Y-47000000D03*
D16*
X84000000Y-103460000D03*
D17*
X84000000Y-106000000D03*
D16*
X66000000Y-44460000D03*
D17*
X66000000Y-47000000D03*
D16*
X51000000Y-95000000D03*
D17*
X51000000Y-92460000D03*
X53540000Y-95000000D03*
X53540000Y-92460000D03*
X56080000Y-95000000D03*
X56080000Y-92460000D03*
X58620000Y-95000000D03*
X58620000Y-92460000D03*
X61160000Y-95000000D03*
X61160000Y-92460000D03*
X63700000Y-95000000D03*
X63700000Y-92460000D03*
X66240000Y-95000000D03*
X66240000Y-92460000D03*
X68780000Y-95000000D03*
X68780000Y-92460000D03*
X71320000Y-95000000D03*
X71320000Y-92460000D03*
X73860000Y-95000000D03*
X73860000Y-92460000D03*
X76400000Y-95000000D03*
X76400000Y-92460000D03*
X78940000Y-95000000D03*
X78940000Y-92460000D03*
X81480000Y-95000000D03*
X81480000Y-92460000D03*
X84020000Y-95000000D03*
X84020000Y-92460000D03*
X86560000Y-95000000D03*
X86560000Y-92460000D03*
X89100000Y-95000000D03*
X89100000Y-92460000D03*
X91640000Y-95000000D03*
X91640000Y-92460000D03*
X94180000Y-95000000D03*
X94180000Y-92460000D03*
X96720000Y-95000000D03*
X96720000Y-92460000D03*
X99260000Y-95000000D03*
X99260000Y-92460000D03*
D16*
X66000000Y-103460000D03*
D17*
X66000000Y-106000000D03*
D16*
X66000000Y-33460000D03*
D17*
X66000000Y-36000000D03*
D16*
X66000000Y-113460000D03*
D17*
X66000000Y-116000000D03*
D16*
X102920000Y-60000000D03*
D17*
X105460000Y-60000000D03*
X108000000Y-60000000D03*
D18*
X112025000Y-84425000D03*
X112025000Y-83225000D03*
X112025000Y-82025000D03*
X112025000Y-80825000D03*
X112025000Y-79625000D03*
X112025000Y-78425000D03*
X112025000Y-77225000D03*
X112025000Y-76025000D03*
X113225000Y-76025000D03*
X113225000Y-77225000D03*
X113225000Y-78425000D03*
X113225000Y-79625000D03*
X113225000Y-80825000D03*
X113225000Y-82025000D03*
X113225000Y-83225000D03*
X113225000Y-84425000D03*
X114425000Y-84425000D03*
X114425000Y-83225000D03*
X114425000Y-82025000D03*
X114425000Y-80825000D03*
X114425000Y-79625000D03*
X114425000Y-78425000D03*
X114425000Y-77225000D03*
X114425000Y-76025000D03*
X115625000Y-76025000D03*
X115625000Y-77225000D03*
X115625000Y-78425000D03*
X115625000Y-79625000D03*
X115625000Y-80825000D03*
X115625000Y-82025000D03*
X115625000Y-83225000D03*
X115625000Y-84425000D03*
X116825000Y-84425000D03*
X116825000Y-83225000D03*
X116825000Y-82025000D03*
X116825000Y-80825000D03*
X116825000Y-79625000D03*
X116825000Y-78425000D03*
X116825000Y-77225000D03*
X116825000Y-76025000D03*
X118025000Y-76025000D03*
X118025000Y-77225000D03*
X118025000Y-78425000D03*
X118025000Y-79625000D03*
X118025000Y-80825000D03*
X118025000Y-82025000D03*
X118025000Y-83225000D03*
X118025000Y-84425000D03*
X119225000Y-84425000D03*
X119225000Y-83225000D03*
X119225000Y-82025000D03*
X119225000Y-80825000D03*
X119225000Y-79625000D03*
X119225000Y-78425000D03*
X119225000Y-77225000D03*
X119225000Y-76025000D03*
X112225000Y-72775000D03*
X112225000Y-71575000D03*
X112225000Y-70375000D03*
X112225000Y-69175000D03*
X112225000Y-67975000D03*
X112225000Y-66775000D03*
X112225000Y-65575000D03*
X112225000Y-64375000D03*
X113425000Y-64375000D03*
X113425000Y-65575000D03*
X113425000Y-66775000D03*
X113425000Y-67975000D03*
X113425000Y-69175000D03*
X113425000Y-70375000D03*
X113425000Y-71575000D03*
X113425000Y-72775000D03*
X114625000Y-72775000D03*
X114625000Y-71575000D03*
X114625000Y-70375000D03*
X114625000Y-69175000D03*
X114625000Y-67975000D03*
X114625000Y-66775000D03*
X114625000Y-65575000D03*
X114625000Y-64375000D03*
X115825000Y-64375000D03*
X115825000Y-65575000D03*
X115825000Y-66775000D03*
X115825000Y-67975000D03*
X115825000Y-69175000D03*
X115825000Y-70375000D03*
X115825000Y-71575000D03*
X115825000Y-72775000D03*
X117025000Y-72775000D03*
X117025000Y-71575000D03*
X117025000Y-70375000D03*
X117025000Y-69175000D03*
X117025000Y-67975000D03*
X117025000Y-66775000D03*
X117025000Y-65575000D03*
X117025000Y-64375000D03*
X118225000Y-64375000D03*
X118225000Y-65575000D03*
X118225000Y-66775000D03*
X118225000Y-67975000D03*
X118225000Y-69175000D03*
X118225000Y-70375000D03*
X118225000Y-71575000D03*
X118225000Y-72775000D03*
X119425000Y-72775000D03*
X119425000Y-71575000D03*
X119425000Y-70375000D03*
X119425000Y-69175000D03*
X119425000Y-67975000D03*
X119425000Y-66775000D03*
X119425000Y-65575000D03*
X119425000Y-64375000D03*
D19*
X48500000Y-122900000D03*
X48500000Y-119700000D03*
X53500000Y-122900000D03*
X53500000Y-119700000D03*
X97000000Y-122800000D03*
X97000000Y-119600000D03*
X102000000Y-122800000D03*
X102000000Y-119600000D03*
X102200000Y-27000000D03*
X102200000Y-30200000D03*
X97200000Y-27000000D03*
X97200000Y-30200000D03*
X53200000Y-27000000D03*
X53200000Y-30200000D03*
X48200000Y-27000000D03*
X48200000Y-30200000D03*
D16*
X107100000Y-92260000D03*
D17*
X107100000Y-94800000D03*
D18*
X64900000Y-70000000D03*
D20*
X64900000Y-72000000D03*
X64900000Y-74000000D03*
X64900000Y-76000000D03*
X64900000Y-78000000D03*
X64900000Y-80000000D03*
X64900000Y-82000000D03*
X64900000Y-84000000D03*
X64900000Y-86000000D03*
X64900000Y-88000000D03*
X86900000Y-88000000D03*
X86900000Y-86000000D03*
X86900000Y-84000000D03*
X86900000Y-82000000D03*
X86900000Y-80000000D03*
X86900000Y-78000000D03*
X86900000Y-76000000D03*
X86900000Y-74000000D03*
X86900000Y-72000000D03*
X86900000Y-70000000D03*
D16*
X123140000Y-59100000D03*
D17*
X120600000Y-59100000D03*
X118060000Y-59100000D03*
X115520000Y-59100000D03*
D21*
X91000000Y-56000000D03*
X91000000Y-57000000D03*
X91000000Y-58000000D03*
X91000000Y-59000000D03*
X91000000Y-55000000D03*
X91000000Y-54000000D03*
X91000000Y-53000000D03*
X92000000Y-53000000D03*
X93000000Y-53000000D03*
X94000000Y-53000000D03*
X95000000Y-53000000D03*
X96000000Y-53000000D03*
X97000000Y-53000000D03*
X98000000Y-53000000D03*
X98000000Y-54000000D03*
X98000000Y-55000000D03*
X98000000Y-56000000D03*
X98000000Y-57000000D03*
X98000000Y-58000000D03*
X98000000Y-59000000D03*
X97000000Y-59000000D03*
X96000000Y-59000000D03*
X95000000Y-59000000D03*
X94000000Y-59000000D03*
X93000000Y-59000000D03*
X92000000Y-59000000D03*
X92000000Y-58000000D03*
X93000000Y-58000000D03*
X94000000Y-58000000D03*
X95000000Y-58000000D03*
X96000000Y-58000000D03*
X97000000Y-58000000D03*
X97000000Y-57000000D03*
X96000000Y-57000000D03*
X95000000Y-57000000D03*
X94000000Y-57000000D03*
X93000000Y-57000000D03*
X92000000Y-57000000D03*
X92000000Y-56000000D03*
X93000000Y-56000000D03*
X94000000Y-56000000D03*
X95000000Y-56000000D03*
X96000000Y-56000000D03*
X97000000Y-56000000D03*
X97000000Y-55000000D03*
X96000000Y-55000000D03*
X95000000Y-55000000D03*
X94000000Y-55000000D03*
X93000000Y-55000000D03*
X92000000Y-55000000D03*
X92000000Y-54000000D03*
X93000000Y-54000000D03*
X94000000Y-54000000D03*
X95000000Y-54000000D03*
X96000000Y-54000000D03*
X97000000Y-54000000D03*
X59000000Y-56000000D03*
X59000000Y-55000000D03*
X59000000Y-54000000D03*
X59000000Y-53000000D03*
X59000000Y-57000000D03*
X59000000Y-58000000D03*
X59000000Y-59000000D03*
X58000000Y-59000000D03*
X57000000Y-59000000D03*
X56000000Y-59000000D03*
X55000000Y-59000000D03*
X54000000Y-59000000D03*
X53000000Y-59000000D03*
X52000000Y-59000000D03*
X52000000Y-58000000D03*
X52000000Y-57000000D03*
X52000000Y-56000000D03*
X52000000Y-55000000D03*
X52000000Y-54000000D03*
X52000000Y-53000000D03*
X53000000Y-53000000D03*
X54000000Y-53000000D03*
X55000000Y-53000000D03*
X56000000Y-53000000D03*
X57000000Y-53000000D03*
X58000000Y-53000000D03*
X58000000Y-54000000D03*
X57000000Y-54000000D03*
X56000000Y-54000000D03*
X55000000Y-54000000D03*
X54000000Y-54000000D03*
X53000000Y-54000000D03*
X53000000Y-55000000D03*
X54000000Y-55000000D03*
X55000000Y-55000000D03*
X56000000Y-55000000D03*
X57000000Y-55000000D03*
X58000000Y-55000000D03*
X58000000Y-56000000D03*
X57000000Y-56000000D03*
X56000000Y-56000000D03*
X55000000Y-56000000D03*
X54000000Y-56000000D03*
X53000000Y-56000000D03*
X53000000Y-57000000D03*
X54000000Y-57000000D03*
X55000000Y-57000000D03*
X56000000Y-57000000D03*
X57000000Y-57000000D03*
X58000000Y-57000000D03*
X58000000Y-58000000D03*
X57000000Y-58000000D03*
X56000000Y-58000000D03*
X55000000Y-58000000D03*
X54000000Y-58000000D03*
X53000000Y-58000000D03*
X75000000Y-38000000D03*
X76000000Y-38000000D03*
X77000000Y-38000000D03*
X78000000Y-38000000D03*
X74000000Y-38000000D03*
X73000000Y-38000000D03*
X72000000Y-38000000D03*
X72000000Y-37000000D03*
X72000000Y-36000000D03*
X72000000Y-35000000D03*
X72000000Y-34000000D03*
X72000000Y-33000000D03*
X72000000Y-32000000D03*
X72000000Y-31000000D03*
X73000000Y-31000000D03*
X74000000Y-31000000D03*
X75000000Y-31000000D03*
X76000000Y-31000000D03*
X77000000Y-31000000D03*
X78000000Y-31000000D03*
X78000000Y-32000000D03*
X78000000Y-33000000D03*
X78000000Y-34000000D03*
X78000000Y-35000000D03*
X78000000Y-36000000D03*
X78000000Y-37000000D03*
X77000000Y-37000000D03*
X77000000Y-36000000D03*
X77000000Y-35000000D03*
X77000000Y-34000000D03*
X77000000Y-33000000D03*
X77000000Y-32000000D03*
X76000000Y-32000000D03*
X76000000Y-33000000D03*
X76000000Y-34000000D03*
X76000000Y-35000000D03*
X76000000Y-36000000D03*
X76000000Y-37000000D03*
X75000000Y-37000000D03*
X75000000Y-36000000D03*
X75000000Y-35000000D03*
X75000000Y-34000000D03*
X75000000Y-33000000D03*
X75000000Y-32000000D03*
X74000000Y-32000000D03*
X74000000Y-33000000D03*
X74000000Y-34000000D03*
X74000000Y-35000000D03*
X74000000Y-36000000D03*
X74000000Y-37000000D03*
X73000000Y-37000000D03*
X73000000Y-36000000D03*
X73000000Y-35000000D03*
X73000000Y-34000000D03*
X73000000Y-33000000D03*
X73000000Y-32000000D03*
D11*
X108000000Y-32000000D03*
D12*
X110025000Y-32000000D03*
X109431891Y-33431891D03*
X108000000Y-34025000D03*
X106568109Y-33431891D03*
X105975000Y-32000000D03*
X106568109Y-30568109D03*
X108000000Y-29975000D03*
X109431891Y-30568109D03*
D11*
X108000000Y-48000000D03*
D12*
X110025000Y-48000000D03*
X109431891Y-49431891D03*
X108000000Y-50025000D03*
X106568109Y-49431891D03*
X105975000Y-48000000D03*
X106568109Y-46568109D03*
X108000000Y-45975000D03*
X109431891Y-46568109D03*
D22*
X95000000Y-66000000D03*
X103200000Y-27700000D03*
X96151715Y-123348285D03*
X46035423Y-122835423D03*
X108200000Y-79750000D03*
X46000000Y-90900000D03*
X46900000Y-72400000D03*
X44000000Y-70500000D03*
X63700000Y-49100000D03*
X30600000Y-67009999D03*
X30600000Y-59800000D03*
X30000000Y-88100000D03*
X110000000Y-77600000D03*
X110000000Y-66000000D03*
X51100000Y-121200000D03*
X50000000Y-28500000D03*
X95400000Y-28700000D03*
X100800000Y-118700000D03*
X35350000Y-71100000D03*
X36400000Y-60100000D03*
X44300000Y-73000000D03*
X41100000Y-69000000D03*
X62451465Y-51851465D03*
X61500000Y-60600000D03*
X80175000Y-40500000D03*
X70100000Y-40500000D03*
X88500000Y-51200000D03*
X88500000Y-61000000D03*
X69301483Y-70696199D03*
X69394546Y-61345503D03*
X70168329Y-70679147D03*
X70412412Y-61211535D03*
X64923953Y-63926534D03*
X45950992Y-75016705D03*
X64982990Y-64724364D03*
X46367095Y-75699990D03*
X65205606Y-65492778D03*
X61905243Y-71252790D03*
X62439806Y-71847988D03*
X65205609Y-66599996D03*
X44500000Y-85700000D03*
X63300000Y-82900000D03*
X70400000Y-82900000D03*
X57473074Y-85980866D03*
X59200000Y-88400000D03*
X57100000Y-74400000D03*
X57450694Y-85040919D03*
X58125010Y-75500000D03*
X58100000Y-88500000D03*
X44400000Y-83400000D03*
X62478985Y-85013284D03*
X70300000Y-86800000D03*
X48300000Y-84500000D03*
X46900000Y-80700000D03*
X37000000Y-87000000D03*
X62874990Y-77797249D03*
X63500000Y-78900000D03*
X99375427Y-102269971D03*
X99585072Y-103797386D03*
X86900000Y-59300000D03*
X63000000Y-58500000D03*
X68700000Y-49800000D03*
X62700000Y-53300000D03*
X71999999Y-39250001D03*
X78100000Y-41900000D03*
X63825847Y-66670511D03*
X44300000Y-74500000D03*
D23*
X97000000Y-122800000D02*
X97300000Y-122800000D01*
X103360001Y-124000001D02*
X104200000Y-123160002D01*
X104200000Y-123160002D02*
X104200000Y-113400000D01*
X104000000Y-50200000D02*
X104000000Y-28500000D01*
X97300000Y-122800000D02*
X98500001Y-124000001D01*
X114600000Y-87800000D02*
X120700000Y-87800000D01*
X98500001Y-124000001D02*
X103360001Y-124000001D01*
X104200000Y-113400000D02*
X113183133Y-104416867D01*
X113183133Y-89216867D02*
X114600000Y-87800000D01*
X113183133Y-104416867D02*
X113183133Y-89216867D01*
X120700000Y-87800000D02*
X123200000Y-85300000D01*
X123200000Y-85300000D02*
X123200000Y-63200000D01*
X123200000Y-63200000D02*
X120800000Y-60800000D01*
X114400000Y-60800000D02*
X103900000Y-50300000D01*
X120800000Y-60800000D02*
X114400000Y-60800000D01*
X103900000Y-50300000D02*
X104000000Y-50200000D01*
X104000000Y-28500000D02*
X103200000Y-27700000D01*
X45716034Y-117626893D02*
X45716034Y-121773107D01*
X45716034Y-121773107D02*
X46035423Y-122092496D01*
X46035423Y-122092496D02*
X46035423Y-122835423D01*
X30000000Y-88100000D02*
X34697260Y-88100000D01*
X34697260Y-88100000D02*
X46695729Y-100098469D01*
X46695729Y-100098469D02*
X46695729Y-116647198D01*
X46695729Y-116647198D02*
X45716034Y-117626893D01*
X48500000Y-122900000D02*
X50300000Y-122900000D01*
X50300000Y-122900000D02*
X51500001Y-124100001D01*
X51500001Y-124100001D02*
X95399999Y-124100001D01*
X95399999Y-124100001D02*
X95851716Y-123648284D01*
X95851716Y-123648284D02*
X96151715Y-123348285D01*
X96000000Y-53000000D02*
X96000000Y-47360038D01*
X96000000Y-47360038D02*
X86639962Y-38000000D01*
X86639962Y-38000000D02*
X79550000Y-38000000D01*
X79550000Y-38000000D02*
X78000000Y-38000000D01*
X102200000Y-27000000D02*
X101900000Y-27000000D01*
X95839999Y-25799999D02*
X95838099Y-25801899D01*
X95838099Y-25801899D02*
X54698101Y-25801899D01*
X101900000Y-27000000D02*
X100701899Y-25801899D01*
X100701899Y-25801899D02*
X98561901Y-25801899D01*
X53500000Y-27000000D02*
X53200000Y-27000000D01*
X98561901Y-25801899D02*
X98560001Y-25799999D01*
X54698101Y-25801899D02*
X53500000Y-27000000D01*
X98560001Y-25799999D02*
X95839999Y-25799999D01*
X101600000Y-71600000D02*
X101600000Y-73150000D01*
X95000000Y-66000000D02*
X95000000Y-59000000D01*
X103200000Y-27700000D02*
X102500000Y-27000000D01*
X102500000Y-27000000D02*
X102200000Y-27000000D01*
X96700000Y-122800000D02*
X97000000Y-122800000D01*
X96151715Y-123348285D02*
X96700000Y-122800000D01*
X46035423Y-122835423D02*
X46100000Y-122900000D01*
X46100000Y-122900000D02*
X47900000Y-122900000D01*
X101600000Y-73150000D02*
X108200000Y-79750000D01*
X54700000Y-83900000D02*
X50090023Y-88509977D01*
X50090023Y-88509977D02*
X49261879Y-88509977D01*
X49261879Y-88509977D02*
X46871856Y-90900000D01*
X46871856Y-90900000D02*
X46000000Y-90900000D01*
X59951472Y-83900000D02*
X54700000Y-83900000D01*
X64051472Y-88000000D02*
X59951472Y-83900000D01*
X64900000Y-88000000D02*
X64051472Y-88000000D01*
X30700000Y-81260000D02*
X31720000Y-81260000D01*
X31720000Y-81260000D02*
X37400000Y-75580000D01*
X44000000Y-70500000D02*
X45000000Y-70500000D01*
X45000000Y-70500000D02*
X46900000Y-72400000D01*
X63700000Y-49100000D02*
X62900000Y-49100000D01*
X62900000Y-49100000D02*
X59000000Y-53000000D01*
X30600000Y-59800000D02*
X30600000Y-67009999D01*
X30700000Y-81260000D02*
X30700000Y-87400000D01*
X30700000Y-87400000D02*
X30000000Y-88100000D01*
X110000000Y-66000000D02*
X110000000Y-77600000D01*
X100800000Y-118700000D02*
X100499999Y-118399999D01*
X100499999Y-118399999D02*
X95639999Y-118399999D01*
X95639999Y-118399999D02*
X91680704Y-122359294D01*
X91680704Y-122359294D02*
X56459294Y-122359294D01*
X56459294Y-122359294D02*
X53800000Y-119700000D01*
X53800000Y-119700000D02*
X53500000Y-119700000D01*
X51100000Y-121200000D02*
X52000000Y-121200000D01*
X52000000Y-121200000D02*
X53500000Y-119700000D01*
X111481029Y-103518971D02*
X111481029Y-95000000D01*
X111481029Y-95000000D02*
X111481029Y-88552231D01*
X107100000Y-94800000D02*
X111281029Y-94800000D01*
X111281029Y-94800000D02*
X111481029Y-95000000D01*
X102000000Y-119600000D02*
X102000000Y-113000000D01*
X120135011Y-85974991D02*
X121400000Y-84710002D01*
X102000000Y-113000000D02*
X111481029Y-103518971D01*
X97200000Y-46230121D02*
X97200000Y-31200000D01*
X97200000Y-31200000D02*
X97200000Y-30200000D01*
X111481029Y-88552231D02*
X114058269Y-85974991D01*
X120200000Y-62600000D02*
X113569879Y-62600000D01*
X113569879Y-62600000D02*
X97200000Y-46230121D01*
X114058269Y-85974991D02*
X120135011Y-85974991D01*
X121400000Y-84710002D02*
X121400000Y-63800000D01*
X121400000Y-63800000D02*
X120200000Y-62600000D01*
X47153150Y-121499999D02*
X50800001Y-121499999D01*
X50800001Y-121499999D02*
X51100000Y-121200000D01*
X46916045Y-121262894D02*
X47153150Y-121499999D01*
X46916045Y-118123953D02*
X46916045Y-121262894D01*
X47895740Y-117144258D02*
X46916045Y-118123953D01*
X47895740Y-99595740D02*
X47895740Y-117144258D01*
X35849999Y-87549999D02*
X47895740Y-99595740D01*
X35849999Y-79670001D02*
X35849999Y-87549999D01*
X37400000Y-78120000D02*
X35849999Y-79670001D01*
X95400000Y-28700000D02*
X94778475Y-28078475D01*
X57843066Y-28078475D02*
X54221541Y-31700000D01*
X94778475Y-28078475D02*
X57843066Y-28078475D01*
X54221541Y-31700000D02*
X50000000Y-31700000D01*
X50000000Y-31700000D02*
X48500000Y-30200000D01*
X48500000Y-30200000D02*
X48200000Y-30200000D01*
X48200000Y-30200000D02*
X48300000Y-30200000D01*
X48300000Y-30200000D02*
X50000000Y-28500000D01*
X96900000Y-30200000D02*
X95400000Y-28700000D01*
X97200000Y-30200000D02*
X96900000Y-30200000D01*
X100800000Y-118700000D02*
X101700000Y-119600000D01*
X101700000Y-119600000D02*
X102000000Y-119600000D01*
X36400000Y-60100000D02*
X35350000Y-61150000D01*
X35350000Y-61150000D02*
X35350000Y-71100000D01*
D24*
X41100000Y-69000000D02*
X44300000Y-72200000D01*
X44300000Y-72200000D02*
X44300000Y-73000000D01*
D23*
X77500000Y-40500000D02*
X80175000Y-40500000D01*
X70100000Y-40500000D02*
X77500000Y-40500000D01*
X61499991Y-52802939D02*
X62451465Y-51851465D01*
X61500000Y-60600000D02*
X61500000Y-53797070D01*
X61500000Y-53797070D02*
X61499991Y-53797061D01*
X61499991Y-53797061D02*
X61499991Y-52802939D01*
X88500000Y-61000000D02*
X88500000Y-51200000D01*
D24*
X68230638Y-62509411D02*
X68230638Y-69625354D01*
X69394546Y-61345503D02*
X68230638Y-62509411D01*
X68230638Y-69625354D02*
X69001484Y-70396200D01*
X69001484Y-70396200D02*
X69301483Y-70696199D01*
X70412412Y-61211535D02*
X68680649Y-62943298D01*
X68680649Y-62943298D02*
X68680649Y-69191467D01*
X68680649Y-69191467D02*
X70168329Y-70679147D01*
X45950992Y-75016705D02*
X53762135Y-75016705D01*
X64499689Y-63926534D02*
X64923953Y-63926534D01*
X53762135Y-75016705D02*
X64499689Y-64279151D01*
X64499689Y-64279151D02*
X64499689Y-63926534D01*
X53912470Y-75699990D02*
X64588097Y-65024363D01*
X46367095Y-75699990D02*
X53912470Y-75699990D01*
X64682991Y-65024363D02*
X64982990Y-64724364D01*
X64588097Y-65024363D02*
X64682991Y-65024363D01*
X64557683Y-66822819D02*
X64557683Y-66140701D01*
X61905243Y-69475259D02*
X64557683Y-66822819D01*
X61905243Y-71252790D02*
X61905243Y-69475259D01*
X64905607Y-65792777D02*
X65205606Y-65492778D01*
X64557683Y-66140701D02*
X64905607Y-65792777D01*
X65205609Y-66599996D02*
X65205609Y-67024260D01*
X62739805Y-69490064D02*
X62739805Y-71547989D01*
X62739805Y-71547989D02*
X62439806Y-71847988D01*
X65205609Y-67024260D02*
X62739805Y-69490064D01*
X50800000Y-83400000D02*
X48041413Y-83400000D01*
X48041413Y-83400000D02*
X45741413Y-85700000D01*
X45741413Y-85700000D02*
X44500000Y-85700000D01*
X49915000Y-82130000D02*
X50800000Y-82130000D01*
X48675003Y-82130000D02*
X49915000Y-82130000D01*
X46595002Y-84210001D02*
X48675003Y-82130000D01*
X39510001Y-84210001D02*
X46595002Y-84210001D01*
X38500000Y-83200000D02*
X39510001Y-84210001D01*
X37400000Y-83200000D02*
X38500000Y-83200000D01*
X63300000Y-82900000D02*
X61260000Y-80860000D01*
X61260000Y-80860000D02*
X51685000Y-80860000D01*
X51685000Y-80860000D02*
X50800000Y-80860000D01*
X83170001Y-91570001D02*
X74500000Y-82900000D01*
X74500000Y-82900000D02*
X70400000Y-82900000D01*
X84020000Y-92460000D02*
X83170001Y-91610001D01*
X83170001Y-91610001D02*
X83170001Y-91570001D01*
X37400000Y-80660000D02*
X38870000Y-82130000D01*
X38870000Y-82130000D02*
X45700000Y-82130000D01*
X56800001Y-74699999D02*
X57100000Y-74400000D01*
X54774989Y-76725011D02*
X56800001Y-74699999D01*
X44425011Y-76725011D02*
X54774989Y-76725011D01*
X39649999Y-71949999D02*
X44425011Y-76725011D01*
X31549999Y-71949999D02*
X39649999Y-71949999D01*
X30700000Y-71100000D02*
X31549999Y-71949999D01*
X57473074Y-86405130D02*
X57473074Y-85980866D01*
X57473074Y-86673074D02*
X57473074Y-86405130D01*
X59200000Y-88400000D02*
X57473074Y-86673074D01*
X57825011Y-75799999D02*
X58125010Y-75500000D01*
X56449988Y-77175022D02*
X57825011Y-75799999D01*
X44075022Y-77175022D02*
X56449988Y-77175022D01*
X40540000Y-73640000D02*
X44075022Y-77175022D01*
X30700000Y-73640000D02*
X40540000Y-73640000D01*
X57150695Y-85340918D02*
X57450694Y-85040919D01*
X56713795Y-85777818D02*
X57150695Y-85340918D01*
X56713795Y-87113795D02*
X56713795Y-85777818D01*
X58100000Y-88500000D02*
X56713795Y-87113795D01*
X45700000Y-83400000D02*
X44400000Y-83400000D01*
X62178986Y-84713285D02*
X62478985Y-85013284D01*
X51405002Y-84500000D02*
X54594991Y-81310011D01*
X58775712Y-81310011D02*
X62178986Y-84713285D01*
X54594991Y-81310011D02*
X58775712Y-81310011D01*
X48300000Y-84500000D02*
X51405002Y-84500000D01*
X48339852Y-84539852D02*
X48300000Y-84500000D01*
X46900000Y-80700000D02*
X45860000Y-80700000D01*
X82844999Y-92085997D02*
X77559002Y-86800000D01*
X82844999Y-93824999D02*
X82844999Y-92085997D01*
X84020000Y-95000000D02*
X82844999Y-93824999D01*
X77559002Y-86800000D02*
X70300000Y-86800000D01*
X45860000Y-80700000D02*
X45700000Y-80860000D01*
X37000000Y-87000000D02*
X48745060Y-98745060D01*
X47900000Y-118950000D02*
X47900000Y-119700000D01*
X48745060Y-98745060D02*
X48745060Y-118104940D01*
X48745060Y-118104940D02*
X47900000Y-118950000D01*
X62874990Y-77372985D02*
X62874990Y-77797249D01*
X62874990Y-74025010D02*
X62874990Y-77372985D01*
X64900000Y-72000000D02*
X62874990Y-74025010D01*
X63500000Y-78900000D02*
X63500000Y-75400000D01*
X63500000Y-75400000D02*
X64900000Y-74000000D01*
X95950000Y-119600000D02*
X97000000Y-119600000D01*
X92301393Y-123248607D02*
X95950000Y-119600000D01*
X53248607Y-123248607D02*
X92301393Y-123248607D01*
X52900000Y-122900000D02*
X53248607Y-123248607D01*
X102000000Y-122800000D02*
X102000000Y-122050000D01*
X102000000Y-122050000D02*
X103300000Y-120750000D01*
X103300000Y-120750000D02*
X103300000Y-113000000D01*
X103300000Y-113000000D02*
X112332081Y-103967919D01*
X112332081Y-103967919D02*
X112332081Y-88867919D01*
X112332081Y-88867919D02*
X114300000Y-86900000D01*
X120500000Y-61700000D02*
X113900000Y-61700000D01*
X113900000Y-61700000D02*
X102200000Y-50000000D01*
X114300000Y-86900000D02*
X120400000Y-86900000D01*
X120400000Y-86900000D02*
X122300000Y-85000000D01*
X122300000Y-85000000D02*
X122300000Y-63500000D01*
X122300000Y-63500000D02*
X120500000Y-61700000D01*
X102200000Y-50000000D02*
X102200000Y-30200000D01*
X56400000Y-27000000D02*
X53200000Y-30200000D01*
X97200000Y-27000000D02*
X56400000Y-27000000D01*
D23*
X82449999Y-60231854D02*
X103452611Y-81234466D01*
X99675426Y-101969972D02*
X99375427Y-102269971D01*
X103452611Y-98192787D02*
X99675426Y-101969972D01*
X103452611Y-81234466D02*
X103452611Y-98192787D01*
X82449999Y-46010001D02*
X82449999Y-60231854D01*
X84000000Y-44460000D02*
X82449999Y-46010001D01*
X104652622Y-98729836D02*
X99885071Y-103497387D01*
X84000000Y-60084785D02*
X104652622Y-80737407D01*
X84000000Y-47000000D02*
X84000000Y-60084785D01*
X99885071Y-103497387D02*
X99585072Y-103797386D01*
X104652622Y-80737407D02*
X104652622Y-98729836D01*
X86900000Y-59300000D02*
X86900000Y-49900000D01*
X86900000Y-49900000D02*
X84000000Y-47000000D01*
X66199989Y-61500000D02*
X66205616Y-61505627D01*
X66205616Y-61505627D02*
X66205616Y-68834384D01*
X66205616Y-68834384D02*
X66200001Y-68839999D01*
X66200001Y-68839999D02*
X66200001Y-88624001D01*
X50587082Y-89709988D02*
X49758939Y-89709988D01*
X49758939Y-89709988D02*
X48249988Y-91218939D01*
X48249988Y-91218939D02*
X48249988Y-96907061D01*
X48249988Y-96907061D02*
X49142927Y-97800000D01*
X66200001Y-88624001D02*
X65124002Y-89700000D01*
X65124002Y-89700000D02*
X50597070Y-89700000D01*
X50597070Y-89700000D02*
X50587082Y-89709988D01*
X49142927Y-97800000D02*
X61343530Y-97800000D01*
X61343530Y-97800000D02*
X66000000Y-102456470D01*
X66000000Y-102456470D02*
X66000000Y-103460000D01*
X66199989Y-50602940D02*
X66199989Y-61500000D01*
X63299999Y-58799999D02*
X63499988Y-58799999D01*
X63499988Y-58799999D02*
X66199989Y-61500000D01*
X63000000Y-58500000D02*
X63299999Y-58799999D01*
X66000000Y-44460000D02*
X67550001Y-46010001D01*
X67550001Y-49252928D02*
X66199989Y-50602940D01*
X67550001Y-46010001D02*
X67550001Y-49252928D01*
X67202081Y-106000000D02*
X66000000Y-106000000D01*
X62050003Y-96550001D02*
X67550001Y-102049999D01*
X67550001Y-102049999D02*
X67550001Y-105652080D01*
X67550001Y-105652080D02*
X67202081Y-106000000D01*
X50255999Y-90909999D02*
X49449999Y-91715999D01*
X49449999Y-91715999D02*
X49449999Y-96410001D01*
X49449999Y-96410001D02*
X49589999Y-96550001D01*
X49589999Y-96550001D02*
X62050003Y-96550001D01*
X68400001Y-88500001D02*
X65990003Y-90909999D01*
X68400001Y-71187701D02*
X68400001Y-88500001D01*
X67405627Y-51094373D02*
X67405627Y-70193327D01*
X67405627Y-70193327D02*
X68400001Y-71187701D01*
X68700000Y-49800000D02*
X67405627Y-51094373D01*
X65990003Y-90909999D02*
X50255999Y-90909999D01*
X64999978Y-51000022D02*
X64999978Y-48000022D01*
X65150001Y-47849999D02*
X66000000Y-47000000D01*
X64999978Y-48000022D02*
X65150001Y-47849999D01*
X62700000Y-53300000D02*
X64999978Y-51000022D01*
X67850000Y-113460000D02*
X66000000Y-113460000D01*
X86949807Y-111271498D02*
X70038502Y-111271498D01*
X70038502Y-111271498D02*
X67850000Y-113460000D01*
X98499999Y-79675997D02*
X98499999Y-79700000D01*
X98499999Y-79700000D02*
X101052589Y-82252590D01*
X101052589Y-82252590D02*
X101052589Y-97168716D01*
X101052589Y-97168716D02*
X86949807Y-111271498D01*
X64449999Y-39944141D02*
X80049977Y-55544119D01*
X80049977Y-55544119D02*
X80049977Y-61225975D01*
X64449999Y-35010001D02*
X64449999Y-39944141D01*
X80049977Y-61225975D02*
X98499999Y-79675997D01*
X66000000Y-33460000D02*
X64449999Y-35010001D01*
X71999999Y-39250001D02*
X70889999Y-39250001D01*
X70889999Y-39250001D02*
X67550001Y-35910003D01*
X67550001Y-35910003D02*
X67550001Y-35010001D01*
X67550001Y-35010001D02*
X66000000Y-33460000D01*
X69802930Y-41900000D02*
X81249988Y-53347058D01*
X81249988Y-53347058D02*
X81249988Y-60728915D01*
X87446867Y-112471509D02*
X70730572Y-112471509D01*
X81249988Y-60728915D02*
X102252600Y-81731527D01*
X102252600Y-97665776D02*
X87446867Y-112471509D01*
X102252600Y-81731527D02*
X102252600Y-97665776D01*
X70730572Y-112471509D02*
X67202081Y-116000000D01*
X67202081Y-116000000D02*
X66000000Y-116000000D01*
X78100000Y-41900000D02*
X69802930Y-41900000D01*
X69802930Y-41900000D02*
X66000000Y-38097070D01*
X66000000Y-38097070D02*
X66000000Y-37202081D01*
X66000000Y-37202081D02*
X66000000Y-36000000D01*
D25*
X46100000Y-76300000D02*
X54196358Y-76300000D01*
X44300000Y-74500000D02*
X46100000Y-76300000D01*
X54196358Y-76300000D02*
X63525848Y-66970510D01*
X63525848Y-66970510D02*
X63825847Y-66670511D01*
D26*
G36*
X113315000Y-57000000D02*
X113367143Y-57262138D01*
X113515632Y-57484368D01*
X113737862Y-57632857D01*
X114000000Y-57685000D01*
X115021826Y-57685000D01*
X114951715Y-57698946D01*
X114469946Y-58020853D01*
X114148039Y-58502622D01*
X114035000Y-59070907D01*
X114035000Y-59129093D01*
X114148039Y-59697378D01*
X114469946Y-60179147D01*
X114951715Y-60501054D01*
X115520000Y-60614093D01*
X116088285Y-60501054D01*
X116570054Y-60179147D01*
X116790000Y-59849974D01*
X117009946Y-60179147D01*
X117491715Y-60501054D01*
X118060000Y-60614093D01*
X118628285Y-60501054D01*
X119110054Y-60179147D01*
X119330000Y-59849974D01*
X119549946Y-60179147D01*
X120031715Y-60501054D01*
X120600000Y-60614093D01*
X121168285Y-60501054D01*
X121650054Y-60179147D01*
X121677850Y-60137548D01*
X121686838Y-60185317D01*
X121825910Y-60401441D01*
X122038110Y-60546431D01*
X122290000Y-60597440D01*
X123990000Y-60597440D01*
X124225317Y-60553162D01*
X124315000Y-60495453D01*
X124315000Y-92315000D01*
X114000000Y-92315000D01*
X113737862Y-92367143D01*
X113515632Y-92515632D01*
X113367143Y-92737862D01*
X113315000Y-93000000D01*
X113315000Y-124315000D01*
X36685000Y-124315000D01*
X36685000Y-123185750D01*
X47065000Y-123185750D01*
X47065000Y-123526310D01*
X47161673Y-123759699D01*
X47340302Y-123938327D01*
X47573691Y-124035000D01*
X48214250Y-124035000D01*
X48373000Y-123876250D01*
X48373000Y-123027000D01*
X48627000Y-123027000D01*
X48627000Y-123876250D01*
X48785750Y-124035000D01*
X49426309Y-124035000D01*
X49659698Y-123938327D01*
X49838327Y-123759699D01*
X49935000Y-123526310D01*
X49935000Y-123185750D01*
X49776250Y-123027000D01*
X48627000Y-123027000D01*
X48373000Y-123027000D01*
X47223750Y-123027000D01*
X47065000Y-123185750D01*
X36685000Y-123185750D01*
X36685000Y-118635462D01*
X38664422Y-118635462D01*
X39171076Y-119861658D01*
X40108407Y-120800627D01*
X41333717Y-121309420D01*
X42660462Y-121310578D01*
X43886658Y-120803924D01*
X44825627Y-119866593D01*
X45334420Y-118641283D01*
X45335578Y-117314538D01*
X44828924Y-116088342D01*
X43891593Y-115149373D01*
X42666283Y-114640580D01*
X41339538Y-114639422D01*
X40113342Y-115146076D01*
X39174373Y-116083407D01*
X38665580Y-117308717D01*
X38664422Y-118635462D01*
X36685000Y-118635462D01*
X36685000Y-102660462D01*
X38664422Y-102660462D01*
X39171076Y-103886658D01*
X40108407Y-104825627D01*
X41333717Y-105334420D01*
X42660462Y-105335578D01*
X43886658Y-104828924D01*
X44825627Y-103891593D01*
X45334420Y-102666283D01*
X45335578Y-101339538D01*
X44828924Y-100113342D01*
X43891593Y-99174373D01*
X42666283Y-98665580D01*
X41339538Y-98664422D01*
X40113342Y-99171076D01*
X39174373Y-100108407D01*
X38665580Y-101333717D01*
X38664422Y-102660462D01*
X36685000Y-102660462D01*
X36685000Y-93000000D01*
X36632857Y-92737862D01*
X36484368Y-92515632D01*
X36262138Y-92367143D01*
X36000000Y-92315000D01*
X25685000Y-92315000D01*
X25685000Y-81616890D01*
X29258524Y-81616890D01*
X29428355Y-82026924D01*
X29818642Y-82455183D01*
X30343108Y-82701486D01*
X30573000Y-82580819D01*
X30573000Y-81387000D01*
X30827000Y-81387000D01*
X30827000Y-82580819D01*
X31056892Y-82701486D01*
X31581358Y-82455183D01*
X31971645Y-82026924D01*
X32141476Y-81616890D01*
X32020155Y-81387000D01*
X30827000Y-81387000D01*
X30573000Y-81387000D01*
X29379845Y-81387000D01*
X29258524Y-81616890D01*
X25685000Y-81616890D01*
X25685000Y-71100000D01*
X29185907Y-71100000D01*
X29298946Y-71668285D01*
X29620853Y-72150054D01*
X29950026Y-72370000D01*
X29620853Y-72589946D01*
X29298946Y-73071715D01*
X29185907Y-73640000D01*
X29298946Y-74208285D01*
X29620853Y-74690054D01*
X29950026Y-74910000D01*
X29620853Y-75129946D01*
X29298946Y-75611715D01*
X29185907Y-76180000D01*
X29298946Y-76748285D01*
X29620853Y-77230054D01*
X29950026Y-77450000D01*
X29620853Y-77669946D01*
X29298946Y-78151715D01*
X29185907Y-78720000D01*
X29298946Y-79288285D01*
X29620853Y-79770054D01*
X29961553Y-79997702D01*
X29818642Y-80064817D01*
X29428355Y-80493076D01*
X29258524Y-80903110D01*
X29379845Y-81133000D01*
X30573000Y-81133000D01*
X30573000Y-81113000D01*
X30827000Y-81113000D01*
X30827000Y-81133000D01*
X32020155Y-81133000D01*
X32141476Y-80903110D01*
X31971645Y-80493076D01*
X31581358Y-80064817D01*
X31438447Y-79997702D01*
X31779147Y-79770054D01*
X32101054Y-79288285D01*
X32214093Y-78720000D01*
X32101054Y-78151715D01*
X31779147Y-77669946D01*
X31449974Y-77450000D01*
X31779147Y-77230054D01*
X32101054Y-76748285D01*
X32214093Y-76180000D01*
X32101054Y-75611715D01*
X31779147Y-75129946D01*
X31449974Y-74910000D01*
X31779147Y-74690054D01*
X31972954Y-74400000D01*
X36504805Y-74400000D01*
X36128355Y-74813076D01*
X35958524Y-75223110D01*
X36079845Y-75453000D01*
X37273000Y-75453000D01*
X37273000Y-75433000D01*
X37527000Y-75433000D01*
X37527000Y-75453000D01*
X38720155Y-75453000D01*
X38841476Y-75223110D01*
X38671645Y-74813076D01*
X38295195Y-74400000D01*
X40225198Y-74400000D01*
X43537621Y-77712423D01*
X43784183Y-77877170D01*
X44075022Y-77935022D01*
X56449988Y-77935022D01*
X56740827Y-77877170D01*
X56987389Y-77712423D01*
X58264690Y-76435122D01*
X58310177Y-76435162D01*
X58653953Y-76293117D01*
X58917202Y-76030327D01*
X59059848Y-75686799D01*
X59060172Y-75314833D01*
X58918127Y-74971057D01*
X58655337Y-74707808D01*
X58311809Y-74565162D01*
X58034857Y-74564921D01*
X58035162Y-74214833D01*
X57893117Y-73871057D01*
X57779032Y-73756773D01*
X61145243Y-70390562D01*
X61145243Y-70690327D01*
X61113051Y-70722463D01*
X60970405Y-71065991D01*
X60970081Y-71437957D01*
X61112126Y-71781733D01*
X61374916Y-72044982D01*
X61537410Y-72112456D01*
X61646689Y-72376931D01*
X61909479Y-72640180D01*
X62253007Y-72782826D01*
X62624973Y-72783150D01*
X62968749Y-72641105D01*
X63231998Y-72378315D01*
X63374644Y-72034787D01*
X63374727Y-71939439D01*
X63441953Y-71838828D01*
X63499805Y-71547989D01*
X63499805Y-69804866D01*
X63652560Y-69652111D01*
X63652560Y-70600000D01*
X63696838Y-70835317D01*
X63835910Y-71051441D01*
X63993958Y-71159431D01*
X63853629Y-71299515D01*
X63665215Y-71753266D01*
X63664860Y-72160338D01*
X62337589Y-73487609D01*
X62172842Y-73734171D01*
X62114990Y-74025010D01*
X62114990Y-77234786D01*
X62082798Y-77266922D01*
X61940152Y-77610450D01*
X61939828Y-77982416D01*
X62081873Y-78326192D01*
X62344663Y-78589441D01*
X62576566Y-78685736D01*
X62565162Y-78713201D01*
X62564838Y-79085167D01*
X62706883Y-79428943D01*
X62969673Y-79692192D01*
X63313201Y-79834838D01*
X63665144Y-79835145D01*
X63664786Y-80244579D01*
X63852408Y-80698657D01*
X64153446Y-81000221D01*
X63853629Y-81299515D01*
X63665215Y-81753266D01*
X63664965Y-82039144D01*
X63486799Y-81965162D01*
X63439923Y-81965121D01*
X61797401Y-80322599D01*
X61550839Y-80157852D01*
X61260000Y-80100000D01*
X52012627Y-80100000D01*
X51899090Y-79923559D01*
X51686890Y-79778569D01*
X51435000Y-79727560D01*
X50165000Y-79727560D01*
X49929683Y-79771838D01*
X49713559Y-79910910D01*
X49568569Y-80123110D01*
X49517560Y-80375000D01*
X49517560Y-81345000D01*
X49522264Y-81370000D01*
X48675003Y-81370000D01*
X48384164Y-81427852D01*
X48137602Y-81592599D01*
X46955955Y-82774246D01*
X46953179Y-82759493D01*
X46982440Y-82615000D01*
X46982440Y-81645000D01*
X46980572Y-81635071D01*
X47085167Y-81635162D01*
X47428943Y-81493117D01*
X47692192Y-81230327D01*
X47834838Y-80886799D01*
X47835162Y-80514833D01*
X47693117Y-80171057D01*
X47430327Y-79907808D01*
X47086799Y-79765162D01*
X46714833Y-79764838D01*
X46622581Y-79802956D01*
X46586890Y-79778569D01*
X46335000Y-79727560D01*
X45065000Y-79727560D01*
X44829683Y-79771838D01*
X44613559Y-79910910D01*
X44468569Y-80123110D01*
X44417560Y-80375000D01*
X44417560Y-81345000D01*
X44422264Y-81370000D01*
X39184802Y-81370000D01*
X38841210Y-81026408D01*
X38914093Y-80660000D01*
X38801054Y-80091715D01*
X38479147Y-79609946D01*
X38149974Y-79390000D01*
X38479147Y-79170054D01*
X38801054Y-78688285D01*
X38914093Y-78120000D01*
X38801054Y-77551715D01*
X38479147Y-77069946D01*
X38138447Y-76842298D01*
X38281358Y-76775183D01*
X38671645Y-76346924D01*
X38841476Y-75936890D01*
X38720155Y-75707000D01*
X37527000Y-75707000D01*
X37527000Y-75727000D01*
X37273000Y-75727000D01*
X37273000Y-75707000D01*
X36079845Y-75707000D01*
X35958524Y-75936890D01*
X36128355Y-76346924D01*
X36518642Y-76775183D01*
X36661553Y-76842298D01*
X36320853Y-77069946D01*
X35998946Y-77551715D01*
X35908512Y-78006355D01*
X35047433Y-78867435D01*
X34801396Y-79235655D01*
X34714999Y-79670001D01*
X34714999Y-87549999D01*
X34801396Y-87984345D01*
X34975279Y-88244579D01*
X35047433Y-88352565D01*
X46760740Y-100065872D01*
X46760740Y-116674126D01*
X46113479Y-117321387D01*
X45867442Y-117689607D01*
X45781045Y-118123953D01*
X45781045Y-121262894D01*
X45867442Y-121697240D01*
X46035368Y-121948559D01*
X46113479Y-122065460D01*
X46350584Y-122302565D01*
X46718804Y-122548602D01*
X47069013Y-122618263D01*
X47223750Y-122773000D01*
X48373000Y-122773000D01*
X48373000Y-122753000D01*
X48627000Y-122753000D01*
X48627000Y-122773000D01*
X49776250Y-122773000D01*
X49914251Y-122634999D01*
X50800001Y-122634999D01*
X51234347Y-122548602D01*
X51554025Y-122335000D01*
X52000000Y-122335000D01*
X52068481Y-122321378D01*
X52052560Y-122400000D01*
X52052560Y-123400000D01*
X52096838Y-123635317D01*
X52235910Y-123851441D01*
X52448110Y-123996431D01*
X52700000Y-124047440D01*
X54300000Y-124047440D01*
X54506379Y-124008607D01*
X92301393Y-124008607D01*
X92592232Y-123950755D01*
X92838794Y-123786008D01*
X93539052Y-123085750D01*
X95565000Y-123085750D01*
X95565000Y-123426310D01*
X95661673Y-123659699D01*
X95840302Y-123838327D01*
X96073691Y-123935000D01*
X96714250Y-123935000D01*
X96873000Y-123776250D01*
X96873000Y-122927000D01*
X97127000Y-122927000D01*
X97127000Y-123776250D01*
X97285750Y-123935000D01*
X97926309Y-123935000D01*
X98159698Y-123838327D01*
X98338327Y-123659699D01*
X98435000Y-123426310D01*
X98435000Y-123085750D01*
X98276250Y-122927000D01*
X97127000Y-122927000D01*
X96873000Y-122927000D01*
X95723750Y-122927000D01*
X95565000Y-123085750D01*
X93539052Y-123085750D01*
X94451112Y-122173690D01*
X95565000Y-122173690D01*
X95565000Y-122514250D01*
X95723750Y-122673000D01*
X96873000Y-122673000D01*
X96873000Y-121823750D01*
X97127000Y-121823750D01*
X97127000Y-122673000D01*
X98276250Y-122673000D01*
X98435000Y-122514250D01*
X98435000Y-122173690D01*
X98338327Y-121940301D01*
X98159698Y-121761673D01*
X97926309Y-121665000D01*
X97285750Y-121665000D01*
X97127000Y-121823750D01*
X96873000Y-121823750D01*
X96714250Y-121665000D01*
X96073691Y-121665000D01*
X95840302Y-121761673D01*
X95661673Y-121940301D01*
X95565000Y-122173690D01*
X94451112Y-122173690D01*
X95936384Y-120688419D01*
X95948110Y-120696431D01*
X96200000Y-120747440D01*
X97800000Y-120747440D01*
X98035317Y-120703162D01*
X98251441Y-120564090D01*
X98396431Y-120351890D01*
X98447440Y-120100000D01*
X98447440Y-119534999D01*
X100029867Y-119534999D01*
X100552560Y-120057692D01*
X100552560Y-120100000D01*
X100596838Y-120335317D01*
X100735910Y-120551441D01*
X100948110Y-120696431D01*
X101200000Y-120747440D01*
X102227758Y-120747440D01*
X101462599Y-121512599D01*
X101369080Y-121652560D01*
X101200000Y-121652560D01*
X100964683Y-121696838D01*
X100748559Y-121835910D01*
X100603569Y-122048110D01*
X100552560Y-122300000D01*
X100552560Y-123300000D01*
X100596838Y-123535317D01*
X100735910Y-123751441D01*
X100948110Y-123896431D01*
X101200000Y-123947440D01*
X102800000Y-123947440D01*
X103035317Y-123903162D01*
X103251441Y-123764090D01*
X103396431Y-123551890D01*
X103447440Y-123300000D01*
X103447440Y-122300000D01*
X103403162Y-122064683D01*
X103268848Y-121855954D01*
X103837401Y-121287401D01*
X104002148Y-121040839D01*
X104060000Y-120750000D01*
X104060000Y-118685462D01*
X104664422Y-118685462D01*
X105171076Y-119911658D01*
X106108407Y-120850627D01*
X107333717Y-121359420D01*
X108660462Y-121360578D01*
X109886658Y-120853924D01*
X110825627Y-119916593D01*
X111334420Y-118691283D01*
X111335578Y-117364538D01*
X110828924Y-116138342D01*
X109891593Y-115199373D01*
X108666283Y-114690580D01*
X107339538Y-114689422D01*
X106113342Y-115196076D01*
X105174373Y-116133407D01*
X104665580Y-117358717D01*
X104664422Y-118685462D01*
X104060000Y-118685462D01*
X104060000Y-113314802D01*
X112869482Y-104505320D01*
X113034229Y-104258759D01*
X113043827Y-104210505D01*
X113092081Y-103967919D01*
X113092081Y-89182721D01*
X114614802Y-87660000D01*
X120400000Y-87660000D01*
X120690839Y-87602148D01*
X120937401Y-87437401D01*
X122837401Y-85537401D01*
X123002148Y-85290839D01*
X123060000Y-85000000D01*
X123060000Y-63500000D01*
X123007116Y-63234137D01*
X123002148Y-63209160D01*
X122837401Y-62962599D01*
X121037401Y-61162599D01*
X120790839Y-60997852D01*
X120500000Y-60940000D01*
X114214802Y-60940000D01*
X102960000Y-49685198D01*
X102960000Y-48660462D01*
X104664422Y-48660462D01*
X105171076Y-49886658D01*
X106108407Y-50825627D01*
X107333717Y-51334420D01*
X108660462Y-51335578D01*
X109886658Y-50828924D01*
X110825627Y-49891593D01*
X111334420Y-48666283D01*
X111335578Y-47339538D01*
X110828924Y-46113342D01*
X109891593Y-45174373D01*
X108666283Y-44665580D01*
X107339538Y-44664422D01*
X106113342Y-45171076D01*
X105174373Y-46108407D01*
X104665580Y-47333717D01*
X104664422Y-48660462D01*
X102960000Y-48660462D01*
X102960000Y-32660462D01*
X104664422Y-32660462D01*
X105171076Y-33886658D01*
X106108407Y-34825627D01*
X107333717Y-35334420D01*
X108660462Y-35335578D01*
X109886658Y-34828924D01*
X110825627Y-33891593D01*
X111334420Y-32666283D01*
X111335578Y-31339538D01*
X110828924Y-30113342D01*
X109891593Y-29174373D01*
X108666283Y-28665580D01*
X107339538Y-28664422D01*
X106113342Y-29171076D01*
X105174373Y-30108407D01*
X104665580Y-31333717D01*
X104664422Y-32660462D01*
X102960000Y-32660462D01*
X102960000Y-31347440D01*
X103000000Y-31347440D01*
X103235317Y-31303162D01*
X103451441Y-31164090D01*
X103596431Y-30951890D01*
X103647440Y-30700000D01*
X103647440Y-29700000D01*
X103603162Y-29464683D01*
X103464090Y-29248559D01*
X103251890Y-29103569D01*
X103000000Y-29052560D01*
X101400000Y-29052560D01*
X101164683Y-29096838D01*
X100948559Y-29235910D01*
X100803569Y-29448110D01*
X100752560Y-29700000D01*
X100752560Y-30700000D01*
X100796838Y-30935317D01*
X100935910Y-31151441D01*
X101148110Y-31296431D01*
X101400000Y-31347440D01*
X101440000Y-31347440D01*
X101440000Y-48864989D01*
X98335000Y-45759989D01*
X98335000Y-31239018D01*
X98451441Y-31164090D01*
X98596431Y-30951890D01*
X98647440Y-30700000D01*
X98647440Y-29700000D01*
X98603162Y-29464683D01*
X98464090Y-29248559D01*
X98251890Y-29103569D01*
X98000000Y-29052560D01*
X97357692Y-29052560D01*
X96452572Y-28147440D01*
X98000000Y-28147440D01*
X98235317Y-28103162D01*
X98451441Y-27964090D01*
X98596431Y-27751890D01*
X98647440Y-27500000D01*
X98647440Y-27285750D01*
X100765000Y-27285750D01*
X100765000Y-27626310D01*
X100861673Y-27859699D01*
X101040302Y-28038327D01*
X101273691Y-28135000D01*
X101914250Y-28135000D01*
X102073000Y-27976250D01*
X102073000Y-27127000D01*
X102327000Y-27127000D01*
X102327000Y-27976250D01*
X102485750Y-28135000D01*
X103126309Y-28135000D01*
X103359698Y-28038327D01*
X103538327Y-27859699D01*
X103635000Y-27626310D01*
X103635000Y-27285750D01*
X103476250Y-27127000D01*
X102327000Y-27127000D01*
X102073000Y-27127000D01*
X100923750Y-27127000D01*
X100765000Y-27285750D01*
X98647440Y-27285750D01*
X98647440Y-26500000D01*
X98623674Y-26373690D01*
X100765000Y-26373690D01*
X100765000Y-26714250D01*
X100923750Y-26873000D01*
X102073000Y-26873000D01*
X102073000Y-26023750D01*
X102327000Y-26023750D01*
X102327000Y-26873000D01*
X103476250Y-26873000D01*
X103635000Y-26714250D01*
X103635000Y-26373690D01*
X103538327Y-26140301D01*
X103359698Y-25961673D01*
X103126309Y-25865000D01*
X102485750Y-25865000D01*
X102327000Y-26023750D01*
X102073000Y-26023750D01*
X101914250Y-25865000D01*
X101273691Y-25865000D01*
X101040302Y-25961673D01*
X100861673Y-26140301D01*
X100765000Y-26373690D01*
X98623674Y-26373690D01*
X98603162Y-26264683D01*
X98464090Y-26048559D01*
X98251890Y-25903569D01*
X98000000Y-25852560D01*
X96400000Y-25852560D01*
X96164683Y-25896838D01*
X95948559Y-26035910D01*
X95809110Y-26240000D01*
X56400000Y-26240000D01*
X56109160Y-26297852D01*
X55862599Y-26462599D01*
X54589824Y-27735374D01*
X54635000Y-27626310D01*
X54635000Y-27285750D01*
X54476250Y-27127000D01*
X53327000Y-27127000D01*
X53327000Y-27976250D01*
X53485750Y-28135000D01*
X54126309Y-28135000D01*
X54235374Y-28089824D01*
X53272638Y-29052560D01*
X52400000Y-29052560D01*
X52164683Y-29096838D01*
X51948559Y-29235910D01*
X51803569Y-29448110D01*
X51752560Y-29700000D01*
X51752560Y-30565000D01*
X50470132Y-30565000D01*
X50005132Y-30100000D01*
X50802566Y-29302566D01*
X51048603Y-28934345D01*
X51135000Y-28500000D01*
X51048603Y-28065655D01*
X50802566Y-27697434D01*
X50434345Y-27451397D01*
X50000000Y-27365000D01*
X49647440Y-27435129D01*
X49647440Y-27285750D01*
X51765000Y-27285750D01*
X51765000Y-27626310D01*
X51861673Y-27859699D01*
X52040302Y-28038327D01*
X52273691Y-28135000D01*
X52914250Y-28135000D01*
X53073000Y-27976250D01*
X53073000Y-27127000D01*
X51923750Y-27127000D01*
X51765000Y-27285750D01*
X49647440Y-27285750D01*
X49647440Y-26500000D01*
X49623674Y-26373690D01*
X51765000Y-26373690D01*
X51765000Y-26714250D01*
X51923750Y-26873000D01*
X53073000Y-26873000D01*
X53073000Y-26023750D01*
X53327000Y-26023750D01*
X53327000Y-26873000D01*
X54476250Y-26873000D01*
X54635000Y-26714250D01*
X54635000Y-26373690D01*
X54538327Y-26140301D01*
X54359698Y-25961673D01*
X54126309Y-25865000D01*
X53485750Y-25865000D01*
X53327000Y-26023750D01*
X53073000Y-26023750D01*
X52914250Y-25865000D01*
X52273691Y-25865000D01*
X52040302Y-25961673D01*
X51861673Y-26140301D01*
X51765000Y-26373690D01*
X49623674Y-26373690D01*
X49603162Y-26264683D01*
X49464090Y-26048559D01*
X49251890Y-25903569D01*
X49000000Y-25852560D01*
X47400000Y-25852560D01*
X47164683Y-25896838D01*
X46948559Y-26035910D01*
X46803569Y-26248110D01*
X46752560Y-26500000D01*
X46752560Y-27500000D01*
X46796838Y-27735317D01*
X46935910Y-27951441D01*
X47148110Y-28096431D01*
X47400000Y-28147440D01*
X48747428Y-28147440D01*
X47842308Y-29052560D01*
X47400000Y-29052560D01*
X47164683Y-29096838D01*
X46948559Y-29235910D01*
X46803569Y-29448110D01*
X46752560Y-29700000D01*
X46752560Y-30700000D01*
X46796838Y-30935317D01*
X46935910Y-31151441D01*
X47148110Y-31296431D01*
X47400000Y-31347440D01*
X48042308Y-31347440D01*
X49197434Y-32502566D01*
X49565654Y-32748603D01*
X50000000Y-32835000D01*
X54221541Y-32835000D01*
X54655887Y-32748603D01*
X55024107Y-32502566D01*
X55665141Y-31861532D01*
X55664422Y-32685462D01*
X56171076Y-33911658D01*
X57108407Y-34850627D01*
X58333717Y-35359420D01*
X59660462Y-35360578D01*
X60886658Y-34853924D01*
X61825627Y-33916593D01*
X62334420Y-32691283D01*
X62335578Y-31364538D01*
X61828924Y-30138342D01*
X60905670Y-29213475D01*
X89070869Y-29213475D01*
X88174373Y-30108407D01*
X87665580Y-31333717D01*
X87664422Y-32660462D01*
X88171076Y-33886658D01*
X89108407Y-34825627D01*
X90333717Y-35334420D01*
X91660462Y-35335578D01*
X92886658Y-34828924D01*
X93825627Y-33891593D01*
X94334420Y-32666283D01*
X94335578Y-31339538D01*
X93828924Y-30113342D01*
X92930627Y-29213475D01*
X94308343Y-29213475D01*
X95752560Y-30657692D01*
X95752560Y-30700000D01*
X95796838Y-30935317D01*
X95935910Y-31151441D01*
X96065000Y-31239644D01*
X96065000Y-46230121D01*
X96151397Y-46664467D01*
X96352087Y-46964821D01*
X96397434Y-47032687D01*
X107875432Y-58510685D01*
X107431715Y-58598946D01*
X106949946Y-58920853D01*
X106730000Y-59250026D01*
X106510054Y-58920853D01*
X106028285Y-58598946D01*
X105460000Y-58485907D01*
X104891715Y-58598946D01*
X104409946Y-58920853D01*
X104382150Y-58962452D01*
X104373162Y-58914683D01*
X104234090Y-58698559D01*
X104021890Y-58553569D01*
X103770000Y-58502560D01*
X102070000Y-58502560D01*
X101834683Y-58546838D01*
X101618559Y-58685910D01*
X101473569Y-58898110D01*
X101422560Y-59150000D01*
X101422560Y-60850000D01*
X101466838Y-61085317D01*
X101605910Y-61301441D01*
X101818110Y-61446431D01*
X102070000Y-61497440D01*
X103770000Y-61497440D01*
X104005317Y-61453162D01*
X104221441Y-61314090D01*
X104366431Y-61101890D01*
X104380086Y-61034459D01*
X104409946Y-61079147D01*
X104891715Y-61401054D01*
X105460000Y-61514093D01*
X106028285Y-61401054D01*
X106510054Y-61079147D01*
X106730000Y-60749974D01*
X106949946Y-61079147D01*
X107431715Y-61401054D01*
X108000000Y-61514093D01*
X108568285Y-61401054D01*
X109050054Y-61079147D01*
X109371961Y-60597378D01*
X109469876Y-60105129D01*
X112507749Y-63143002D01*
X112494542Y-63156208D01*
X111961074Y-63161824D01*
X111939250Y-63140000D01*
X111498690Y-63140000D01*
X111432572Y-63167387D01*
X110898663Y-63173007D01*
X110853841Y-63181685D01*
X110811447Y-63208965D01*
X110783006Y-63250590D01*
X110773000Y-63300000D01*
X110773000Y-65177679D01*
X110434346Y-64951397D01*
X110000000Y-64865000D01*
X109565654Y-64951397D01*
X109197434Y-65197434D01*
X108951397Y-65565654D01*
X108865000Y-66000000D01*
X108865000Y-77600000D01*
X108951397Y-78034346D01*
X109197434Y-78402566D01*
X109565654Y-78648603D01*
X110000000Y-78735000D01*
X110434346Y-78648603D01*
X110773000Y-78422321D01*
X110773000Y-85400000D01*
X110781201Y-85444898D01*
X110808029Y-85487580D01*
X110849348Y-85516462D01*
X110898649Y-85526993D01*
X111030368Y-85528394D01*
X111065301Y-85563327D01*
X111298690Y-85660000D01*
X111739250Y-85660000D01*
X111862008Y-85537242D01*
X112191497Y-85540747D01*
X112310750Y-85660000D01*
X112768128Y-85660000D01*
X110678463Y-87749665D01*
X110432426Y-88117885D01*
X110346029Y-88552231D01*
X110346029Y-93665000D01*
X108260163Y-93665000D01*
X108401441Y-93574090D01*
X108546431Y-93361890D01*
X108597440Y-93110000D01*
X108597440Y-91410000D01*
X108553162Y-91174683D01*
X108414090Y-90958559D01*
X108201890Y-90813569D01*
X107950000Y-90762560D01*
X106250000Y-90762560D01*
X106014683Y-90806838D01*
X105798559Y-90945910D01*
X105787622Y-90961917D01*
X105787622Y-80737407D01*
X105701225Y-80303061D01*
X105455188Y-79934841D01*
X96270347Y-70750000D01*
X98352560Y-70750000D01*
X98352560Y-72450000D01*
X98396838Y-72685317D01*
X98535910Y-72901441D01*
X98748110Y-73046431D01*
X99000000Y-73097440D01*
X100200000Y-73097440D01*
X100435317Y-73053162D01*
X100651441Y-72914090D01*
X100755571Y-72761691D01*
X100770875Y-72781933D01*
X101190624Y-73028286D01*
X101282391Y-73043462D01*
X101473000Y-72918731D01*
X101473000Y-71727000D01*
X101727000Y-71727000D01*
X101727000Y-72918731D01*
X101917609Y-73043462D01*
X102009376Y-73028286D01*
X102429125Y-72781933D01*
X102722647Y-72393701D01*
X102845256Y-71922696D01*
X102682547Y-71727000D01*
X101727000Y-71727000D01*
X101473000Y-71727000D01*
X101453000Y-71727000D01*
X101453000Y-71473000D01*
X101473000Y-71473000D01*
X101473000Y-70281269D01*
X101727000Y-70281269D01*
X101727000Y-71473000D01*
X102682547Y-71473000D01*
X102845256Y-71277304D01*
X102722647Y-70806299D01*
X102429125Y-70418067D01*
X102009376Y-70171714D01*
X101917609Y-70156538D01*
X101727000Y-70281269D01*
X101473000Y-70281269D01*
X101282391Y-70156538D01*
X101190624Y-70171714D01*
X100770875Y-70418067D01*
X100754731Y-70439420D01*
X100664090Y-70298559D01*
X100451890Y-70153569D01*
X100200000Y-70102560D01*
X99000000Y-70102560D01*
X98764683Y-70146838D01*
X98548559Y-70285910D01*
X98403569Y-70498110D01*
X98352560Y-70750000D01*
X96270347Y-70750000D01*
X85135000Y-59614653D01*
X85135000Y-49740132D01*
X85765000Y-50370132D01*
X85765000Y-59300000D01*
X85851397Y-59734346D01*
X86097434Y-60102566D01*
X86465654Y-60348603D01*
X86900000Y-60435000D01*
X87334346Y-60348603D01*
X87365000Y-60328121D01*
X87365000Y-61000000D01*
X87451397Y-61434346D01*
X87697434Y-61802566D01*
X88065654Y-62048603D01*
X88500000Y-62135000D01*
X88934346Y-62048603D01*
X89302566Y-61802566D01*
X89548603Y-61434346D01*
X89609738Y-61127000D01*
X99500000Y-61127000D01*
X99547340Y-61117847D01*
X99589459Y-61090145D01*
X99617482Y-61048238D01*
X99626994Y-60998730D01*
X99526994Y-50998730D01*
X99518315Y-50953841D01*
X99491035Y-50911447D01*
X99449410Y-50883006D01*
X99400000Y-50873000D01*
X92754986Y-50873000D01*
X92861658Y-50828924D01*
X93800627Y-49891593D01*
X94309420Y-48666283D01*
X94310578Y-47339538D01*
X93803924Y-46113342D01*
X92866593Y-45174373D01*
X91641283Y-44665580D01*
X90314538Y-44664422D01*
X89088342Y-45171076D01*
X88149373Y-46108407D01*
X87640580Y-47333717D01*
X87639422Y-48660462D01*
X88146076Y-49886658D01*
X88353247Y-50094191D01*
X88065654Y-50151397D01*
X88035000Y-50171879D01*
X88035000Y-49900000D01*
X87948603Y-49465654D01*
X87702566Y-49097434D01*
X85491488Y-46886356D01*
X85401054Y-46431715D01*
X85079147Y-45949946D01*
X85037548Y-45922150D01*
X85085317Y-45913162D01*
X85301441Y-45774090D01*
X85446431Y-45561890D01*
X85497440Y-45310000D01*
X85497440Y-43610000D01*
X85453162Y-43374683D01*
X85314090Y-43158559D01*
X85101890Y-43013569D01*
X84850000Y-42962560D01*
X83150000Y-42962560D01*
X82914683Y-43006838D01*
X82698559Y-43145910D01*
X82553569Y-43358110D01*
X82502560Y-43610000D01*
X82502560Y-44352307D01*
X81647434Y-45207434D01*
X81647433Y-45207435D01*
X81401396Y-45575655D01*
X81314999Y-46010001D01*
X81314999Y-51806937D01*
X72543062Y-43035000D01*
X78100000Y-43035000D01*
X78534346Y-42948603D01*
X78902566Y-42702566D01*
X79148603Y-42334346D01*
X79235000Y-41900000D01*
X79182288Y-41635000D01*
X80175000Y-41635000D01*
X80609346Y-41548603D01*
X80977566Y-41302566D01*
X81223603Y-40934346D01*
X81310000Y-40500000D01*
X81223603Y-40065654D01*
X80977566Y-39697434D01*
X80609346Y-39451397D01*
X80175000Y-39365000D01*
X73112124Y-39365000D01*
X73119683Y-39327000D01*
X79300000Y-39327000D01*
X79348692Y-39317295D01*
X79390490Y-39289110D01*
X79418029Y-39246883D01*
X79426971Y-39197269D01*
X79226971Y-29897269D01*
X79218315Y-29853841D01*
X79191035Y-29811447D01*
X79149410Y-29783006D01*
X79100000Y-29773000D01*
X70600000Y-29773000D01*
X70553841Y-29781685D01*
X70511447Y-29808965D01*
X70483006Y-29850590D01*
X70473000Y-29900000D01*
X70473000Y-30000000D01*
X70473008Y-30001380D01*
X70552420Y-37307289D01*
X68685001Y-35439871D01*
X68685001Y-35010001D01*
X68598604Y-34575655D01*
X68542754Y-34492070D01*
X68352567Y-34207434D01*
X67497440Y-33352308D01*
X67497440Y-32610000D01*
X67453162Y-32374683D01*
X67314090Y-32158559D01*
X67101890Y-32013569D01*
X66850000Y-31962560D01*
X65150000Y-31962560D01*
X64914683Y-32006838D01*
X64698559Y-32145910D01*
X64553569Y-32358110D01*
X64502560Y-32610000D01*
X64502560Y-33352307D01*
X63647434Y-34207434D01*
X63647433Y-34207435D01*
X63401396Y-34575655D01*
X63314999Y-35010001D01*
X63314999Y-39944141D01*
X63401396Y-40378487D01*
X63606313Y-40685167D01*
X63647433Y-40746707D01*
X65863286Y-42962560D01*
X65150000Y-42962560D01*
X64914683Y-43006838D01*
X64698559Y-43145910D01*
X64553569Y-43358110D01*
X64502560Y-43610000D01*
X64502560Y-45310000D01*
X64546838Y-45545317D01*
X64685910Y-45761441D01*
X64898110Y-45906431D01*
X64965541Y-45920086D01*
X64920853Y-45949946D01*
X64598946Y-46431715D01*
X64508512Y-46886356D01*
X64347438Y-47047430D01*
X64347435Y-47047432D01*
X64197412Y-47197456D01*
X63951375Y-47565676D01*
X63864978Y-48000022D01*
X63864978Y-50529890D01*
X63290856Y-51104012D01*
X63254031Y-51048899D01*
X62885810Y-50802862D01*
X62451465Y-50716466D01*
X62017119Y-50802862D01*
X61648898Y-51048899D01*
X60697425Y-52000373D01*
X60627000Y-52105771D01*
X60627000Y-51000000D01*
X60618315Y-50953841D01*
X60605927Y-50934590D01*
X60861658Y-50828924D01*
X61800627Y-49891593D01*
X62309420Y-48666283D01*
X62310578Y-47339538D01*
X61803924Y-46113342D01*
X60866593Y-45174373D01*
X59641283Y-44665580D01*
X58314538Y-44664422D01*
X57088342Y-45171076D01*
X56149373Y-46108407D01*
X55640580Y-47333717D01*
X55639422Y-48660462D01*
X56146076Y-49886658D01*
X57083407Y-50825627D01*
X57197494Y-50873000D01*
X50500000Y-50873000D01*
X50453841Y-50881685D01*
X50411447Y-50908965D01*
X50383006Y-50950590D01*
X50373000Y-51000000D01*
X50373000Y-60900000D01*
X50381230Y-60944974D01*
X50408084Y-60987639D01*
X50449422Y-61016494D01*
X50498730Y-61026994D01*
X60498730Y-61126994D01*
X60511715Y-61124618D01*
X60697434Y-61402566D01*
X61065654Y-61648603D01*
X61500000Y-61735000D01*
X61934346Y-61648603D01*
X62302566Y-61402566D01*
X62548603Y-61034346D01*
X62635000Y-60600000D01*
X62635000Y-59694485D01*
X62865654Y-59848603D01*
X62962779Y-59867922D01*
X65070616Y-61975759D01*
X65070616Y-62991661D01*
X64738786Y-62991372D01*
X64395010Y-63133417D01*
X64327531Y-63200779D01*
X64208850Y-63224386D01*
X63962288Y-63389133D01*
X63797541Y-63635695D01*
X63739689Y-63926534D01*
X63739689Y-63964348D01*
X61113634Y-66590404D01*
X61026977Y-61997604D01*
X61018065Y-61953205D01*
X60990557Y-61910958D01*
X60948780Y-61882742D01*
X60899317Y-61873002D01*
X42299317Y-61973002D01*
X42253841Y-61981685D01*
X42211447Y-62008965D01*
X42183006Y-62050590D01*
X42173000Y-62100000D01*
X42173000Y-68998198D01*
X42035122Y-68860320D01*
X42035162Y-68814833D01*
X41893117Y-68471057D01*
X41630327Y-68207808D01*
X41286799Y-68065162D01*
X40914833Y-68064838D01*
X40571057Y-68206883D01*
X40307808Y-68469673D01*
X40165162Y-68813201D01*
X40164838Y-69185167D01*
X40306883Y-69528943D01*
X40569673Y-69792192D01*
X40913201Y-69934838D01*
X40960077Y-69934879D01*
X43504012Y-72478814D01*
X43365162Y-72813201D01*
X43364838Y-73185167D01*
X43506883Y-73528943D01*
X43727709Y-73750155D01*
X43507808Y-73969673D01*
X43365162Y-74313201D01*
X43364921Y-74590119D01*
X40187400Y-71412598D01*
X39940838Y-71247851D01*
X39649999Y-71189999D01*
X36467098Y-71189999D01*
X36485000Y-71100000D01*
X36485000Y-61620132D01*
X37202566Y-60902566D01*
X37448603Y-60534345D01*
X37535000Y-60100000D01*
X37448603Y-59665655D01*
X37202566Y-59297434D01*
X36834345Y-59051397D01*
X36400000Y-58965000D01*
X35965655Y-59051397D01*
X35597434Y-59297434D01*
X34547434Y-60347434D01*
X34301397Y-60715654D01*
X34215000Y-61150000D01*
X34215000Y-71100000D01*
X34232902Y-71189999D01*
X32196191Y-71189999D01*
X32214093Y-71100000D01*
X32101054Y-70531715D01*
X31779147Y-70049946D01*
X31737548Y-70022150D01*
X31785317Y-70013162D01*
X32001441Y-69874090D01*
X32146431Y-69661890D01*
X32197440Y-69410000D01*
X32197440Y-67710000D01*
X32153162Y-67474683D01*
X32014090Y-67258559D01*
X31801890Y-67113569D01*
X31550000Y-67062560D01*
X29850000Y-67062560D01*
X29614683Y-67106838D01*
X29398559Y-67245910D01*
X29253569Y-67458110D01*
X29202560Y-67710000D01*
X29202560Y-69410000D01*
X29246838Y-69645317D01*
X29385910Y-69861441D01*
X29598110Y-70006431D01*
X29665541Y-70020086D01*
X29620853Y-70049946D01*
X29298946Y-70531715D01*
X29185907Y-71100000D01*
X25685000Y-71100000D01*
X25685000Y-57685000D01*
X36000000Y-57685000D01*
X36262138Y-57632857D01*
X36484368Y-57484368D01*
X36632857Y-57262138D01*
X36685000Y-57000000D01*
X36685000Y-48660462D01*
X38664422Y-48660462D01*
X39171076Y-49886658D01*
X40108407Y-50825627D01*
X41333717Y-51334420D01*
X42660462Y-51335578D01*
X43886658Y-50828924D01*
X44825627Y-49891593D01*
X45334420Y-48666283D01*
X45335578Y-47339538D01*
X44828924Y-46113342D01*
X43891593Y-45174373D01*
X42666283Y-44665580D01*
X41339538Y-44664422D01*
X40113342Y-45171076D01*
X39174373Y-46108407D01*
X38665580Y-47333717D01*
X38664422Y-48660462D01*
X36685000Y-48660462D01*
X36685000Y-32660462D01*
X38664422Y-32660462D01*
X39171076Y-33886658D01*
X40108407Y-34825627D01*
X41333717Y-35334420D01*
X42660462Y-35335578D01*
X43886658Y-34828924D01*
X44825627Y-33891593D01*
X45334420Y-32666283D01*
X45335578Y-31339538D01*
X44828924Y-30113342D01*
X43891593Y-29174373D01*
X42666283Y-28665580D01*
X41339538Y-28664422D01*
X40113342Y-29171076D01*
X39174373Y-30108407D01*
X38665580Y-31333717D01*
X38664422Y-32660462D01*
X36685000Y-32660462D01*
X36685000Y-25685000D01*
X113315000Y-25685000D01*
X113315000Y-57000000D01*
X113315000Y-57000000D01*
G37*
X113315000Y-57000000D02*
X113367143Y-57262138D01*
X113515632Y-57484368D01*
X113737862Y-57632857D01*
X114000000Y-57685000D01*
X115021826Y-57685000D01*
X114951715Y-57698946D01*
X114469946Y-58020853D01*
X114148039Y-58502622D01*
X114035000Y-59070907D01*
X114035000Y-59129093D01*
X114148039Y-59697378D01*
X114469946Y-60179147D01*
X114951715Y-60501054D01*
X115520000Y-60614093D01*
X116088285Y-60501054D01*
X116570054Y-60179147D01*
X116790000Y-59849974D01*
X117009946Y-60179147D01*
X117491715Y-60501054D01*
X118060000Y-60614093D01*
X118628285Y-60501054D01*
X119110054Y-60179147D01*
X119330000Y-59849974D01*
X119549946Y-60179147D01*
X120031715Y-60501054D01*
X120600000Y-60614093D01*
X121168285Y-60501054D01*
X121650054Y-60179147D01*
X121677850Y-60137548D01*
X121686838Y-60185317D01*
X121825910Y-60401441D01*
X122038110Y-60546431D01*
X122290000Y-60597440D01*
X123990000Y-60597440D01*
X124225317Y-60553162D01*
X124315000Y-60495453D01*
X124315000Y-92315000D01*
X114000000Y-92315000D01*
X113737862Y-92367143D01*
X113515632Y-92515632D01*
X113367143Y-92737862D01*
X113315000Y-93000000D01*
X113315000Y-124315000D01*
X36685000Y-124315000D01*
X36685000Y-123185750D01*
X47065000Y-123185750D01*
X47065000Y-123526310D01*
X47161673Y-123759699D01*
X47340302Y-123938327D01*
X47573691Y-124035000D01*
X48214250Y-124035000D01*
X48373000Y-123876250D01*
X48373000Y-123027000D01*
X48627000Y-123027000D01*
X48627000Y-123876250D01*
X48785750Y-124035000D01*
X49426309Y-124035000D01*
X49659698Y-123938327D01*
X49838327Y-123759699D01*
X49935000Y-123526310D01*
X49935000Y-123185750D01*
X49776250Y-123027000D01*
X48627000Y-123027000D01*
X48373000Y-123027000D01*
X47223750Y-123027000D01*
X47065000Y-123185750D01*
X36685000Y-123185750D01*
X36685000Y-118635462D01*
X38664422Y-118635462D01*
X39171076Y-119861658D01*
X40108407Y-120800627D01*
X41333717Y-121309420D01*
X42660462Y-121310578D01*
X43886658Y-120803924D01*
X44825627Y-119866593D01*
X45334420Y-118641283D01*
X45335578Y-117314538D01*
X44828924Y-116088342D01*
X43891593Y-115149373D01*
X42666283Y-114640580D01*
X41339538Y-114639422D01*
X40113342Y-115146076D01*
X39174373Y-116083407D01*
X38665580Y-117308717D01*
X38664422Y-118635462D01*
X36685000Y-118635462D01*
X36685000Y-102660462D01*
X38664422Y-102660462D01*
X39171076Y-103886658D01*
X40108407Y-104825627D01*
X41333717Y-105334420D01*
X42660462Y-105335578D01*
X43886658Y-104828924D01*
X44825627Y-103891593D01*
X45334420Y-102666283D01*
X45335578Y-101339538D01*
X44828924Y-100113342D01*
X43891593Y-99174373D01*
X42666283Y-98665580D01*
X41339538Y-98664422D01*
X40113342Y-99171076D01*
X39174373Y-100108407D01*
X38665580Y-101333717D01*
X38664422Y-102660462D01*
X36685000Y-102660462D01*
X36685000Y-93000000D01*
X36632857Y-92737862D01*
X36484368Y-92515632D01*
X36262138Y-92367143D01*
X36000000Y-92315000D01*
X25685000Y-92315000D01*
X25685000Y-81616890D01*
X29258524Y-81616890D01*
X29428355Y-82026924D01*
X29818642Y-82455183D01*
X30343108Y-82701486D01*
X30573000Y-82580819D01*
X30573000Y-81387000D01*
X30827000Y-81387000D01*
X30827000Y-82580819D01*
X31056892Y-82701486D01*
X31581358Y-82455183D01*
X31971645Y-82026924D01*
X32141476Y-81616890D01*
X32020155Y-81387000D01*
X30827000Y-81387000D01*
X30573000Y-81387000D01*
X29379845Y-81387000D01*
X29258524Y-81616890D01*
X25685000Y-81616890D01*
X25685000Y-71100000D01*
X29185907Y-71100000D01*
X29298946Y-71668285D01*
X29620853Y-72150054D01*
X29950026Y-72370000D01*
X29620853Y-72589946D01*
X29298946Y-73071715D01*
X29185907Y-73640000D01*
X29298946Y-74208285D01*
X29620853Y-74690054D01*
X29950026Y-74910000D01*
X29620853Y-75129946D01*
X29298946Y-75611715D01*
X29185907Y-76180000D01*
X29298946Y-76748285D01*
X29620853Y-77230054D01*
X29950026Y-77450000D01*
X29620853Y-77669946D01*
X29298946Y-78151715D01*
X29185907Y-78720000D01*
X29298946Y-79288285D01*
X29620853Y-79770054D01*
X29961553Y-79997702D01*
X29818642Y-80064817D01*
X29428355Y-80493076D01*
X29258524Y-80903110D01*
X29379845Y-81133000D01*
X30573000Y-81133000D01*
X30573000Y-81113000D01*
X30827000Y-81113000D01*
X30827000Y-81133000D01*
X32020155Y-81133000D01*
X32141476Y-80903110D01*
X31971645Y-80493076D01*
X31581358Y-80064817D01*
X31438447Y-79997702D01*
X31779147Y-79770054D01*
X32101054Y-79288285D01*
X32214093Y-78720000D01*
X32101054Y-78151715D01*
X31779147Y-77669946D01*
X31449974Y-77450000D01*
X31779147Y-77230054D01*
X32101054Y-76748285D01*
X32214093Y-76180000D01*
X32101054Y-75611715D01*
X31779147Y-75129946D01*
X31449974Y-74910000D01*
X31779147Y-74690054D01*
X31972954Y-74400000D01*
X36504805Y-74400000D01*
X36128355Y-74813076D01*
X35958524Y-75223110D01*
X36079845Y-75453000D01*
X37273000Y-75453000D01*
X37273000Y-75433000D01*
X37527000Y-75433000D01*
X37527000Y-75453000D01*
X38720155Y-75453000D01*
X38841476Y-75223110D01*
X38671645Y-74813076D01*
X38295195Y-74400000D01*
X40225198Y-74400000D01*
X43537621Y-77712423D01*
X43784183Y-77877170D01*
X44075022Y-77935022D01*
X56449988Y-77935022D01*
X56740827Y-77877170D01*
X56987389Y-77712423D01*
X58264690Y-76435122D01*
X58310177Y-76435162D01*
X58653953Y-76293117D01*
X58917202Y-76030327D01*
X59059848Y-75686799D01*
X59060172Y-75314833D01*
X58918127Y-74971057D01*
X58655337Y-74707808D01*
X58311809Y-74565162D01*
X58034857Y-74564921D01*
X58035162Y-74214833D01*
X57893117Y-73871057D01*
X57779032Y-73756773D01*
X61145243Y-70390562D01*
X61145243Y-70690327D01*
X61113051Y-70722463D01*
X60970405Y-71065991D01*
X60970081Y-71437957D01*
X61112126Y-71781733D01*
X61374916Y-72044982D01*
X61537410Y-72112456D01*
X61646689Y-72376931D01*
X61909479Y-72640180D01*
X62253007Y-72782826D01*
X62624973Y-72783150D01*
X62968749Y-72641105D01*
X63231998Y-72378315D01*
X63374644Y-72034787D01*
X63374727Y-71939439D01*
X63441953Y-71838828D01*
X63499805Y-71547989D01*
X63499805Y-69804866D01*
X63652560Y-69652111D01*
X63652560Y-70600000D01*
X63696838Y-70835317D01*
X63835910Y-71051441D01*
X63993958Y-71159431D01*
X63853629Y-71299515D01*
X63665215Y-71753266D01*
X63664860Y-72160338D01*
X62337589Y-73487609D01*
X62172842Y-73734171D01*
X62114990Y-74025010D01*
X62114990Y-77234786D01*
X62082798Y-77266922D01*
X61940152Y-77610450D01*
X61939828Y-77982416D01*
X62081873Y-78326192D01*
X62344663Y-78589441D01*
X62576566Y-78685736D01*
X62565162Y-78713201D01*
X62564838Y-79085167D01*
X62706883Y-79428943D01*
X62969673Y-79692192D01*
X63313201Y-79834838D01*
X63665144Y-79835145D01*
X63664786Y-80244579D01*
X63852408Y-80698657D01*
X64153446Y-81000221D01*
X63853629Y-81299515D01*
X63665215Y-81753266D01*
X63664965Y-82039144D01*
X63486799Y-81965162D01*
X63439923Y-81965121D01*
X61797401Y-80322599D01*
X61550839Y-80157852D01*
X61260000Y-80100000D01*
X52012627Y-80100000D01*
X51899090Y-79923559D01*
X51686890Y-79778569D01*
X51435000Y-79727560D01*
X50165000Y-79727560D01*
X49929683Y-79771838D01*
X49713559Y-79910910D01*
X49568569Y-80123110D01*
X49517560Y-80375000D01*
X49517560Y-81345000D01*
X49522264Y-81370000D01*
X48675003Y-81370000D01*
X48384164Y-81427852D01*
X48137602Y-81592599D01*
X46955955Y-82774246D01*
X46953179Y-82759493D01*
X46982440Y-82615000D01*
X46982440Y-81645000D01*
X46980572Y-81635071D01*
X47085167Y-81635162D01*
X47428943Y-81493117D01*
X47692192Y-81230327D01*
X47834838Y-80886799D01*
X47835162Y-80514833D01*
X47693117Y-80171057D01*
X47430327Y-79907808D01*
X47086799Y-79765162D01*
X46714833Y-79764838D01*
X46622581Y-79802956D01*
X46586890Y-79778569D01*
X46335000Y-79727560D01*
X45065000Y-79727560D01*
X44829683Y-79771838D01*
X44613559Y-79910910D01*
X44468569Y-80123110D01*
X44417560Y-80375000D01*
X44417560Y-81345000D01*
X44422264Y-81370000D01*
X39184802Y-81370000D01*
X38841210Y-81026408D01*
X38914093Y-80660000D01*
X38801054Y-80091715D01*
X38479147Y-79609946D01*
X38149974Y-79390000D01*
X38479147Y-79170054D01*
X38801054Y-78688285D01*
X38914093Y-78120000D01*
X38801054Y-77551715D01*
X38479147Y-77069946D01*
X38138447Y-76842298D01*
X38281358Y-76775183D01*
X38671645Y-76346924D01*
X38841476Y-75936890D01*
X38720155Y-75707000D01*
X37527000Y-75707000D01*
X37527000Y-75727000D01*
X37273000Y-75727000D01*
X37273000Y-75707000D01*
X36079845Y-75707000D01*
X35958524Y-75936890D01*
X36128355Y-76346924D01*
X36518642Y-76775183D01*
X36661553Y-76842298D01*
X36320853Y-77069946D01*
X35998946Y-77551715D01*
X35908512Y-78006355D01*
X35047433Y-78867435D01*
X34801396Y-79235655D01*
X34714999Y-79670001D01*
X34714999Y-87549999D01*
X34801396Y-87984345D01*
X34975279Y-88244579D01*
X35047433Y-88352565D01*
X46760740Y-100065872D01*
X46760740Y-116674126D01*
X46113479Y-117321387D01*
X45867442Y-117689607D01*
X45781045Y-118123953D01*
X45781045Y-121262894D01*
X45867442Y-121697240D01*
X46035368Y-121948559D01*
X46113479Y-122065460D01*
X46350584Y-122302565D01*
X46718804Y-122548602D01*
X47069013Y-122618263D01*
X47223750Y-122773000D01*
X48373000Y-122773000D01*
X48373000Y-122753000D01*
X48627000Y-122753000D01*
X48627000Y-122773000D01*
X49776250Y-122773000D01*
X49914251Y-122634999D01*
X50800001Y-122634999D01*
X51234347Y-122548602D01*
X51554025Y-122335000D01*
X52000000Y-122335000D01*
X52068481Y-122321378D01*
X52052560Y-122400000D01*
X52052560Y-123400000D01*
X52096838Y-123635317D01*
X52235910Y-123851441D01*
X52448110Y-123996431D01*
X52700000Y-124047440D01*
X54300000Y-124047440D01*
X54506379Y-124008607D01*
X92301393Y-124008607D01*
X92592232Y-123950755D01*
X92838794Y-123786008D01*
X93539052Y-123085750D01*
X95565000Y-123085750D01*
X95565000Y-123426310D01*
X95661673Y-123659699D01*
X95840302Y-123838327D01*
X96073691Y-123935000D01*
X96714250Y-123935000D01*
X96873000Y-123776250D01*
X96873000Y-122927000D01*
X97127000Y-122927000D01*
X97127000Y-123776250D01*
X97285750Y-123935000D01*
X97926309Y-123935000D01*
X98159698Y-123838327D01*
X98338327Y-123659699D01*
X98435000Y-123426310D01*
X98435000Y-123085750D01*
X98276250Y-122927000D01*
X97127000Y-122927000D01*
X96873000Y-122927000D01*
X95723750Y-122927000D01*
X95565000Y-123085750D01*
X93539052Y-123085750D01*
X94451112Y-122173690D01*
X95565000Y-122173690D01*
X95565000Y-122514250D01*
X95723750Y-122673000D01*
X96873000Y-122673000D01*
X96873000Y-121823750D01*
X97127000Y-121823750D01*
X97127000Y-122673000D01*
X98276250Y-122673000D01*
X98435000Y-122514250D01*
X98435000Y-122173690D01*
X98338327Y-121940301D01*
X98159698Y-121761673D01*
X97926309Y-121665000D01*
X97285750Y-121665000D01*
X97127000Y-121823750D01*
X96873000Y-121823750D01*
X96714250Y-121665000D01*
X96073691Y-121665000D01*
X95840302Y-121761673D01*
X95661673Y-121940301D01*
X95565000Y-122173690D01*
X94451112Y-122173690D01*
X95936384Y-120688419D01*
X95948110Y-120696431D01*
X96200000Y-120747440D01*
X97800000Y-120747440D01*
X98035317Y-120703162D01*
X98251441Y-120564090D01*
X98396431Y-120351890D01*
X98447440Y-120100000D01*
X98447440Y-119534999D01*
X100029867Y-119534999D01*
X100552560Y-120057692D01*
X100552560Y-120100000D01*
X100596838Y-120335317D01*
X100735910Y-120551441D01*
X100948110Y-120696431D01*
X101200000Y-120747440D01*
X102227758Y-120747440D01*
X101462599Y-121512599D01*
X101369080Y-121652560D01*
X101200000Y-121652560D01*
X100964683Y-121696838D01*
X100748559Y-121835910D01*
X100603569Y-122048110D01*
X100552560Y-122300000D01*
X100552560Y-123300000D01*
X100596838Y-123535317D01*
X100735910Y-123751441D01*
X100948110Y-123896431D01*
X101200000Y-123947440D01*
X102800000Y-123947440D01*
X103035317Y-123903162D01*
X103251441Y-123764090D01*
X103396431Y-123551890D01*
X103447440Y-123300000D01*
X103447440Y-122300000D01*
X103403162Y-122064683D01*
X103268848Y-121855954D01*
X103837401Y-121287401D01*
X104002148Y-121040839D01*
X104060000Y-120750000D01*
X104060000Y-118685462D01*
X104664422Y-118685462D01*
X105171076Y-119911658D01*
X106108407Y-120850627D01*
X107333717Y-121359420D01*
X108660462Y-121360578D01*
X109886658Y-120853924D01*
X110825627Y-119916593D01*
X111334420Y-118691283D01*
X111335578Y-117364538D01*
X110828924Y-116138342D01*
X109891593Y-115199373D01*
X108666283Y-114690580D01*
X107339538Y-114689422D01*
X106113342Y-115196076D01*
X105174373Y-116133407D01*
X104665580Y-117358717D01*
X104664422Y-118685462D01*
X104060000Y-118685462D01*
X104060000Y-113314802D01*
X112869482Y-104505320D01*
X113034229Y-104258759D01*
X113043827Y-104210505D01*
X113092081Y-103967919D01*
X113092081Y-89182721D01*
X114614802Y-87660000D01*
X120400000Y-87660000D01*
X120690839Y-87602148D01*
X120937401Y-87437401D01*
X122837401Y-85537401D01*
X123002148Y-85290839D01*
X123060000Y-85000000D01*
X123060000Y-63500000D01*
X123007116Y-63234137D01*
X123002148Y-63209160D01*
X122837401Y-62962599D01*
X121037401Y-61162599D01*
X120790839Y-60997852D01*
X120500000Y-60940000D01*
X114214802Y-60940000D01*
X102960000Y-49685198D01*
X102960000Y-48660462D01*
X104664422Y-48660462D01*
X105171076Y-49886658D01*
X106108407Y-50825627D01*
X107333717Y-51334420D01*
X108660462Y-51335578D01*
X109886658Y-50828924D01*
X110825627Y-49891593D01*
X111334420Y-48666283D01*
X111335578Y-47339538D01*
X110828924Y-46113342D01*
X109891593Y-45174373D01*
X108666283Y-44665580D01*
X107339538Y-44664422D01*
X106113342Y-45171076D01*
X105174373Y-46108407D01*
X104665580Y-47333717D01*
X104664422Y-48660462D01*
X102960000Y-48660462D01*
X102960000Y-32660462D01*
X104664422Y-32660462D01*
X105171076Y-33886658D01*
X106108407Y-34825627D01*
X107333717Y-35334420D01*
X108660462Y-35335578D01*
X109886658Y-34828924D01*
X110825627Y-33891593D01*
X111334420Y-32666283D01*
X111335578Y-31339538D01*
X110828924Y-30113342D01*
X109891593Y-29174373D01*
X108666283Y-28665580D01*
X107339538Y-28664422D01*
X106113342Y-29171076D01*
X105174373Y-30108407D01*
X104665580Y-31333717D01*
X104664422Y-32660462D01*
X102960000Y-32660462D01*
X102960000Y-31347440D01*
X103000000Y-31347440D01*
X103235317Y-31303162D01*
X103451441Y-31164090D01*
X103596431Y-30951890D01*
X103647440Y-30700000D01*
X103647440Y-29700000D01*
X103603162Y-29464683D01*
X103464090Y-29248559D01*
X103251890Y-29103569D01*
X103000000Y-29052560D01*
X101400000Y-29052560D01*
X101164683Y-29096838D01*
X100948559Y-29235910D01*
X100803569Y-29448110D01*
X100752560Y-29700000D01*
X100752560Y-30700000D01*
X100796838Y-30935317D01*
X100935910Y-31151441D01*
X101148110Y-31296431D01*
X101400000Y-31347440D01*
X101440000Y-31347440D01*
X101440000Y-48864989D01*
X98335000Y-45759989D01*
X98335000Y-31239018D01*
X98451441Y-31164090D01*
X98596431Y-30951890D01*
X98647440Y-30700000D01*
X98647440Y-29700000D01*
X98603162Y-29464683D01*
X98464090Y-29248559D01*
X98251890Y-29103569D01*
X98000000Y-29052560D01*
X97357692Y-29052560D01*
X96452572Y-28147440D01*
X98000000Y-28147440D01*
X98235317Y-28103162D01*
X98451441Y-27964090D01*
X98596431Y-27751890D01*
X98647440Y-27500000D01*
X98647440Y-27285750D01*
X100765000Y-27285750D01*
X100765000Y-27626310D01*
X100861673Y-27859699D01*
X101040302Y-28038327D01*
X101273691Y-28135000D01*
X101914250Y-28135000D01*
X102073000Y-27976250D01*
X102073000Y-27127000D01*
X102327000Y-27127000D01*
X102327000Y-27976250D01*
X102485750Y-28135000D01*
X103126309Y-28135000D01*
X103359698Y-28038327D01*
X103538327Y-27859699D01*
X103635000Y-27626310D01*
X103635000Y-27285750D01*
X103476250Y-27127000D01*
X102327000Y-27127000D01*
X102073000Y-27127000D01*
X100923750Y-27127000D01*
X100765000Y-27285750D01*
X98647440Y-27285750D01*
X98647440Y-26500000D01*
X98623674Y-26373690D01*
X100765000Y-26373690D01*
X100765000Y-26714250D01*
X100923750Y-26873000D01*
X102073000Y-26873000D01*
X102073000Y-26023750D01*
X102327000Y-26023750D01*
X102327000Y-26873000D01*
X103476250Y-26873000D01*
X103635000Y-26714250D01*
X103635000Y-26373690D01*
X103538327Y-26140301D01*
X103359698Y-25961673D01*
X103126309Y-25865000D01*
X102485750Y-25865000D01*
X102327000Y-26023750D01*
X102073000Y-26023750D01*
X101914250Y-25865000D01*
X101273691Y-25865000D01*
X101040302Y-25961673D01*
X100861673Y-26140301D01*
X100765000Y-26373690D01*
X98623674Y-26373690D01*
X98603162Y-26264683D01*
X98464090Y-26048559D01*
X98251890Y-25903569D01*
X98000000Y-25852560D01*
X96400000Y-25852560D01*
X96164683Y-25896838D01*
X95948559Y-26035910D01*
X95809110Y-26240000D01*
X56400000Y-26240000D01*
X56109160Y-26297852D01*
X55862599Y-26462599D01*
X54589824Y-27735374D01*
X54635000Y-27626310D01*
X54635000Y-27285750D01*
X54476250Y-27127000D01*
X53327000Y-27127000D01*
X53327000Y-27976250D01*
X53485750Y-28135000D01*
X54126309Y-28135000D01*
X54235374Y-28089824D01*
X53272638Y-29052560D01*
X52400000Y-29052560D01*
X52164683Y-29096838D01*
X51948559Y-29235910D01*
X51803569Y-29448110D01*
X51752560Y-29700000D01*
X51752560Y-30565000D01*
X50470132Y-30565000D01*
X50005132Y-30100000D01*
X50802566Y-29302566D01*
X51048603Y-28934345D01*
X51135000Y-28500000D01*
X51048603Y-28065655D01*
X50802566Y-27697434D01*
X50434345Y-27451397D01*
X50000000Y-27365000D01*
X49647440Y-27435129D01*
X49647440Y-27285750D01*
X51765000Y-27285750D01*
X51765000Y-27626310D01*
X51861673Y-27859699D01*
X52040302Y-28038327D01*
X52273691Y-28135000D01*
X52914250Y-28135000D01*
X53073000Y-27976250D01*
X53073000Y-27127000D01*
X51923750Y-27127000D01*
X51765000Y-27285750D01*
X49647440Y-27285750D01*
X49647440Y-26500000D01*
X49623674Y-26373690D01*
X51765000Y-26373690D01*
X51765000Y-26714250D01*
X51923750Y-26873000D01*
X53073000Y-26873000D01*
X53073000Y-26023750D01*
X53327000Y-26023750D01*
X53327000Y-26873000D01*
X54476250Y-26873000D01*
X54635000Y-26714250D01*
X54635000Y-26373690D01*
X54538327Y-26140301D01*
X54359698Y-25961673D01*
X54126309Y-25865000D01*
X53485750Y-25865000D01*
X53327000Y-26023750D01*
X53073000Y-26023750D01*
X52914250Y-25865000D01*
X52273691Y-25865000D01*
X52040302Y-25961673D01*
X51861673Y-26140301D01*
X51765000Y-26373690D01*
X49623674Y-26373690D01*
X49603162Y-26264683D01*
X49464090Y-26048559D01*
X49251890Y-25903569D01*
X49000000Y-25852560D01*
X47400000Y-25852560D01*
X47164683Y-25896838D01*
X46948559Y-26035910D01*
X46803569Y-26248110D01*
X46752560Y-26500000D01*
X46752560Y-27500000D01*
X46796838Y-27735317D01*
X46935910Y-27951441D01*
X47148110Y-28096431D01*
X47400000Y-28147440D01*
X48747428Y-28147440D01*
X47842308Y-29052560D01*
X47400000Y-29052560D01*
X47164683Y-29096838D01*
X46948559Y-29235910D01*
X46803569Y-29448110D01*
X46752560Y-29700000D01*
X46752560Y-30700000D01*
X46796838Y-30935317D01*
X46935910Y-31151441D01*
X47148110Y-31296431D01*
X47400000Y-31347440D01*
X48042308Y-31347440D01*
X49197434Y-32502566D01*
X49565654Y-32748603D01*
X50000000Y-32835000D01*
X54221541Y-32835000D01*
X54655887Y-32748603D01*
X55024107Y-32502566D01*
X55665141Y-31861532D01*
X55664422Y-32685462D01*
X56171076Y-33911658D01*
X57108407Y-34850627D01*
X58333717Y-35359420D01*
X59660462Y-35360578D01*
X60886658Y-34853924D01*
X61825627Y-33916593D01*
X62334420Y-32691283D01*
X62335578Y-31364538D01*
X61828924Y-30138342D01*
X60905670Y-29213475D01*
X89070869Y-29213475D01*
X88174373Y-30108407D01*
X87665580Y-31333717D01*
X87664422Y-32660462D01*
X88171076Y-33886658D01*
X89108407Y-34825627D01*
X90333717Y-35334420D01*
X91660462Y-35335578D01*
X92886658Y-34828924D01*
X93825627Y-33891593D01*
X94334420Y-32666283D01*
X94335578Y-31339538D01*
X93828924Y-30113342D01*
X92930627Y-29213475D01*
X94308343Y-29213475D01*
X95752560Y-30657692D01*
X95752560Y-30700000D01*
X95796838Y-30935317D01*
X95935910Y-31151441D01*
X96065000Y-31239644D01*
X96065000Y-46230121D01*
X96151397Y-46664467D01*
X96352087Y-46964821D01*
X96397434Y-47032687D01*
X107875432Y-58510685D01*
X107431715Y-58598946D01*
X106949946Y-58920853D01*
X106730000Y-59250026D01*
X106510054Y-58920853D01*
X106028285Y-58598946D01*
X105460000Y-58485907D01*
X104891715Y-58598946D01*
X104409946Y-58920853D01*
X104382150Y-58962452D01*
X104373162Y-58914683D01*
X104234090Y-58698559D01*
X104021890Y-58553569D01*
X103770000Y-58502560D01*
X102070000Y-58502560D01*
X101834683Y-58546838D01*
X101618559Y-58685910D01*
X101473569Y-58898110D01*
X101422560Y-59150000D01*
X101422560Y-60850000D01*
X101466838Y-61085317D01*
X101605910Y-61301441D01*
X101818110Y-61446431D01*
X102070000Y-61497440D01*
X103770000Y-61497440D01*
X104005317Y-61453162D01*
X104221441Y-61314090D01*
X104366431Y-61101890D01*
X104380086Y-61034459D01*
X104409946Y-61079147D01*
X104891715Y-61401054D01*
X105460000Y-61514093D01*
X106028285Y-61401054D01*
X106510054Y-61079147D01*
X106730000Y-60749974D01*
X106949946Y-61079147D01*
X107431715Y-61401054D01*
X108000000Y-61514093D01*
X108568285Y-61401054D01*
X109050054Y-61079147D01*
X109371961Y-60597378D01*
X109469876Y-60105129D01*
X112507749Y-63143002D01*
X112494542Y-63156208D01*
X111961074Y-63161824D01*
X111939250Y-63140000D01*
X111498690Y-63140000D01*
X111432572Y-63167387D01*
X110898663Y-63173007D01*
X110853841Y-63181685D01*
X110811447Y-63208965D01*
X110783006Y-63250590D01*
X110773000Y-63300000D01*
X110773000Y-65177679D01*
X110434346Y-64951397D01*
X110000000Y-64865000D01*
X109565654Y-64951397D01*
X109197434Y-65197434D01*
X108951397Y-65565654D01*
X108865000Y-66000000D01*
X108865000Y-77600000D01*
X108951397Y-78034346D01*
X109197434Y-78402566D01*
X109565654Y-78648603D01*
X110000000Y-78735000D01*
X110434346Y-78648603D01*
X110773000Y-78422321D01*
X110773000Y-85400000D01*
X110781201Y-85444898D01*
X110808029Y-85487580D01*
X110849348Y-85516462D01*
X110898649Y-85526993D01*
X111030368Y-85528394D01*
X111065301Y-85563327D01*
X111298690Y-85660000D01*
X111739250Y-85660000D01*
X111862008Y-85537242D01*
X112191497Y-85540747D01*
X112310750Y-85660000D01*
X112768128Y-85660000D01*
X110678463Y-87749665D01*
X110432426Y-88117885D01*
X110346029Y-88552231D01*
X110346029Y-93665000D01*
X108260163Y-93665000D01*
X108401441Y-93574090D01*
X108546431Y-93361890D01*
X108597440Y-93110000D01*
X108597440Y-91410000D01*
X108553162Y-91174683D01*
X108414090Y-90958559D01*
X108201890Y-90813569D01*
X107950000Y-90762560D01*
X106250000Y-90762560D01*
X106014683Y-90806838D01*
X105798559Y-90945910D01*
X105787622Y-90961917D01*
X105787622Y-80737407D01*
X105701225Y-80303061D01*
X105455188Y-79934841D01*
X96270347Y-70750000D01*
X98352560Y-70750000D01*
X98352560Y-72450000D01*
X98396838Y-72685317D01*
X98535910Y-72901441D01*
X98748110Y-73046431D01*
X99000000Y-73097440D01*
X100200000Y-73097440D01*
X100435317Y-73053162D01*
X100651441Y-72914090D01*
X100755571Y-72761691D01*
X100770875Y-72781933D01*
X101190624Y-73028286D01*
X101282391Y-73043462D01*
X101473000Y-72918731D01*
X101473000Y-71727000D01*
X101727000Y-71727000D01*
X101727000Y-72918731D01*
X101917609Y-73043462D01*
X102009376Y-73028286D01*
X102429125Y-72781933D01*
X102722647Y-72393701D01*
X102845256Y-71922696D01*
X102682547Y-71727000D01*
X101727000Y-71727000D01*
X101473000Y-71727000D01*
X101453000Y-71727000D01*
X101453000Y-71473000D01*
X101473000Y-71473000D01*
X101473000Y-70281269D01*
X101727000Y-70281269D01*
X101727000Y-71473000D01*
X102682547Y-71473000D01*
X102845256Y-71277304D01*
X102722647Y-70806299D01*
X102429125Y-70418067D01*
X102009376Y-70171714D01*
X101917609Y-70156538D01*
X101727000Y-70281269D01*
X101473000Y-70281269D01*
X101282391Y-70156538D01*
X101190624Y-70171714D01*
X100770875Y-70418067D01*
X100754731Y-70439420D01*
X100664090Y-70298559D01*
X100451890Y-70153569D01*
X100200000Y-70102560D01*
X99000000Y-70102560D01*
X98764683Y-70146838D01*
X98548559Y-70285910D01*
X98403569Y-70498110D01*
X98352560Y-70750000D01*
X96270347Y-70750000D01*
X85135000Y-59614653D01*
X85135000Y-49740132D01*
X85765000Y-50370132D01*
X85765000Y-59300000D01*
X85851397Y-59734346D01*
X86097434Y-60102566D01*
X86465654Y-60348603D01*
X86900000Y-60435000D01*
X87334346Y-60348603D01*
X87365000Y-60328121D01*
X87365000Y-61000000D01*
X87451397Y-61434346D01*
X87697434Y-61802566D01*
X88065654Y-62048603D01*
X88500000Y-62135000D01*
X88934346Y-62048603D01*
X89302566Y-61802566D01*
X89548603Y-61434346D01*
X89609738Y-61127000D01*
X99500000Y-61127000D01*
X99547340Y-61117847D01*
X99589459Y-61090145D01*
X99617482Y-61048238D01*
X99626994Y-60998730D01*
X99526994Y-50998730D01*
X99518315Y-50953841D01*
X99491035Y-50911447D01*
X99449410Y-50883006D01*
X99400000Y-50873000D01*
X92754986Y-50873000D01*
X92861658Y-50828924D01*
X93800627Y-49891593D01*
X94309420Y-48666283D01*
X94310578Y-47339538D01*
X93803924Y-46113342D01*
X92866593Y-45174373D01*
X91641283Y-44665580D01*
X90314538Y-44664422D01*
X89088342Y-45171076D01*
X88149373Y-46108407D01*
X87640580Y-47333717D01*
X87639422Y-48660462D01*
X88146076Y-49886658D01*
X88353247Y-50094191D01*
X88065654Y-50151397D01*
X88035000Y-50171879D01*
X88035000Y-49900000D01*
X87948603Y-49465654D01*
X87702566Y-49097434D01*
X85491488Y-46886356D01*
X85401054Y-46431715D01*
X85079147Y-45949946D01*
X85037548Y-45922150D01*
X85085317Y-45913162D01*
X85301441Y-45774090D01*
X85446431Y-45561890D01*
X85497440Y-45310000D01*
X85497440Y-43610000D01*
X85453162Y-43374683D01*
X85314090Y-43158559D01*
X85101890Y-43013569D01*
X84850000Y-42962560D01*
X83150000Y-42962560D01*
X82914683Y-43006838D01*
X82698559Y-43145910D01*
X82553569Y-43358110D01*
X82502560Y-43610000D01*
X82502560Y-44352307D01*
X81647434Y-45207434D01*
X81647433Y-45207435D01*
X81401396Y-45575655D01*
X81314999Y-46010001D01*
X81314999Y-51806937D01*
X72543062Y-43035000D01*
X78100000Y-43035000D01*
X78534346Y-42948603D01*
X78902566Y-42702566D01*
X79148603Y-42334346D01*
X79235000Y-41900000D01*
X79182288Y-41635000D01*
X80175000Y-41635000D01*
X80609346Y-41548603D01*
X80977566Y-41302566D01*
X81223603Y-40934346D01*
X81310000Y-40500000D01*
X81223603Y-40065654D01*
X80977566Y-39697434D01*
X80609346Y-39451397D01*
X80175000Y-39365000D01*
X73112124Y-39365000D01*
X73119683Y-39327000D01*
X79300000Y-39327000D01*
X79348692Y-39317295D01*
X79390490Y-39289110D01*
X79418029Y-39246883D01*
X79426971Y-39197269D01*
X79226971Y-29897269D01*
X79218315Y-29853841D01*
X79191035Y-29811447D01*
X79149410Y-29783006D01*
X79100000Y-29773000D01*
X70600000Y-29773000D01*
X70553841Y-29781685D01*
X70511447Y-29808965D01*
X70483006Y-29850590D01*
X70473000Y-29900000D01*
X70473000Y-30000000D01*
X70473008Y-30001380D01*
X70552420Y-37307289D01*
X68685001Y-35439871D01*
X68685001Y-35010001D01*
X68598604Y-34575655D01*
X68542754Y-34492070D01*
X68352567Y-34207434D01*
X67497440Y-33352308D01*
X67497440Y-32610000D01*
X67453162Y-32374683D01*
X67314090Y-32158559D01*
X67101890Y-32013569D01*
X66850000Y-31962560D01*
X65150000Y-31962560D01*
X64914683Y-32006838D01*
X64698559Y-32145910D01*
X64553569Y-32358110D01*
X64502560Y-32610000D01*
X64502560Y-33352307D01*
X63647434Y-34207434D01*
X63647433Y-34207435D01*
X63401396Y-34575655D01*
X63314999Y-35010001D01*
X63314999Y-39944141D01*
X63401396Y-40378487D01*
X63606313Y-40685167D01*
X63647433Y-40746707D01*
X65863286Y-42962560D01*
X65150000Y-42962560D01*
X64914683Y-43006838D01*
X64698559Y-43145910D01*
X64553569Y-43358110D01*
X64502560Y-43610000D01*
X64502560Y-45310000D01*
X64546838Y-45545317D01*
X64685910Y-45761441D01*
X64898110Y-45906431D01*
X64965541Y-45920086D01*
X64920853Y-45949946D01*
X64598946Y-46431715D01*
X64508512Y-46886356D01*
X64347438Y-47047430D01*
X64347435Y-47047432D01*
X64197412Y-47197456D01*
X63951375Y-47565676D01*
X63864978Y-48000022D01*
X63864978Y-50529890D01*
X63290856Y-51104012D01*
X63254031Y-51048899D01*
X62885810Y-50802862D01*
X62451465Y-50716466D01*
X62017119Y-50802862D01*
X61648898Y-51048899D01*
X60697425Y-52000373D01*
X60627000Y-52105771D01*
X60627000Y-51000000D01*
X60618315Y-50953841D01*
X60605927Y-50934590D01*
X60861658Y-50828924D01*
X61800627Y-49891593D01*
X62309420Y-48666283D01*
X62310578Y-47339538D01*
X61803924Y-46113342D01*
X60866593Y-45174373D01*
X59641283Y-44665580D01*
X58314538Y-44664422D01*
X57088342Y-45171076D01*
X56149373Y-46108407D01*
X55640580Y-47333717D01*
X55639422Y-48660462D01*
X56146076Y-49886658D01*
X57083407Y-50825627D01*
X57197494Y-50873000D01*
X50500000Y-50873000D01*
X50453841Y-50881685D01*
X50411447Y-50908965D01*
X50383006Y-50950590D01*
X50373000Y-51000000D01*
X50373000Y-60900000D01*
X50381230Y-60944974D01*
X50408084Y-60987639D01*
X50449422Y-61016494D01*
X50498730Y-61026994D01*
X60498730Y-61126994D01*
X60511715Y-61124618D01*
X60697434Y-61402566D01*
X61065654Y-61648603D01*
X61500000Y-61735000D01*
X61934346Y-61648603D01*
X62302566Y-61402566D01*
X62548603Y-61034346D01*
X62635000Y-60600000D01*
X62635000Y-59694485D01*
X62865654Y-59848603D01*
X62962779Y-59867922D01*
X65070616Y-61975759D01*
X65070616Y-62991661D01*
X64738786Y-62991372D01*
X64395010Y-63133417D01*
X64327531Y-63200779D01*
X64208850Y-63224386D01*
X63962288Y-63389133D01*
X63797541Y-63635695D01*
X63739689Y-63926534D01*
X63739689Y-63964348D01*
X61113634Y-66590404D01*
X61026977Y-61997604D01*
X61018065Y-61953205D01*
X60990557Y-61910958D01*
X60948780Y-61882742D01*
X60899317Y-61873002D01*
X42299317Y-61973002D01*
X42253841Y-61981685D01*
X42211447Y-62008965D01*
X42183006Y-62050590D01*
X42173000Y-62100000D01*
X42173000Y-68998198D01*
X42035122Y-68860320D01*
X42035162Y-68814833D01*
X41893117Y-68471057D01*
X41630327Y-68207808D01*
X41286799Y-68065162D01*
X40914833Y-68064838D01*
X40571057Y-68206883D01*
X40307808Y-68469673D01*
X40165162Y-68813201D01*
X40164838Y-69185167D01*
X40306883Y-69528943D01*
X40569673Y-69792192D01*
X40913201Y-69934838D01*
X40960077Y-69934879D01*
X43504012Y-72478814D01*
X43365162Y-72813201D01*
X43364838Y-73185167D01*
X43506883Y-73528943D01*
X43727709Y-73750155D01*
X43507808Y-73969673D01*
X43365162Y-74313201D01*
X43364921Y-74590119D01*
X40187400Y-71412598D01*
X39940838Y-71247851D01*
X39649999Y-71189999D01*
X36467098Y-71189999D01*
X36485000Y-71100000D01*
X36485000Y-61620132D01*
X37202566Y-60902566D01*
X37448603Y-60534345D01*
X37535000Y-60100000D01*
X37448603Y-59665655D01*
X37202566Y-59297434D01*
X36834345Y-59051397D01*
X36400000Y-58965000D01*
X35965655Y-59051397D01*
X35597434Y-59297434D01*
X34547434Y-60347434D01*
X34301397Y-60715654D01*
X34215000Y-61150000D01*
X34215000Y-71100000D01*
X34232902Y-71189999D01*
X32196191Y-71189999D01*
X32214093Y-71100000D01*
X32101054Y-70531715D01*
X31779147Y-70049946D01*
X31737548Y-70022150D01*
X31785317Y-70013162D01*
X32001441Y-69874090D01*
X32146431Y-69661890D01*
X32197440Y-69410000D01*
X32197440Y-67710000D01*
X32153162Y-67474683D01*
X32014090Y-67258559D01*
X31801890Y-67113569D01*
X31550000Y-67062560D01*
X29850000Y-67062560D01*
X29614683Y-67106838D01*
X29398559Y-67245910D01*
X29253569Y-67458110D01*
X29202560Y-67710000D01*
X29202560Y-69410000D01*
X29246838Y-69645317D01*
X29385910Y-69861441D01*
X29598110Y-70006431D01*
X29665541Y-70020086D01*
X29620853Y-70049946D01*
X29298946Y-70531715D01*
X29185907Y-71100000D01*
X25685000Y-71100000D01*
X25685000Y-57685000D01*
X36000000Y-57685000D01*
X36262138Y-57632857D01*
X36484368Y-57484368D01*
X36632857Y-57262138D01*
X36685000Y-57000000D01*
X36685000Y-48660462D01*
X38664422Y-48660462D01*
X39171076Y-49886658D01*
X40108407Y-50825627D01*
X41333717Y-51334420D01*
X42660462Y-51335578D01*
X43886658Y-50828924D01*
X44825627Y-49891593D01*
X45334420Y-48666283D01*
X45335578Y-47339538D01*
X44828924Y-46113342D01*
X43891593Y-45174373D01*
X42666283Y-44665580D01*
X41339538Y-44664422D01*
X40113342Y-45171076D01*
X39174373Y-46108407D01*
X38665580Y-47333717D01*
X38664422Y-48660462D01*
X36685000Y-48660462D01*
X36685000Y-32660462D01*
X38664422Y-32660462D01*
X39171076Y-33886658D01*
X40108407Y-34825627D01*
X41333717Y-35334420D01*
X42660462Y-35335578D01*
X43886658Y-34828924D01*
X44825627Y-33891593D01*
X45334420Y-32666283D01*
X45335578Y-31339538D01*
X44828924Y-30113342D01*
X43891593Y-29174373D01*
X42666283Y-28665580D01*
X41339538Y-28664422D01*
X40113342Y-29171076D01*
X39174373Y-30108407D01*
X38665580Y-31333717D01*
X38664422Y-32660462D01*
X36685000Y-32660462D01*
X36685000Y-25685000D01*
X113315000Y-25685000D01*
X113315000Y-57000000D01*
G36*
X81607000Y-94873000D02*
X81627000Y-94873000D01*
X81627000Y-95127000D01*
X81607000Y-95127000D01*
X81607000Y-96320155D01*
X81836890Y-96441476D01*
X82246924Y-96271645D01*
X82675183Y-95881358D01*
X82742298Y-95738447D01*
X82969946Y-96079147D01*
X83451715Y-96401054D01*
X84020000Y-96514093D01*
X84588285Y-96401054D01*
X85070054Y-96079147D01*
X85290000Y-95749974D01*
X85509946Y-96079147D01*
X85991715Y-96401054D01*
X86560000Y-96514093D01*
X87128285Y-96401054D01*
X87610054Y-96079147D01*
X87830000Y-95749974D01*
X88049946Y-96079147D01*
X88531715Y-96401054D01*
X89100000Y-96514093D01*
X89668285Y-96401054D01*
X90150054Y-96079147D01*
X90370000Y-95749974D01*
X90589946Y-96079147D01*
X91071715Y-96401054D01*
X91640000Y-96514093D01*
X92208285Y-96401054D01*
X92690054Y-96079147D01*
X92910000Y-95749974D01*
X93129946Y-96079147D01*
X93611715Y-96401054D01*
X94180000Y-96514093D01*
X94748285Y-96401054D01*
X95230054Y-96079147D01*
X95450000Y-95749974D01*
X95669946Y-96079147D01*
X96151715Y-96401054D01*
X96720000Y-96514093D01*
X97288285Y-96401054D01*
X97770054Y-96079147D01*
X97997702Y-95738447D01*
X98064817Y-95881358D01*
X98493076Y-96271645D01*
X98903110Y-96441476D01*
X99133000Y-96320155D01*
X99133000Y-95127000D01*
X99113000Y-95127000D01*
X99113000Y-94873000D01*
X99133000Y-94873000D01*
X99133000Y-94853000D01*
X99387000Y-94853000D01*
X99387000Y-94873000D01*
X99407000Y-94873000D01*
X99407000Y-95127000D01*
X99387000Y-95127000D01*
X99387000Y-96320155D01*
X99616890Y-96441476D01*
X99917589Y-96316930D01*
X99917589Y-96698584D01*
X94334756Y-102281417D01*
X94335578Y-101339538D01*
X93828924Y-100113342D01*
X92891593Y-99174373D01*
X91666283Y-98665580D01*
X90339538Y-98664422D01*
X89113342Y-99171076D01*
X88174373Y-100108407D01*
X87665580Y-101333717D01*
X87664422Y-102660462D01*
X88171076Y-103886658D01*
X89108407Y-104825627D01*
X90333717Y-105334420D01*
X91280926Y-105335247D01*
X86479675Y-110136498D01*
X70038502Y-110136498D01*
X69604156Y-110222895D01*
X69235936Y-110468932D01*
X67405012Y-112299856D01*
X67314090Y-112158559D01*
X67101890Y-112013569D01*
X66850000Y-111962560D01*
X65150000Y-111962560D01*
X64914683Y-112006838D01*
X64698559Y-112145910D01*
X64553569Y-112358110D01*
X64502560Y-112610000D01*
X64502560Y-114310000D01*
X64546838Y-114545317D01*
X64685910Y-114761441D01*
X64898110Y-114906431D01*
X64965541Y-114920086D01*
X64920853Y-114949946D01*
X64598946Y-115431715D01*
X64485907Y-116000000D01*
X64598946Y-116568285D01*
X64920853Y-117050054D01*
X65402622Y-117371961D01*
X65970907Y-117485000D01*
X66029093Y-117485000D01*
X66597378Y-117371961D01*
X66952016Y-117135000D01*
X67202081Y-117135000D01*
X67636427Y-117048603D01*
X68004647Y-116802566D01*
X71200704Y-113606509D01*
X87446867Y-113606509D01*
X87881213Y-113520112D01*
X88249433Y-113274075D01*
X98524039Y-102999469D01*
X98572861Y-103072537D01*
X98681897Y-103145392D01*
X98536469Y-103363041D01*
X98450072Y-103797386D01*
X98536469Y-104231731D01*
X98782506Y-104599952D01*
X99150727Y-104845989D01*
X99585072Y-104932386D01*
X100019417Y-104845989D01*
X100387638Y-104599952D01*
X105455188Y-99532402D01*
X105512113Y-99447208D01*
X105701225Y-99164182D01*
X105787622Y-98729836D01*
X105787622Y-95500998D01*
X106020853Y-95850054D01*
X106502622Y-96171961D01*
X107070907Y-96285000D01*
X107129093Y-96285000D01*
X107697378Y-96171961D01*
X108052016Y-95935000D01*
X110346029Y-95935000D01*
X110346029Y-99654603D01*
X109891593Y-99199373D01*
X108666283Y-98690580D01*
X107339538Y-98689422D01*
X106113342Y-99196076D01*
X105174373Y-100133407D01*
X104665580Y-101358717D01*
X104664422Y-102685462D01*
X105171076Y-103911658D01*
X106108407Y-104850627D01*
X107333717Y-105359420D01*
X108034836Y-105360032D01*
X101197434Y-112197434D01*
X100951397Y-112565654D01*
X100865000Y-113000000D01*
X100865000Y-117337602D01*
X100499999Y-117264999D01*
X95639999Y-117264999D01*
X95205654Y-117351395D01*
X94837433Y-117597433D01*
X94334892Y-118099974D01*
X94335578Y-117314538D01*
X93828924Y-116088342D01*
X92891593Y-115149373D01*
X91666283Y-114640580D01*
X90339538Y-114639422D01*
X89113342Y-115146076D01*
X88174373Y-116083407D01*
X87665580Y-117308717D01*
X87664422Y-118635462D01*
X88171076Y-119861658D01*
X89108407Y-120800627D01*
X90128711Y-121224294D01*
X75869285Y-121224294D01*
X76886658Y-120803924D01*
X77825627Y-119866593D01*
X78334420Y-118641283D01*
X78335578Y-117314538D01*
X77828924Y-116088342D01*
X76891593Y-115149373D01*
X75666283Y-114640580D01*
X74339538Y-114639422D01*
X73113342Y-115146076D01*
X72174373Y-116083407D01*
X71665580Y-117308717D01*
X71664422Y-118635462D01*
X72171076Y-119861658D01*
X73108407Y-120800627D01*
X74128711Y-121224294D01*
X59844285Y-121224294D01*
X60861658Y-120803924D01*
X61800627Y-119866593D01*
X62309420Y-118641283D01*
X62310578Y-117314538D01*
X61803924Y-116088342D01*
X60866593Y-115149373D01*
X59641283Y-114640580D01*
X58314538Y-114639422D01*
X57088342Y-115146076D01*
X56149373Y-116083407D01*
X55640580Y-117308717D01*
X55639422Y-118635462D01*
X56146076Y-119861658D01*
X57083407Y-120800627D01*
X58103711Y-121224294D01*
X56929426Y-121224294D01*
X54947440Y-119242308D01*
X54947440Y-119200000D01*
X54903162Y-118964683D01*
X54764090Y-118748559D01*
X54551890Y-118603569D01*
X54300000Y-118552560D01*
X52700000Y-118552560D01*
X52464683Y-118596838D01*
X52248559Y-118735910D01*
X52103569Y-118948110D01*
X52052560Y-119200000D01*
X52052560Y-119542308D01*
X51529868Y-120065000D01*
X51100000Y-120065000D01*
X50665655Y-120151396D01*
X50345976Y-120364999D01*
X49914027Y-120364999D01*
X49947440Y-120200000D01*
X49947440Y-119200000D01*
X49903162Y-118964683D01*
X49764090Y-118748559D01*
X49551890Y-118603569D01*
X49337391Y-118560132D01*
X49447208Y-118395780D01*
X49505060Y-118104940D01*
X49505060Y-98935000D01*
X57684689Y-98935000D01*
X57113342Y-99171076D01*
X56174373Y-100108407D01*
X55665580Y-101333717D01*
X55664422Y-102660462D01*
X56171076Y-103886658D01*
X57108407Y-104825627D01*
X58333717Y-105334420D01*
X59660462Y-105335578D01*
X60886658Y-104828924D01*
X61825627Y-103891593D01*
X62334420Y-102666283D01*
X62335578Y-101339538D01*
X61828924Y-100113342D01*
X60891593Y-99174373D01*
X60315119Y-98935000D01*
X60873398Y-98935000D01*
X64510279Y-102571881D01*
X64502560Y-102610000D01*
X64502560Y-104310000D01*
X64546838Y-104545317D01*
X64685910Y-104761441D01*
X64898110Y-104906431D01*
X64965541Y-104920086D01*
X64920853Y-104949946D01*
X64598946Y-105431715D01*
X64485907Y-106000000D01*
X64598946Y-106568285D01*
X64920853Y-107050054D01*
X65402622Y-107371961D01*
X65970907Y-107485000D01*
X66029093Y-107485000D01*
X66597378Y-107371961D01*
X66952016Y-107135000D01*
X67202081Y-107135000D01*
X67636427Y-107048603D01*
X68004647Y-106802566D01*
X68352567Y-106454646D01*
X68366132Y-106434345D01*
X68598604Y-106086426D01*
X68615795Y-106000000D01*
X82485907Y-106000000D01*
X82598946Y-106568285D01*
X82920853Y-107050054D01*
X83402622Y-107371961D01*
X83970907Y-107485000D01*
X84029093Y-107485000D01*
X84597378Y-107371961D01*
X85079147Y-107050054D01*
X85401054Y-106568285D01*
X85514093Y-106000000D01*
X85401054Y-105431715D01*
X85079147Y-104949946D01*
X85037548Y-104922150D01*
X85085317Y-104913162D01*
X85301441Y-104774090D01*
X85446431Y-104561890D01*
X85497440Y-104310000D01*
X85497440Y-102610000D01*
X85453162Y-102374683D01*
X85314090Y-102158559D01*
X85101890Y-102013569D01*
X84850000Y-101962560D01*
X83150000Y-101962560D01*
X82914683Y-102006838D01*
X82698559Y-102145910D01*
X82553569Y-102358110D01*
X82502560Y-102610000D01*
X82502560Y-104310000D01*
X82546838Y-104545317D01*
X82685910Y-104761441D01*
X82898110Y-104906431D01*
X82965541Y-104920086D01*
X82920853Y-104949946D01*
X82598946Y-105431715D01*
X82485907Y-106000000D01*
X68615795Y-106000000D01*
X68685001Y-105652080D01*
X68685001Y-102049999D01*
X68598604Y-101615653D01*
X68352567Y-101247433D01*
X63599171Y-96494037D01*
X63700000Y-96514093D01*
X64268285Y-96401054D01*
X64750054Y-96079147D01*
X64970000Y-95749974D01*
X65189946Y-96079147D01*
X65671715Y-96401054D01*
X66240000Y-96514093D01*
X66808285Y-96401054D01*
X67290054Y-96079147D01*
X67510000Y-95749974D01*
X67729946Y-96079147D01*
X68211715Y-96401054D01*
X68780000Y-96514093D01*
X69348285Y-96401054D01*
X69830054Y-96079147D01*
X70050000Y-95749974D01*
X70269946Y-96079147D01*
X70751715Y-96401054D01*
X71320000Y-96514093D01*
X71888285Y-96401054D01*
X72370054Y-96079147D01*
X72590000Y-95749974D01*
X72809946Y-96079147D01*
X73291715Y-96401054D01*
X73860000Y-96514093D01*
X74428285Y-96401054D01*
X74910054Y-96079147D01*
X75130000Y-95749974D01*
X75349946Y-96079147D01*
X75831715Y-96401054D01*
X76400000Y-96514093D01*
X76968285Y-96401054D01*
X77450054Y-96079147D01*
X77670000Y-95749974D01*
X77889946Y-96079147D01*
X78371715Y-96401054D01*
X78940000Y-96514093D01*
X79508285Y-96401054D01*
X79990054Y-96079147D01*
X80217702Y-95738447D01*
X80284817Y-95881358D01*
X80713076Y-96271645D01*
X81123110Y-96441476D01*
X81353000Y-96320155D01*
X81353000Y-95127000D01*
X81333000Y-95127000D01*
X81333000Y-94873000D01*
X81353000Y-94873000D01*
X81353000Y-94853000D01*
X81607000Y-94853000D01*
X81607000Y-94873000D01*
X81607000Y-94873000D01*
G37*
X81607000Y-94873000D02*
X81627000Y-94873000D01*
X81627000Y-95127000D01*
X81607000Y-95127000D01*
X81607000Y-96320155D01*
X81836890Y-96441476D01*
X82246924Y-96271645D01*
X82675183Y-95881358D01*
X82742298Y-95738447D01*
X82969946Y-96079147D01*
X83451715Y-96401054D01*
X84020000Y-96514093D01*
X84588285Y-96401054D01*
X85070054Y-96079147D01*
X85290000Y-95749974D01*
X85509946Y-96079147D01*
X85991715Y-96401054D01*
X86560000Y-96514093D01*
X87128285Y-96401054D01*
X87610054Y-96079147D01*
X87830000Y-95749974D01*
X88049946Y-96079147D01*
X88531715Y-96401054D01*
X89100000Y-96514093D01*
X89668285Y-96401054D01*
X90150054Y-96079147D01*
X90370000Y-95749974D01*
X90589946Y-96079147D01*
X91071715Y-96401054D01*
X91640000Y-96514093D01*
X92208285Y-96401054D01*
X92690054Y-96079147D01*
X92910000Y-95749974D01*
X93129946Y-96079147D01*
X93611715Y-96401054D01*
X94180000Y-96514093D01*
X94748285Y-96401054D01*
X95230054Y-96079147D01*
X95450000Y-95749974D01*
X95669946Y-96079147D01*
X96151715Y-96401054D01*
X96720000Y-96514093D01*
X97288285Y-96401054D01*
X97770054Y-96079147D01*
X97997702Y-95738447D01*
X98064817Y-95881358D01*
X98493076Y-96271645D01*
X98903110Y-96441476D01*
X99133000Y-96320155D01*
X99133000Y-95127000D01*
X99113000Y-95127000D01*
X99113000Y-94873000D01*
X99133000Y-94873000D01*
X99133000Y-94853000D01*
X99387000Y-94853000D01*
X99387000Y-94873000D01*
X99407000Y-94873000D01*
X99407000Y-95127000D01*
X99387000Y-95127000D01*
X99387000Y-96320155D01*
X99616890Y-96441476D01*
X99917589Y-96316930D01*
X99917589Y-96698584D01*
X94334756Y-102281417D01*
X94335578Y-101339538D01*
X93828924Y-100113342D01*
X92891593Y-99174373D01*
X91666283Y-98665580D01*
X90339538Y-98664422D01*
X89113342Y-99171076D01*
X88174373Y-100108407D01*
X87665580Y-101333717D01*
X87664422Y-102660462D01*
X88171076Y-103886658D01*
X89108407Y-104825627D01*
X90333717Y-105334420D01*
X91280926Y-105335247D01*
X86479675Y-110136498D01*
X70038502Y-110136498D01*
X69604156Y-110222895D01*
X69235936Y-110468932D01*
X67405012Y-112299856D01*
X67314090Y-112158559D01*
X67101890Y-112013569D01*
X66850000Y-111962560D01*
X65150000Y-111962560D01*
X64914683Y-112006838D01*
X64698559Y-112145910D01*
X64553569Y-112358110D01*
X64502560Y-112610000D01*
X64502560Y-114310000D01*
X64546838Y-114545317D01*
X64685910Y-114761441D01*
X64898110Y-114906431D01*
X64965541Y-114920086D01*
X64920853Y-114949946D01*
X64598946Y-115431715D01*
X64485907Y-116000000D01*
X64598946Y-116568285D01*
X64920853Y-117050054D01*
X65402622Y-117371961D01*
X65970907Y-117485000D01*
X66029093Y-117485000D01*
X66597378Y-117371961D01*
X66952016Y-117135000D01*
X67202081Y-117135000D01*
X67636427Y-117048603D01*
X68004647Y-116802566D01*
X71200704Y-113606509D01*
X87446867Y-113606509D01*
X87881213Y-113520112D01*
X88249433Y-113274075D01*
X98524039Y-102999469D01*
X98572861Y-103072537D01*
X98681897Y-103145392D01*
X98536469Y-103363041D01*
X98450072Y-103797386D01*
X98536469Y-104231731D01*
X98782506Y-104599952D01*
X99150727Y-104845989D01*
X99585072Y-104932386D01*
X100019417Y-104845989D01*
X100387638Y-104599952D01*
X105455188Y-99532402D01*
X105512113Y-99447208D01*
X105701225Y-99164182D01*
X105787622Y-98729836D01*
X105787622Y-95500998D01*
X106020853Y-95850054D01*
X106502622Y-96171961D01*
X107070907Y-96285000D01*
X107129093Y-96285000D01*
X107697378Y-96171961D01*
X108052016Y-95935000D01*
X110346029Y-95935000D01*
X110346029Y-99654603D01*
X109891593Y-99199373D01*
X108666283Y-98690580D01*
X107339538Y-98689422D01*
X106113342Y-99196076D01*
X105174373Y-100133407D01*
X104665580Y-101358717D01*
X104664422Y-102685462D01*
X105171076Y-103911658D01*
X106108407Y-104850627D01*
X107333717Y-105359420D01*
X108034836Y-105360032D01*
X101197434Y-112197434D01*
X100951397Y-112565654D01*
X100865000Y-113000000D01*
X100865000Y-117337602D01*
X100499999Y-117264999D01*
X95639999Y-117264999D01*
X95205654Y-117351395D01*
X94837433Y-117597433D01*
X94334892Y-118099974D01*
X94335578Y-117314538D01*
X93828924Y-116088342D01*
X92891593Y-115149373D01*
X91666283Y-114640580D01*
X90339538Y-114639422D01*
X89113342Y-115146076D01*
X88174373Y-116083407D01*
X87665580Y-117308717D01*
X87664422Y-118635462D01*
X88171076Y-119861658D01*
X89108407Y-120800627D01*
X90128711Y-121224294D01*
X75869285Y-121224294D01*
X76886658Y-120803924D01*
X77825627Y-119866593D01*
X78334420Y-118641283D01*
X78335578Y-117314538D01*
X77828924Y-116088342D01*
X76891593Y-115149373D01*
X75666283Y-114640580D01*
X74339538Y-114639422D01*
X73113342Y-115146076D01*
X72174373Y-116083407D01*
X71665580Y-117308717D01*
X71664422Y-118635462D01*
X72171076Y-119861658D01*
X73108407Y-120800627D01*
X74128711Y-121224294D01*
X59844285Y-121224294D01*
X60861658Y-120803924D01*
X61800627Y-119866593D01*
X62309420Y-118641283D01*
X62310578Y-117314538D01*
X61803924Y-116088342D01*
X60866593Y-115149373D01*
X59641283Y-114640580D01*
X58314538Y-114639422D01*
X57088342Y-115146076D01*
X56149373Y-116083407D01*
X55640580Y-117308717D01*
X55639422Y-118635462D01*
X56146076Y-119861658D01*
X57083407Y-120800627D01*
X58103711Y-121224294D01*
X56929426Y-121224294D01*
X54947440Y-119242308D01*
X54947440Y-119200000D01*
X54903162Y-118964683D01*
X54764090Y-118748559D01*
X54551890Y-118603569D01*
X54300000Y-118552560D01*
X52700000Y-118552560D01*
X52464683Y-118596838D01*
X52248559Y-118735910D01*
X52103569Y-118948110D01*
X52052560Y-119200000D01*
X52052560Y-119542308D01*
X51529868Y-120065000D01*
X51100000Y-120065000D01*
X50665655Y-120151396D01*
X50345976Y-120364999D01*
X49914027Y-120364999D01*
X49947440Y-120200000D01*
X49947440Y-119200000D01*
X49903162Y-118964683D01*
X49764090Y-118748559D01*
X49551890Y-118603569D01*
X49337391Y-118560132D01*
X49447208Y-118395780D01*
X49505060Y-118104940D01*
X49505060Y-98935000D01*
X57684689Y-98935000D01*
X57113342Y-99171076D01*
X56174373Y-100108407D01*
X55665580Y-101333717D01*
X55664422Y-102660462D01*
X56171076Y-103886658D01*
X57108407Y-104825627D01*
X58333717Y-105334420D01*
X59660462Y-105335578D01*
X60886658Y-104828924D01*
X61825627Y-103891593D01*
X62334420Y-102666283D01*
X62335578Y-101339538D01*
X61828924Y-100113342D01*
X60891593Y-99174373D01*
X60315119Y-98935000D01*
X60873398Y-98935000D01*
X64510279Y-102571881D01*
X64502560Y-102610000D01*
X64502560Y-104310000D01*
X64546838Y-104545317D01*
X64685910Y-104761441D01*
X64898110Y-104906431D01*
X64965541Y-104920086D01*
X64920853Y-104949946D01*
X64598946Y-105431715D01*
X64485907Y-106000000D01*
X64598946Y-106568285D01*
X64920853Y-107050054D01*
X65402622Y-107371961D01*
X65970907Y-107485000D01*
X66029093Y-107485000D01*
X66597378Y-107371961D01*
X66952016Y-107135000D01*
X67202081Y-107135000D01*
X67636427Y-107048603D01*
X68004647Y-106802566D01*
X68352567Y-106454646D01*
X68366132Y-106434345D01*
X68598604Y-106086426D01*
X68615795Y-106000000D01*
X82485907Y-106000000D01*
X82598946Y-106568285D01*
X82920853Y-107050054D01*
X83402622Y-107371961D01*
X83970907Y-107485000D01*
X84029093Y-107485000D01*
X84597378Y-107371961D01*
X85079147Y-107050054D01*
X85401054Y-106568285D01*
X85514093Y-106000000D01*
X85401054Y-105431715D01*
X85079147Y-104949946D01*
X85037548Y-104922150D01*
X85085317Y-104913162D01*
X85301441Y-104774090D01*
X85446431Y-104561890D01*
X85497440Y-104310000D01*
X85497440Y-102610000D01*
X85453162Y-102374683D01*
X85314090Y-102158559D01*
X85101890Y-102013569D01*
X84850000Y-101962560D01*
X83150000Y-101962560D01*
X82914683Y-102006838D01*
X82698559Y-102145910D01*
X82553569Y-102358110D01*
X82502560Y-102610000D01*
X82502560Y-104310000D01*
X82546838Y-104545317D01*
X82685910Y-104761441D01*
X82898110Y-104906431D01*
X82965541Y-104920086D01*
X82920853Y-104949946D01*
X82598946Y-105431715D01*
X82485907Y-106000000D01*
X68615795Y-106000000D01*
X68685001Y-105652080D01*
X68685001Y-102049999D01*
X68598604Y-101615653D01*
X68352567Y-101247433D01*
X63599171Y-96494037D01*
X63700000Y-96514093D01*
X64268285Y-96401054D01*
X64750054Y-96079147D01*
X64970000Y-95749974D01*
X65189946Y-96079147D01*
X65671715Y-96401054D01*
X66240000Y-96514093D01*
X66808285Y-96401054D01*
X67290054Y-96079147D01*
X67510000Y-95749974D01*
X67729946Y-96079147D01*
X68211715Y-96401054D01*
X68780000Y-96514093D01*
X69348285Y-96401054D01*
X69830054Y-96079147D01*
X70050000Y-95749974D01*
X70269946Y-96079147D01*
X70751715Y-96401054D01*
X71320000Y-96514093D01*
X71888285Y-96401054D01*
X72370054Y-96079147D01*
X72590000Y-95749974D01*
X72809946Y-96079147D01*
X73291715Y-96401054D01*
X73860000Y-96514093D01*
X74428285Y-96401054D01*
X74910054Y-96079147D01*
X75130000Y-95749974D01*
X75349946Y-96079147D01*
X75831715Y-96401054D01*
X76400000Y-96514093D01*
X76968285Y-96401054D01*
X77450054Y-96079147D01*
X77670000Y-95749974D01*
X77889946Y-96079147D01*
X78371715Y-96401054D01*
X78940000Y-96514093D01*
X79508285Y-96401054D01*
X79990054Y-96079147D01*
X80217702Y-95738447D01*
X80284817Y-95881358D01*
X80713076Y-96271645D01*
X81123110Y-96441476D01*
X81353000Y-96320155D01*
X81353000Y-95127000D01*
X81333000Y-95127000D01*
X81333000Y-94873000D01*
X81353000Y-94873000D01*
X81353000Y-94853000D01*
X81607000Y-94853000D01*
X81607000Y-94873000D01*
G36*
X62364878Y-83039680D02*
X62364838Y-83085167D01*
X62506883Y-83428943D01*
X62769673Y-83692192D01*
X63113201Y-83834838D01*
X63485167Y-83835162D01*
X63665208Y-83760771D01*
X63664786Y-84244579D01*
X63852408Y-84698657D01*
X64153446Y-85000221D01*
X63853629Y-85299515D01*
X63665215Y-85753266D01*
X63664786Y-86244579D01*
X63852408Y-86698657D01*
X64199515Y-87046371D01*
X64233715Y-87060572D01*
X64216870Y-87137265D01*
X64900000Y-87820395D01*
X64914143Y-87806253D01*
X65065001Y-87957111D01*
X65065001Y-88042889D01*
X64914143Y-88193748D01*
X64900000Y-88179605D01*
X64885858Y-88193748D01*
X64706253Y-88014143D01*
X64720395Y-88000000D01*
X64037265Y-87316870D01*
X63811836Y-87366383D01*
X63652193Y-87831036D01*
X63682518Y-88321413D01*
X63783414Y-88565000D01*
X60134857Y-88565000D01*
X60135162Y-88214833D01*
X59993117Y-87871057D01*
X59730327Y-87607808D01*
X59386799Y-87465162D01*
X59339923Y-87465121D01*
X58300689Y-86425887D01*
X58407912Y-86167665D01*
X58408236Y-85795699D01*
X58279280Y-85483600D01*
X58385532Y-85227718D01*
X58385856Y-84855752D01*
X58243811Y-84511976D01*
X57981021Y-84248727D01*
X57637493Y-84106081D01*
X57265527Y-84105757D01*
X56921751Y-84247802D01*
X56658502Y-84510592D01*
X56515856Y-84854120D01*
X56515815Y-84900996D01*
X56176394Y-85240417D01*
X56011647Y-85486979D01*
X55953795Y-85777818D01*
X55953795Y-87113795D01*
X56011647Y-87404634D01*
X56176394Y-87651196D01*
X57090198Y-88565000D01*
X50597070Y-88565000D01*
X50546857Y-88574988D01*
X49758939Y-88574988D01*
X49324593Y-88661385D01*
X48971321Y-88897434D01*
X48956373Y-88907422D01*
X47447422Y-90416373D01*
X47201385Y-90784593D01*
X47114988Y-91218939D01*
X47114988Y-96040186D01*
X37935122Y-86860320D01*
X37935162Y-86814833D01*
X37793117Y-86471057D01*
X37530327Y-86207808D01*
X37186799Y-86065162D01*
X36984999Y-86064986D01*
X36984999Y-84697440D01*
X38250000Y-84697440D01*
X38485317Y-84653162D01*
X38701441Y-84514090D01*
X38716804Y-84491606D01*
X38972600Y-84747402D01*
X39219162Y-84912149D01*
X39510001Y-84970001D01*
X43907829Y-84970001D01*
X43707808Y-85169673D01*
X43565162Y-85513201D01*
X43564838Y-85885167D01*
X43706883Y-86228943D01*
X43969673Y-86492192D01*
X44313201Y-86634838D01*
X44685167Y-86635162D01*
X45028943Y-86493117D01*
X45062118Y-86460000D01*
X45741413Y-86460000D01*
X46032252Y-86402148D01*
X46278814Y-86237401D01*
X47501149Y-85015066D01*
X47506883Y-85028943D01*
X47769673Y-85292192D01*
X48113201Y-85434838D01*
X48485167Y-85435162D01*
X48828943Y-85293117D01*
X48862118Y-85260000D01*
X51405002Y-85260000D01*
X51695841Y-85202148D01*
X51942403Y-85037401D01*
X54909793Y-82070011D01*
X58460910Y-82070011D01*
X61543863Y-85152964D01*
X61543823Y-85198451D01*
X61685868Y-85542227D01*
X61948658Y-85805476D01*
X62292186Y-85948122D01*
X62664152Y-85948446D01*
X63007928Y-85806401D01*
X63271177Y-85543611D01*
X63413823Y-85200083D01*
X63414147Y-84828117D01*
X63272102Y-84484341D01*
X63009312Y-84221092D01*
X62665784Y-84078446D01*
X62618908Y-84078405D01*
X60160503Y-81620000D01*
X60945198Y-81620000D01*
X62364878Y-83039680D01*
X62364878Y-83039680D01*
G37*
X62364878Y-83039680D02*
X62364838Y-83085167D01*
X62506883Y-83428943D01*
X62769673Y-83692192D01*
X63113201Y-83834838D01*
X63485167Y-83835162D01*
X63665208Y-83760771D01*
X63664786Y-84244579D01*
X63852408Y-84698657D01*
X64153446Y-85000221D01*
X63853629Y-85299515D01*
X63665215Y-85753266D01*
X63664786Y-86244579D01*
X63852408Y-86698657D01*
X64199515Y-87046371D01*
X64233715Y-87060572D01*
X64216870Y-87137265D01*
X64900000Y-87820395D01*
X64914143Y-87806253D01*
X65065001Y-87957111D01*
X65065001Y-88042889D01*
X64914143Y-88193748D01*
X64900000Y-88179605D01*
X64885858Y-88193748D01*
X64706253Y-88014143D01*
X64720395Y-88000000D01*
X64037265Y-87316870D01*
X63811836Y-87366383D01*
X63652193Y-87831036D01*
X63682518Y-88321413D01*
X63783414Y-88565000D01*
X60134857Y-88565000D01*
X60135162Y-88214833D01*
X59993117Y-87871057D01*
X59730327Y-87607808D01*
X59386799Y-87465162D01*
X59339923Y-87465121D01*
X58300689Y-86425887D01*
X58407912Y-86167665D01*
X58408236Y-85795699D01*
X58279280Y-85483600D01*
X58385532Y-85227718D01*
X58385856Y-84855752D01*
X58243811Y-84511976D01*
X57981021Y-84248727D01*
X57637493Y-84106081D01*
X57265527Y-84105757D01*
X56921751Y-84247802D01*
X56658502Y-84510592D01*
X56515856Y-84854120D01*
X56515815Y-84900996D01*
X56176394Y-85240417D01*
X56011647Y-85486979D01*
X55953795Y-85777818D01*
X55953795Y-87113795D01*
X56011647Y-87404634D01*
X56176394Y-87651196D01*
X57090198Y-88565000D01*
X50597070Y-88565000D01*
X50546857Y-88574988D01*
X49758939Y-88574988D01*
X49324593Y-88661385D01*
X48971321Y-88897434D01*
X48956373Y-88907422D01*
X47447422Y-90416373D01*
X47201385Y-90784593D01*
X47114988Y-91218939D01*
X47114988Y-96040186D01*
X37935122Y-86860320D01*
X37935162Y-86814833D01*
X37793117Y-86471057D01*
X37530327Y-86207808D01*
X37186799Y-86065162D01*
X36984999Y-86064986D01*
X36984999Y-84697440D01*
X38250000Y-84697440D01*
X38485317Y-84653162D01*
X38701441Y-84514090D01*
X38716804Y-84491606D01*
X38972600Y-84747402D01*
X39219162Y-84912149D01*
X39510001Y-84970001D01*
X43907829Y-84970001D01*
X43707808Y-85169673D01*
X43565162Y-85513201D01*
X43564838Y-85885167D01*
X43706883Y-86228943D01*
X43969673Y-86492192D01*
X44313201Y-86634838D01*
X44685167Y-86635162D01*
X45028943Y-86493117D01*
X45062118Y-86460000D01*
X45741413Y-86460000D01*
X46032252Y-86402148D01*
X46278814Y-86237401D01*
X47501149Y-85015066D01*
X47506883Y-85028943D01*
X47769673Y-85292192D01*
X48113201Y-85434838D01*
X48485167Y-85435162D01*
X48828943Y-85293117D01*
X48862118Y-85260000D01*
X51405002Y-85260000D01*
X51695841Y-85202148D01*
X51942403Y-85037401D01*
X54909793Y-82070011D01*
X58460910Y-82070011D01*
X61543863Y-85152964D01*
X61543823Y-85198451D01*
X61685868Y-85542227D01*
X61948658Y-85805476D01*
X62292186Y-85948122D01*
X62664152Y-85948446D01*
X63007928Y-85806401D01*
X63271177Y-85543611D01*
X63413823Y-85200083D01*
X63414147Y-84828117D01*
X63272102Y-84484341D01*
X63009312Y-84221092D01*
X62665784Y-84078446D01*
X62618908Y-84078405D01*
X60160503Y-81620000D01*
X60945198Y-81620000D01*
X62364878Y-83039680D01*
G36*
X61287000Y-94873000D02*
X61307000Y-94873000D01*
X61307000Y-95127000D01*
X61287000Y-95127000D01*
X61287000Y-95147000D01*
X61033000Y-95147000D01*
X61033000Y-95127000D01*
X61013000Y-95127000D01*
X61013000Y-94873000D01*
X61033000Y-94873000D01*
X61033000Y-94853000D01*
X61287000Y-94853000D01*
X61287000Y-94873000D01*
X61287000Y-94873000D01*
G37*
X61287000Y-94873000D02*
X61307000Y-94873000D01*
X61307000Y-95127000D01*
X61287000Y-95127000D01*
X61287000Y-95147000D01*
X61033000Y-95147000D01*
X61033000Y-95127000D01*
X61013000Y-95127000D01*
X61013000Y-94873000D01*
X61033000Y-94873000D01*
X61033000Y-94853000D01*
X61287000Y-94853000D01*
X61287000Y-94873000D01*
G36*
X78914977Y-56014252D02*
X78914977Y-61225975D01*
X79001374Y-61660321D01*
X79184471Y-61934345D01*
X79247411Y-62028541D01*
X86186297Y-68967427D01*
X85853629Y-69299515D01*
X85665215Y-69753266D01*
X85664786Y-70244579D01*
X85852408Y-70698657D01*
X86153446Y-71000221D01*
X85853629Y-71299515D01*
X85665215Y-71753266D01*
X85664786Y-72244579D01*
X85852408Y-72698657D01*
X86153446Y-73000221D01*
X85853629Y-73299515D01*
X85665215Y-73753266D01*
X85664786Y-74244579D01*
X85852408Y-74698657D01*
X86153446Y-75000221D01*
X85853629Y-75299515D01*
X85665215Y-75753266D01*
X85664786Y-76244579D01*
X85852408Y-76698657D01*
X86153446Y-77000221D01*
X85853629Y-77299515D01*
X85665215Y-77753266D01*
X85664786Y-78244579D01*
X85852408Y-78698657D01*
X86153446Y-79000221D01*
X85853629Y-79299515D01*
X85665215Y-79753266D01*
X85664786Y-80244579D01*
X85852408Y-80698657D01*
X86153446Y-81000221D01*
X85853629Y-81299515D01*
X85665215Y-81753266D01*
X85664786Y-82244579D01*
X85852408Y-82698657D01*
X86153446Y-83000221D01*
X85853629Y-83299515D01*
X85665215Y-83753266D01*
X85664786Y-84244579D01*
X85852408Y-84698657D01*
X86153446Y-85000221D01*
X85853629Y-85299515D01*
X85665215Y-85753266D01*
X85664786Y-86244579D01*
X85852408Y-86698657D01*
X86153446Y-87000221D01*
X85853629Y-87299515D01*
X85665215Y-87753266D01*
X85664786Y-88244579D01*
X85852408Y-88698657D01*
X86199515Y-89046371D01*
X86653266Y-89234785D01*
X87144579Y-89235214D01*
X87598657Y-89047592D01*
X87946371Y-88700485D01*
X88134785Y-88246734D01*
X88135214Y-87755421D01*
X87947592Y-87301343D01*
X87646554Y-86999779D01*
X87946371Y-86700485D01*
X87972777Y-86636890D01*
X91858524Y-86636890D01*
X92028355Y-87046924D01*
X92418642Y-87475183D01*
X92943108Y-87721486D01*
X93173000Y-87600819D01*
X93173000Y-86407000D01*
X93427000Y-86407000D01*
X93427000Y-87600819D01*
X93656892Y-87721486D01*
X94181358Y-87475183D01*
X94571645Y-87046924D01*
X94741476Y-86636890D01*
X94620155Y-86407000D01*
X93427000Y-86407000D01*
X93173000Y-86407000D01*
X91979845Y-86407000D01*
X91858524Y-86636890D01*
X87972777Y-86636890D01*
X88134785Y-86246734D01*
X88135214Y-85755421D01*
X87947592Y-85301343D01*
X87646554Y-84999779D01*
X87946371Y-84700485D01*
X88134785Y-84246734D01*
X88135214Y-83755421D01*
X88128843Y-83740000D01*
X91785907Y-83740000D01*
X91898946Y-84308285D01*
X92220853Y-84790054D01*
X92561553Y-85017702D01*
X92418642Y-85084817D01*
X92028355Y-85513076D01*
X91858524Y-85923110D01*
X91979845Y-86153000D01*
X93173000Y-86153000D01*
X93173000Y-86133000D01*
X93427000Y-86133000D01*
X93427000Y-86153000D01*
X94620155Y-86153000D01*
X94741476Y-85923110D01*
X94571645Y-85513076D01*
X94181358Y-85084817D01*
X94038447Y-85017702D01*
X94379147Y-84790054D01*
X94701054Y-84308285D01*
X94814093Y-83740000D01*
X94701054Y-83171715D01*
X94379147Y-82689946D01*
X94337548Y-82662150D01*
X94385317Y-82653162D01*
X94601441Y-82514090D01*
X94746431Y-82301890D01*
X94797440Y-82050000D01*
X94797440Y-80350000D01*
X94753162Y-80114683D01*
X94614090Y-79898559D01*
X94401890Y-79753569D01*
X94150000Y-79702560D01*
X92450000Y-79702560D01*
X92214683Y-79746838D01*
X91998559Y-79885910D01*
X91853569Y-80098110D01*
X91802560Y-80350000D01*
X91802560Y-82050000D01*
X91846838Y-82285317D01*
X91985910Y-82501441D01*
X92198110Y-82646431D01*
X92265541Y-82660086D01*
X92220853Y-82689946D01*
X91898946Y-83171715D01*
X91785907Y-83740000D01*
X88128843Y-83740000D01*
X87947592Y-83301343D01*
X87646554Y-82999779D01*
X87946371Y-82700485D01*
X88134785Y-82246734D01*
X88135214Y-81755421D01*
X87947592Y-81301343D01*
X87646554Y-80999779D01*
X87946371Y-80700485D01*
X88134785Y-80246734D01*
X88135214Y-79755421D01*
X87947592Y-79301343D01*
X87646554Y-78999779D01*
X87946371Y-78700485D01*
X88134785Y-78246734D01*
X88135214Y-77755421D01*
X87947592Y-77301343D01*
X87646554Y-76999779D01*
X87946371Y-76700485D01*
X88134785Y-76246734D01*
X88135214Y-75755421D01*
X87947592Y-75301343D01*
X87646554Y-74999779D01*
X87946371Y-74700485D01*
X88134785Y-74246734D01*
X88135214Y-73755421D01*
X87947592Y-73301343D01*
X87646554Y-72999779D01*
X87946371Y-72700485D01*
X88134785Y-72246734D01*
X88135214Y-71755421D01*
X87947592Y-71301343D01*
X87646554Y-70999779D01*
X87932851Y-70713981D01*
X97649099Y-80430229D01*
X97677388Y-80472567D01*
X97697433Y-80502566D01*
X99917589Y-82722722D01*
X99917589Y-91118617D01*
X99828285Y-91058946D01*
X99260000Y-90945907D01*
X98691715Y-91058946D01*
X98209946Y-91380853D01*
X97990000Y-91710026D01*
X97770054Y-91380853D01*
X97288285Y-91058946D01*
X96720000Y-90945907D01*
X96151715Y-91058946D01*
X95669946Y-91380853D01*
X95450000Y-91710026D01*
X95230054Y-91380853D01*
X94748285Y-91058946D01*
X94180000Y-90945907D01*
X93611715Y-91058946D01*
X93129946Y-91380853D01*
X92902298Y-91721553D01*
X92835183Y-91578642D01*
X92406924Y-91188355D01*
X91996890Y-91018524D01*
X91767000Y-91139845D01*
X91767000Y-92333000D01*
X91787000Y-92333000D01*
X91787000Y-92587000D01*
X91767000Y-92587000D01*
X91767000Y-92607000D01*
X91513000Y-92607000D01*
X91513000Y-92587000D01*
X91493000Y-92587000D01*
X91493000Y-92333000D01*
X91513000Y-92333000D01*
X91513000Y-91139845D01*
X91283110Y-91018524D01*
X90873076Y-91188355D01*
X90444817Y-91578642D01*
X90377702Y-91721553D01*
X90150054Y-91380853D01*
X89668285Y-91058946D01*
X89100000Y-90945907D01*
X88531715Y-91058946D01*
X88049946Y-91380853D01*
X87822298Y-91721553D01*
X87755183Y-91578642D01*
X87326924Y-91188355D01*
X86916890Y-91018524D01*
X86687000Y-91139845D01*
X86687000Y-92333000D01*
X86707000Y-92333000D01*
X86707000Y-92587000D01*
X86687000Y-92587000D01*
X86687000Y-92607000D01*
X86433000Y-92607000D01*
X86433000Y-92587000D01*
X86413000Y-92587000D01*
X86413000Y-92333000D01*
X86433000Y-92333000D01*
X86433000Y-91139845D01*
X86203110Y-91018524D01*
X85793076Y-91188355D01*
X85364817Y-91578642D01*
X85297702Y-91721553D01*
X85070054Y-91380853D01*
X84588285Y-91058946D01*
X84020000Y-90945907D01*
X83686956Y-91012154D01*
X75037401Y-82362599D01*
X74790839Y-82197852D01*
X74500000Y-82140000D01*
X70962463Y-82140000D01*
X70930327Y-82107808D01*
X70586799Y-81965162D01*
X70214833Y-81964838D01*
X69871057Y-82106883D01*
X69607808Y-82369673D01*
X69535001Y-82545011D01*
X69535001Y-71611383D01*
X69755676Y-71520202D01*
X69981530Y-71613985D01*
X70353496Y-71614309D01*
X70697272Y-71472264D01*
X70960521Y-71209474D01*
X71103167Y-70865946D01*
X71103491Y-70493980D01*
X70961446Y-70150204D01*
X70698656Y-69886955D01*
X70355128Y-69744309D01*
X70308252Y-69744268D01*
X69440649Y-68876665D01*
X69440649Y-63258100D01*
X70552092Y-62146657D01*
X70597579Y-62146697D01*
X70941355Y-62004652D01*
X71204604Y-61741862D01*
X71347250Y-61398334D01*
X71347574Y-61026368D01*
X71205529Y-60682592D01*
X70942739Y-60419343D01*
X70599211Y-60276697D01*
X70227245Y-60276373D01*
X69883469Y-60418418D01*
X69800200Y-60501542D01*
X69581345Y-60410665D01*
X69209379Y-60410341D01*
X68865603Y-60552386D01*
X68602354Y-60815176D01*
X68540627Y-60963830D01*
X68540627Y-51564505D01*
X69502566Y-50602566D01*
X69748603Y-50234345D01*
X69835000Y-49800000D01*
X69748603Y-49365655D01*
X69502566Y-48997434D01*
X69134345Y-48751397D01*
X68700000Y-48665000D01*
X68685001Y-48667984D01*
X68685001Y-46010001D01*
X68628952Y-45728227D01*
X78914977Y-56014252D01*
X78914977Y-56014252D01*
G37*
X78914977Y-56014252D02*
X78914977Y-61225975D01*
X79001374Y-61660321D01*
X79184471Y-61934345D01*
X79247411Y-62028541D01*
X86186297Y-68967427D01*
X85853629Y-69299515D01*
X85665215Y-69753266D01*
X85664786Y-70244579D01*
X85852408Y-70698657D01*
X86153446Y-71000221D01*
X85853629Y-71299515D01*
X85665215Y-71753266D01*
X85664786Y-72244579D01*
X85852408Y-72698657D01*
X86153446Y-73000221D01*
X85853629Y-73299515D01*
X85665215Y-73753266D01*
X85664786Y-74244579D01*
X85852408Y-74698657D01*
X86153446Y-75000221D01*
X85853629Y-75299515D01*
X85665215Y-75753266D01*
X85664786Y-76244579D01*
X85852408Y-76698657D01*
X86153446Y-77000221D01*
X85853629Y-77299515D01*
X85665215Y-77753266D01*
X85664786Y-78244579D01*
X85852408Y-78698657D01*
X86153446Y-79000221D01*
X85853629Y-79299515D01*
X85665215Y-79753266D01*
X85664786Y-80244579D01*
X85852408Y-80698657D01*
X86153446Y-81000221D01*
X85853629Y-81299515D01*
X85665215Y-81753266D01*
X85664786Y-82244579D01*
X85852408Y-82698657D01*
X86153446Y-83000221D01*
X85853629Y-83299515D01*
X85665215Y-83753266D01*
X85664786Y-84244579D01*
X85852408Y-84698657D01*
X86153446Y-85000221D01*
X85853629Y-85299515D01*
X85665215Y-85753266D01*
X85664786Y-86244579D01*
X85852408Y-86698657D01*
X86153446Y-87000221D01*
X85853629Y-87299515D01*
X85665215Y-87753266D01*
X85664786Y-88244579D01*
X85852408Y-88698657D01*
X86199515Y-89046371D01*
X86653266Y-89234785D01*
X87144579Y-89235214D01*
X87598657Y-89047592D01*
X87946371Y-88700485D01*
X88134785Y-88246734D01*
X88135214Y-87755421D01*
X87947592Y-87301343D01*
X87646554Y-86999779D01*
X87946371Y-86700485D01*
X87972777Y-86636890D01*
X91858524Y-86636890D01*
X92028355Y-87046924D01*
X92418642Y-87475183D01*
X92943108Y-87721486D01*
X93173000Y-87600819D01*
X93173000Y-86407000D01*
X93427000Y-86407000D01*
X93427000Y-87600819D01*
X93656892Y-87721486D01*
X94181358Y-87475183D01*
X94571645Y-87046924D01*
X94741476Y-86636890D01*
X94620155Y-86407000D01*
X93427000Y-86407000D01*
X93173000Y-86407000D01*
X91979845Y-86407000D01*
X91858524Y-86636890D01*
X87972777Y-86636890D01*
X88134785Y-86246734D01*
X88135214Y-85755421D01*
X87947592Y-85301343D01*
X87646554Y-84999779D01*
X87946371Y-84700485D01*
X88134785Y-84246734D01*
X88135214Y-83755421D01*
X88128843Y-83740000D01*
X91785907Y-83740000D01*
X91898946Y-84308285D01*
X92220853Y-84790054D01*
X92561553Y-85017702D01*
X92418642Y-85084817D01*
X92028355Y-85513076D01*
X91858524Y-85923110D01*
X91979845Y-86153000D01*
X93173000Y-86153000D01*
X93173000Y-86133000D01*
X93427000Y-86133000D01*
X93427000Y-86153000D01*
X94620155Y-86153000D01*
X94741476Y-85923110D01*
X94571645Y-85513076D01*
X94181358Y-85084817D01*
X94038447Y-85017702D01*
X94379147Y-84790054D01*
X94701054Y-84308285D01*
X94814093Y-83740000D01*
X94701054Y-83171715D01*
X94379147Y-82689946D01*
X94337548Y-82662150D01*
X94385317Y-82653162D01*
X94601441Y-82514090D01*
X94746431Y-82301890D01*
X94797440Y-82050000D01*
X94797440Y-80350000D01*
X94753162Y-80114683D01*
X94614090Y-79898559D01*
X94401890Y-79753569D01*
X94150000Y-79702560D01*
X92450000Y-79702560D01*
X92214683Y-79746838D01*
X91998559Y-79885910D01*
X91853569Y-80098110D01*
X91802560Y-80350000D01*
X91802560Y-82050000D01*
X91846838Y-82285317D01*
X91985910Y-82501441D01*
X92198110Y-82646431D01*
X92265541Y-82660086D01*
X92220853Y-82689946D01*
X91898946Y-83171715D01*
X91785907Y-83740000D01*
X88128843Y-83740000D01*
X87947592Y-83301343D01*
X87646554Y-82999779D01*
X87946371Y-82700485D01*
X88134785Y-82246734D01*
X88135214Y-81755421D01*
X87947592Y-81301343D01*
X87646554Y-80999779D01*
X87946371Y-80700485D01*
X88134785Y-80246734D01*
X88135214Y-79755421D01*
X87947592Y-79301343D01*
X87646554Y-78999779D01*
X87946371Y-78700485D01*
X88134785Y-78246734D01*
X88135214Y-77755421D01*
X87947592Y-77301343D01*
X87646554Y-76999779D01*
X87946371Y-76700485D01*
X88134785Y-76246734D01*
X88135214Y-75755421D01*
X87947592Y-75301343D01*
X87646554Y-74999779D01*
X87946371Y-74700485D01*
X88134785Y-74246734D01*
X88135214Y-73755421D01*
X87947592Y-73301343D01*
X87646554Y-72999779D01*
X87946371Y-72700485D01*
X88134785Y-72246734D01*
X88135214Y-71755421D01*
X87947592Y-71301343D01*
X87646554Y-70999779D01*
X87932851Y-70713981D01*
X97649099Y-80430229D01*
X97677388Y-80472567D01*
X97697433Y-80502566D01*
X99917589Y-82722722D01*
X99917589Y-91118617D01*
X99828285Y-91058946D01*
X99260000Y-90945907D01*
X98691715Y-91058946D01*
X98209946Y-91380853D01*
X97990000Y-91710026D01*
X97770054Y-91380853D01*
X97288285Y-91058946D01*
X96720000Y-90945907D01*
X96151715Y-91058946D01*
X95669946Y-91380853D01*
X95450000Y-91710026D01*
X95230054Y-91380853D01*
X94748285Y-91058946D01*
X94180000Y-90945907D01*
X93611715Y-91058946D01*
X93129946Y-91380853D01*
X92902298Y-91721553D01*
X92835183Y-91578642D01*
X92406924Y-91188355D01*
X91996890Y-91018524D01*
X91767000Y-91139845D01*
X91767000Y-92333000D01*
X91787000Y-92333000D01*
X91787000Y-92587000D01*
X91767000Y-92587000D01*
X91767000Y-92607000D01*
X91513000Y-92607000D01*
X91513000Y-92587000D01*
X91493000Y-92587000D01*
X91493000Y-92333000D01*
X91513000Y-92333000D01*
X91513000Y-91139845D01*
X91283110Y-91018524D01*
X90873076Y-91188355D01*
X90444817Y-91578642D01*
X90377702Y-91721553D01*
X90150054Y-91380853D01*
X89668285Y-91058946D01*
X89100000Y-90945907D01*
X88531715Y-91058946D01*
X88049946Y-91380853D01*
X87822298Y-91721553D01*
X87755183Y-91578642D01*
X87326924Y-91188355D01*
X86916890Y-91018524D01*
X86687000Y-91139845D01*
X86687000Y-92333000D01*
X86707000Y-92333000D01*
X86707000Y-92587000D01*
X86687000Y-92587000D01*
X86687000Y-92607000D01*
X86433000Y-92607000D01*
X86433000Y-92587000D01*
X86413000Y-92587000D01*
X86413000Y-92333000D01*
X86433000Y-92333000D01*
X86433000Y-91139845D01*
X86203110Y-91018524D01*
X85793076Y-91188355D01*
X85364817Y-91578642D01*
X85297702Y-91721553D01*
X85070054Y-91380853D01*
X84588285Y-91058946D01*
X84020000Y-90945907D01*
X83686956Y-91012154D01*
X75037401Y-82362599D01*
X74790839Y-82197852D01*
X74500000Y-82140000D01*
X70962463Y-82140000D01*
X70930327Y-82107808D01*
X70586799Y-81965162D01*
X70214833Y-81964838D01*
X69871057Y-82106883D01*
X69607808Y-82369673D01*
X69535001Y-82545011D01*
X69535001Y-71611383D01*
X69755676Y-71520202D01*
X69981530Y-71613985D01*
X70353496Y-71614309D01*
X70697272Y-71472264D01*
X70960521Y-71209474D01*
X71103167Y-70865946D01*
X71103491Y-70493980D01*
X70961446Y-70150204D01*
X70698656Y-69886955D01*
X70355128Y-69744309D01*
X70308252Y-69744268D01*
X69440649Y-68876665D01*
X69440649Y-63258100D01*
X70552092Y-62146657D01*
X70597579Y-62146697D01*
X70941355Y-62004652D01*
X71204604Y-61741862D01*
X71347250Y-61398334D01*
X71347574Y-61026368D01*
X71205529Y-60682592D01*
X70942739Y-60419343D01*
X70599211Y-60276697D01*
X70227245Y-60276373D01*
X69883469Y-60418418D01*
X69800200Y-60501542D01*
X69581345Y-60410665D01*
X69209379Y-60410341D01*
X68865603Y-60552386D01*
X68602354Y-60815176D01*
X68540627Y-60963830D01*
X68540627Y-51564505D01*
X69502566Y-50602566D01*
X69748603Y-50234345D01*
X69835000Y-49800000D01*
X69748603Y-49365655D01*
X69502566Y-48997434D01*
X69134345Y-48751397D01*
X68700000Y-48665000D01*
X68685001Y-48667984D01*
X68685001Y-46010001D01*
X68628952Y-45728227D01*
X78914977Y-56014252D01*
G36*
X56207000Y-92333000D02*
X56227000Y-92333000D01*
X56227000Y-92587000D01*
X56207000Y-92587000D01*
X56207000Y-92607000D01*
X55953000Y-92607000D01*
X55953000Y-92587000D01*
X55933000Y-92587000D01*
X55933000Y-92333000D01*
X55953000Y-92333000D01*
X55953000Y-92313000D01*
X56207000Y-92313000D01*
X56207000Y-92333000D01*
X56207000Y-92333000D01*
G37*
X56207000Y-92333000D02*
X56227000Y-92333000D01*
X56227000Y-92587000D01*
X56207000Y-92587000D01*
X56207000Y-92607000D01*
X55953000Y-92607000D01*
X55953000Y-92587000D01*
X55933000Y-92587000D01*
X55933000Y-92333000D01*
X55953000Y-92333000D01*
X55953000Y-92313000D01*
X56207000Y-92313000D01*
X56207000Y-92333000D01*
G36*
X66367000Y-92333000D02*
X66387000Y-92333000D01*
X66387000Y-92587000D01*
X66367000Y-92587000D01*
X66367000Y-92607000D01*
X66113000Y-92607000D01*
X66113000Y-92587000D01*
X66093000Y-92587000D01*
X66093000Y-92333000D01*
X66113000Y-92333000D01*
X66113000Y-92313000D01*
X66367000Y-92313000D01*
X66367000Y-92333000D01*
X66367000Y-92333000D01*
G37*
X66367000Y-92333000D02*
X66387000Y-92333000D01*
X66387000Y-92587000D01*
X66367000Y-92587000D01*
X66367000Y-92607000D01*
X66113000Y-92607000D01*
X66113000Y-92587000D01*
X66093000Y-92587000D01*
X66093000Y-92333000D01*
X66113000Y-92333000D01*
X66113000Y-92313000D01*
X66367000Y-92313000D01*
X66367000Y-92333000D01*
G36*
X69769673Y-87592192D02*
X70113201Y-87734838D01*
X70485167Y-87735162D01*
X70828943Y-87593117D01*
X70862118Y-87560000D01*
X77244200Y-87560000D01*
X80810665Y-91126465D01*
X80429946Y-91380853D01*
X80210000Y-91710026D01*
X79990054Y-91380853D01*
X79508285Y-91058946D01*
X78940000Y-90945907D01*
X78371715Y-91058946D01*
X77889946Y-91380853D01*
X77670000Y-91710026D01*
X77450054Y-91380853D01*
X76968285Y-91058946D01*
X76400000Y-90945907D01*
X75831715Y-91058946D01*
X75349946Y-91380853D01*
X75122298Y-91721553D01*
X75055183Y-91578642D01*
X74626924Y-91188355D01*
X74216890Y-91018524D01*
X73987000Y-91139845D01*
X73987000Y-92333000D01*
X74007000Y-92333000D01*
X74007000Y-92587000D01*
X73987000Y-92587000D01*
X73987000Y-92607000D01*
X73733000Y-92607000D01*
X73733000Y-92587000D01*
X73713000Y-92587000D01*
X73713000Y-92333000D01*
X73733000Y-92333000D01*
X73733000Y-91139845D01*
X73503110Y-91018524D01*
X73093076Y-91188355D01*
X72664817Y-91578642D01*
X72597702Y-91721553D01*
X72370054Y-91380853D01*
X71888285Y-91058946D01*
X71320000Y-90945907D01*
X70751715Y-91058946D01*
X70269946Y-91380853D01*
X70050000Y-91710026D01*
X69830054Y-91380853D01*
X69348285Y-91058946D01*
X68780000Y-90945907D01*
X68211715Y-91058946D01*
X67729946Y-91380853D01*
X67502298Y-91721553D01*
X67435183Y-91578642D01*
X67169039Y-91336095D01*
X69202567Y-89302567D01*
X69227231Y-89265655D01*
X69448604Y-88934347D01*
X69535001Y-88500001D01*
X69535001Y-87357110D01*
X69769673Y-87592192D01*
X69769673Y-87592192D01*
G37*
X69769673Y-87592192D02*
X70113201Y-87734838D01*
X70485167Y-87735162D01*
X70828943Y-87593117D01*
X70862118Y-87560000D01*
X77244200Y-87560000D01*
X80810665Y-91126465D01*
X80429946Y-91380853D01*
X80210000Y-91710026D01*
X79990054Y-91380853D01*
X79508285Y-91058946D01*
X78940000Y-90945907D01*
X78371715Y-91058946D01*
X77889946Y-91380853D01*
X77670000Y-91710026D01*
X77450054Y-91380853D01*
X76968285Y-91058946D01*
X76400000Y-90945907D01*
X75831715Y-91058946D01*
X75349946Y-91380853D01*
X75122298Y-91721553D01*
X75055183Y-91578642D01*
X74626924Y-91188355D01*
X74216890Y-91018524D01*
X73987000Y-91139845D01*
X73987000Y-92333000D01*
X74007000Y-92333000D01*
X74007000Y-92587000D01*
X73987000Y-92587000D01*
X73987000Y-92607000D01*
X73733000Y-92607000D01*
X73733000Y-92587000D01*
X73713000Y-92587000D01*
X73713000Y-92333000D01*
X73733000Y-92333000D01*
X73733000Y-91139845D01*
X73503110Y-91018524D01*
X73093076Y-91188355D01*
X72664817Y-91578642D01*
X72597702Y-91721553D01*
X72370054Y-91380853D01*
X71888285Y-91058946D01*
X71320000Y-90945907D01*
X70751715Y-91058946D01*
X70269946Y-91380853D01*
X70050000Y-91710026D01*
X69830054Y-91380853D01*
X69348285Y-91058946D01*
X68780000Y-90945907D01*
X68211715Y-91058946D01*
X67729946Y-91380853D01*
X67502298Y-91721553D01*
X67435183Y-91578642D01*
X67169039Y-91336095D01*
X69202567Y-89302567D01*
X69227231Y-89265655D01*
X69448604Y-88934347D01*
X69535001Y-88500001D01*
X69535001Y-87357110D01*
X69769673Y-87592192D01*
G36*
X53447333Y-74256705D02*
X46513455Y-74256705D01*
X46481319Y-74224513D01*
X46137791Y-74081867D01*
X45765825Y-74081543D01*
X45422049Y-74223588D01*
X45242385Y-74402939D01*
X45235092Y-74395645D01*
X45235162Y-74314833D01*
X45093117Y-73971057D01*
X44872291Y-73749845D01*
X45092192Y-73530327D01*
X45234838Y-73186799D01*
X45235162Y-72814833D01*
X45093117Y-72471057D01*
X45060000Y-72437882D01*
X45060000Y-72200000D01*
X45047832Y-72138827D01*
X45002148Y-71909160D01*
X44837401Y-71662599D01*
X42301802Y-69127000D01*
X44500000Y-69127000D01*
X44551331Y-69116164D01*
X44592481Y-69087041D01*
X46154873Y-67427000D01*
X60277037Y-67427000D01*
X53447333Y-74256705D01*
X53447333Y-74256705D01*
G37*
X53447333Y-74256705D02*
X46513455Y-74256705D01*
X46481319Y-74224513D01*
X46137791Y-74081867D01*
X45765825Y-74081543D01*
X45422049Y-74223588D01*
X45242385Y-74402939D01*
X45235092Y-74395645D01*
X45235162Y-74314833D01*
X45093117Y-73971057D01*
X44872291Y-73749845D01*
X45092192Y-73530327D01*
X45234838Y-73186799D01*
X45235162Y-72814833D01*
X45093117Y-72471057D01*
X45060000Y-72437882D01*
X45060000Y-72200000D01*
X45047832Y-72138827D01*
X45002148Y-71909160D01*
X44837401Y-71662599D01*
X42301802Y-69127000D01*
X44500000Y-69127000D01*
X44551331Y-69116164D01*
X44592481Y-69087041D01*
X46154873Y-67427000D01*
X60277037Y-67427000D01*
X53447333Y-74256705D01*
G36*
X79170239Y-39073000D02*
X73099791Y-39073000D01*
X73048602Y-38815655D01*
X72802565Y-38447435D01*
X72434345Y-38201398D01*
X71999999Y-38115001D01*
X71360132Y-38115001D01*
X70809226Y-37564095D01*
X70727300Y-30027000D01*
X78975701Y-30027000D01*
X79170239Y-39073000D01*
X79170239Y-39073000D01*
G37*
X79170239Y-39073000D02*
X73099791Y-39073000D01*
X73048602Y-38815655D01*
X72802565Y-38447435D01*
X72434345Y-38201398D01*
X71999999Y-38115001D01*
X71360132Y-38115001D01*
X70809226Y-37564095D01*
X70727300Y-30027000D01*
X78975701Y-30027000D01*
X79170239Y-39073000D01*
G36*
X58308717Y-51334420D02*
X59635462Y-51335578D01*
X60140259Y-51127000D01*
X60373000Y-51127000D01*
X60373000Y-52762675D01*
X60364991Y-52802939D01*
X60364991Y-53797061D01*
X60365000Y-53797106D01*
X60365000Y-60600000D01*
X60373000Y-60640219D01*
X60373000Y-60871723D01*
X50627000Y-60774263D01*
X50627000Y-51127000D01*
X57809194Y-51127000D01*
X58308717Y-51334420D01*
X58308717Y-51334420D01*
G37*
X58308717Y-51334420D02*
X59635462Y-51335578D01*
X60140259Y-51127000D01*
X60373000Y-51127000D01*
X60373000Y-52762675D01*
X60364991Y-52802939D01*
X60364991Y-53797061D01*
X60365000Y-53797106D01*
X60365000Y-60600000D01*
X60373000Y-60640219D01*
X60373000Y-60871723D01*
X50627000Y-60774263D01*
X50627000Y-51127000D01*
X57809194Y-51127000D01*
X58308717Y-51334420D01*
G36*
X90308717Y-51334420D02*
X91635462Y-51335578D01*
X92140259Y-51127000D01*
X99274263Y-51127000D01*
X99371723Y-60873000D01*
X89635000Y-60873000D01*
X89635000Y-51200000D01*
X89627000Y-51159781D01*
X89627000Y-51127000D01*
X89809194Y-51127000D01*
X90308717Y-51334420D01*
X90308717Y-51334420D01*
G37*
X90308717Y-51334420D02*
X91635462Y-51335578D01*
X92140259Y-51127000D01*
X99274263Y-51127000D01*
X99371723Y-60873000D01*
X89635000Y-60873000D01*
X89635000Y-51200000D01*
X89627000Y-51159781D01*
X89627000Y-51127000D01*
X89809194Y-51127000D01*
X90308717Y-51334420D01*
G36*
X113135533Y-63648603D02*
X113569879Y-63735000D01*
X119729868Y-63735000D01*
X120265000Y-64270132D01*
X120265000Y-64983677D01*
X120178260Y-84326610D01*
X119664879Y-84839991D01*
X114058269Y-84839991D01*
X113623923Y-84926388D01*
X113297725Y-85144347D01*
X113255703Y-85172425D01*
X113131397Y-85296731D01*
X111027000Y-85274344D01*
X111027000Y-78066677D01*
X111048603Y-78034346D01*
X111135000Y-77600000D01*
X111135000Y-66000000D01*
X111048603Y-65565654D01*
X111027000Y-65533323D01*
X111027000Y-63425670D01*
X112774363Y-63407277D01*
X113135533Y-63648603D01*
X113135533Y-63648603D01*
G37*
X113135533Y-63648603D02*
X113569879Y-63735000D01*
X119729868Y-63735000D01*
X120265000Y-64270132D01*
X120265000Y-64983677D01*
X120178260Y-84326610D01*
X119664879Y-84839991D01*
X114058269Y-84839991D01*
X113623923Y-84926388D01*
X113297725Y-85144347D01*
X113255703Y-85172425D01*
X113131397Y-85296731D01*
X111027000Y-85274344D01*
X111027000Y-78066677D01*
X111048603Y-78034346D01*
X111135000Y-77600000D01*
X111135000Y-66000000D01*
X111048603Y-65565654D01*
X111027000Y-65533323D01*
X111027000Y-63425670D01*
X112774363Y-63407277D01*
X113135533Y-63648603D01*
M02*
